<?xml version="1.0" encoding="utf-8"?>
<!-- Generator: Adobe Illustrator 26.3.1, SVG Export Plug-In . SVG Version: 6.00 Build 0)  -->
<svg version="1.1" id="Layer_1" xmlns="http://www.w3.org/2000/svg" x="0px"
	 y="0px"
	 viewBox="0 0 1087.71 360.96" style="enable-background:new 0 0 1087.71 360.96;" xml:space="preserve">
<style type="text/css">
	.st0{fill:#DD2638;}
	.st1{fill:#001B72;}
	.st2{fill:#EDEDEB;}
</style>
    <g>
	<path class="st1" d="M259.99,167.11c9.53,0,15.79-2.28,21.2-12.09l50.37-91.92H220.72L163.8,167.11H259.99z M259.99,178.77H163.8
		l56.91,104.01h110.84l-50.37-91.92C275.78,181.05,269.52,178.77,259.99,178.77z M53.25,63.1v219.69h95.33V63.1H53.25z"/>
        <g>
		<path d="M556.73,131.31l6.54-5.86c31.78-28.49,42.48-38.09,71.07-38.09h12.53V63.61H548.5v23.75h9.84c1.58,0,2.77,0.09,3.64,0.21
			c-1.73,3.86-8.28,13.97-33.04,35.19c-11.09,9.5-28.39,23.84-41.79,34.89V99.86c0-11.08,0-12.51,19.26-12.51h9.84V63.61h-93.89
			v23.75h9.84c18.6,0,19.55,3.21,19.55,12.51v146c0,9.29-0.95,12.51-19.55,12.51h-9.84v23.75h93.89v-23.75h-9.84
			c-7.15,0-14.14-0.25-16.79-2.04c-1.15-0.77-2.46-2.66-2.46-10.47v-53.98c3.5-3.06,9.11-7.64,14.24-11.84
			c1.94-1.59,3.83-3.14,5.57-4.57l88.85,106.68l51.07-0.39v-23.39h-9.84c-15.09,0-20.71-6.28-52-44.15
			c-2.41-2.92-4.97-6.02-7.67-9.27l-44.08-53.94c2.66-2.32,5.06-4.26,7.7-6.4C545.11,141.29,549.79,137.51,556.73,131.31z"/>
            <path d="M824.37,167.61v114.83h-25.69l-4.64-28.16c-10.52,20.43-39.62,33.43-66.85,32.81c-60.35-1.24-105.85-39.93-105.85-114.52
			c0-62.52,43.02-113.9,107.4-113.9c46.43,0,88.52,25.38,93.16,74.59h-37.14C782.59,105.4,756.59,89,728.73,89
			c-44.88,0-69.95,43.02-69.95,83.57c0,42.09,20.12,83.88,69.95,83.88c39.62,0,60.35-22.9,62.83-60.04h-65.81v-28.78H824.37z"/>
            <path d="M1034.52,167.61v114.83h-25.69l-4.64-28.16c-10.52,20.43-39.62,33.43-66.85,32.81c-60.35-1.24-105.85-39.93-105.85-114.52
			c0-62.52,43.02-113.9,107.4-113.9c46.43,0,88.52,25.38,93.16,74.59h-37.14C992.74,105.4,966.74,89,938.89,89
			c-44.88,0-69.95,43.02-69.95,83.57c0,42.09,20.12,83.88,69.95,83.88c39.62,0,60.35-22.9,62.83-60.04h-66.81v-28.78H1034.52z"/>
	</g>
</g>
</svg>
