<svg width="326" height="261" viewBox="0 0 326 261" fill="none" xmlns="http://www.w3.org/2000/svg">
<g clip-path="url(#clip0_910_13422)">
<path d="M326 253.704H0C3.57213 244.592 10.1688 236.861 19.468 234.568C33.0715 231.217 47.4673 240.429 61.0404 236.966C68.7505 235 74.8229 229.271 81.2023 224.514C105.269 206.564 138.25 201.259 166.728 210.76C181.614 215.723 195.178 224.404 210.428 228.096C230.146 232.869 250.767 228.91 271.044 228.258C290.793 227.622 319.09 235.672 326 253.704Z" fill="#F3F5FD"/>
<path d="M218.785 3.66504H117.621C109.874 3.66504 103.594 9.94745 103.594 17.6972V236.563C103.594 244.312 109.874 250.595 117.621 250.595H218.785C226.532 250.595 232.812 244.312 232.812 236.563V17.6972C232.812 9.94745 226.532 3.66504 218.785 3.66504Z" fill="white"/>
<path d="M218.786 253.76H117.621C113.063 253.755 108.694 251.941 105.471 248.717C102.248 245.493 100.435 241.122 100.43 236.562V17.6973C100.435 13.1378 102.248 8.76651 105.471 5.54249C108.694 2.31848 113.064 0.505032 117.622 0.5L218.786 0.5C223.344 0.505127 227.713 2.31863 230.936 5.54264C234.159 8.76665 235.972 13.1379 235.977 17.6973V236.562C235.972 241.122 234.159 245.493 230.936 248.717C227.713 251.941 223.343 253.755 218.786 253.76ZM117.622 6.83034C114.741 6.83338 111.98 7.97924 109.943 10.0165C107.907 12.0538 106.761 14.8161 106.758 17.6973V236.562C106.761 239.443 107.907 242.206 109.943 244.243C111.98 246.28 114.741 247.426 117.621 247.429H218.785C221.665 247.426 224.426 246.28 226.463 244.243C228.5 242.206 229.645 239.443 229.648 236.562V17.6973C229.645 14.8162 228.5 12.054 226.463 10.0168C224.426 7.97952 221.665 6.83357 218.785 6.83034H117.622Z" fill="#DADADA"/>
<path d="M146.053 3.66504H190.354V12.2633C190.354 13.9703 189.676 15.6072 188.469 16.8142C187.263 18.0211 185.626 18.6992 183.92 18.6992H152.487C150.78 18.6992 149.144 18.0211 147.937 16.814C146.731 15.607 146.053 13.97 146.053 12.263V3.66504Z" fill="#DADADA"/>
<path d="M142.937 31.3809H115.455V58.8726H142.937V31.3809Z" fill="#DADADA"/>
<path d="M220.953 47.3428H149.33V54.6327H220.953V47.3428Z" fill="#DADADA"/>
<path d="M200.341 34.2856H149.33V41.5756H200.341V34.2856Z" fill="#DADADA"/>
<path d="M220.499 66.5H115V146.027H220.499V66.5Z" fill="#DADADA"/>
<path d="M220.954 156.634H115.455V196.397H220.954V156.634Z" fill="#DADADA"/>
<path d="M220.954 206.875H115.455V236.161H220.954V206.875Z" fill="#DADADA"/>
<path d="M18.3579 119.496L18.2539 119.353H18.2575L18.3579 119.496Z" fill="#001B72"/>
<path d="M287.707 196.187C287.707 196.187 284.934 194.716 285.554 187.162L279.823 186.099C279.823 186.099 280.467 192.871 277.568 195.022L287.707 196.187Z" fill="#E98862"/>
<path opacity="0.15" d="M278.744 193.606L283.504 189.964L279.765 189.925C279.657 191.205 279.311 192.453 278.744 193.606Z" fill="black"/>
<path d="M288.804 184.232C288.408 186.524 287.157 188.694 285.136 189.434C282.738 190.313 280.961 190.372 278.195 190.372C274.42 190.372 274.545 186.435 274.439 182.466C274.331 178.482 274.649 174.209 276.141 172.82C279.117 170.049 287.858 171.804 288.921 176.439C289.47 178.837 289.183 182.051 288.804 184.232Z" fill="#E98862"/>
<path d="M272.417 175.124C272.417 175.124 270.871 174.779 271.294 173.237C271.574 172.215 272.884 172.442 272.884 172.442C272.884 172.442 271.644 172.215 271.644 171.132C271.644 170.45 272.168 169.293 273.75 169.954C275.605 170.729 277.721 170.63 279.33 170.359C280.24 170.16 281.164 170.029 282.094 169.969H282.098C283.167 169.95 284.233 170.093 285.259 170.392C288.135 171.253 292.488 173.832 291.563 179.68C290.53 186.208 287.468 188.704 286.121 189.505C286.041 189.553 285.952 189.582 285.859 189.59C285.767 189.598 285.673 189.585 285.586 189.552C285.499 189.519 285.421 189.467 285.357 189.399C285.294 189.331 285.246 189.25 285.218 189.161C284.836 187.938 284.178 184.86 284.362 178.513C275.522 178.079 272.978 177.948 272.978 177.948C272.978 177.948 270.896 178.026 270.896 176.505C270.896 174.984 272.417 175.124 272.417 175.124Z" fill="#0F1011"/>
<path d="M279.832 182.467C280.119 182.467 280.352 182.234 280.352 181.947C280.352 181.66 280.119 181.427 279.832 181.427C279.545 181.427 279.312 181.66 279.312 181.947C279.312 182.234 279.545 182.467 279.832 182.467Z" fill="#0F1011"/>
<path d="M275.733 182.131C276.02 182.131 276.252 181.898 276.252 181.611C276.252 181.324 276.02 181.091 275.733 181.091C275.446 181.091 275.213 181.324 275.213 181.611C275.213 181.898 275.446 182.131 275.733 182.131Z" fill="#0F1011"/>
<path d="M276.208 180.242L274.832 180.259" stroke="#0F1011" stroke-width="1.362" stroke-miterlimit="10" stroke-linecap="round"/>
<path d="M280.953 180.761L279.596 180.435" stroke="#0F1011" stroke-width="1.362" stroke-miterlimit="10" stroke-linecap="round"/>
<path d="M282.536 183.219C282.497 183.797 282.687 184.367 283.065 184.806C283.443 185.245 283.978 185.517 284.555 185.564C285.132 185.611 285.704 185.429 286.148 185.058C286.592 184.686 286.872 184.154 286.927 183.578C286.956 183.289 286.926 182.997 286.839 182.719C286.753 182.441 286.611 182.184 286.423 181.962C286.235 181.741 286.004 181.559 285.745 181.428C285.485 181.298 285.202 181.221 284.912 181.202C283.342 181.152 282.636 182.006 282.536 183.219Z" fill="#E98862"/>
<g opacity="0.15">
<path d="M277.526 184.83C277.569 184.83 277.61 184.815 277.643 184.787C277.675 184.759 277.697 184.72 277.703 184.678C277.71 184.635 277.701 184.592 277.678 184.555C277.655 184.519 277.62 184.492 277.579 184.48L276.522 184.157L277.261 182.51C277.28 182.466 277.281 182.417 277.264 182.373C277.247 182.329 277.213 182.294 277.17 182.275C277.127 182.255 277.078 182.254 277.034 182.27C276.99 182.287 276.954 182.32 276.934 182.363L276.111 184.195C276.101 184.218 276.096 184.243 276.096 184.268C276.096 184.294 276.101 184.319 276.112 184.342C276.122 184.365 276.137 184.386 276.156 184.403C276.176 184.42 276.198 184.432 276.222 184.44L277.473 184.824C277.49 184.829 277.508 184.831 277.526 184.83Z" fill="black"/>
</g>
<path d="M279.593 186.041C279.593 186.041 277.675 186.243 276.33 185.773C276.33 185.773 276.341 187.037 277.858 187.162C279.376 187.286 279.593 186.041 279.593 186.041Z" fill="#F8FCFF"/>
<path d="M265.189 251.667C264.507 251.552 256.82 250.239 256.82 250.239L258.088 242.813C258.088 242.813 265.754 244.123 266.433 244.237L265.189 251.667Z" fill="#E98862"/>
<path d="M252.435 258.79C252.403 258.99 252.412 259.194 252.462 259.39C252.512 259.587 252.602 259.771 252.726 259.931C252.85 260.091 253.006 260.223 253.184 260.32C253.362 260.417 253.558 260.477 253.759 260.494C254.039 260.519 254.32 260.463 254.569 260.334C254.818 260.204 255.025 260.006 255.165 259.763L259.509 251.6C259.592 251.442 259.641 251.267 259.65 251.089C259.66 250.91 259.631 250.731 259.566 250.565C258.94 249.238 258.757 247.745 259.042 246.306C259.311 245.192 259.887 244.177 260.704 243.376C260.783 243.306 260.841 243.216 260.871 243.115C260.901 243.014 260.901 242.907 260.873 242.806C260.844 242.705 260.787 242.614 260.708 242.544C260.63 242.474 260.533 242.427 260.429 242.41L256.202 241.702C256.077 241.681 255.95 241.685 255.826 241.714C255.703 241.742 255.587 241.795 255.484 241.869C255.381 241.942 255.294 242.036 255.227 242.143C255.161 242.251 255.116 242.37 255.096 242.495L252.435 258.79Z" fill="#9FA6AA"/>
<path d="M288.984 231.581C292.174 231.714 295.423 231.807 298.672 231.888L303.555 231.995L308.432 232.083L308.918 232.092C310.932 232.13 312.857 232.93 314.305 234.332C315.752 235.734 316.615 237.633 316.719 239.645C316.822 241.658 316.159 243.635 314.863 245.178C313.567 246.721 311.734 247.715 309.734 247.96L261.537 253.814L259.574 239.565L307.556 232.155L308.859 248.031L303.907 248.351L298.958 248.651C295.653 248.842 292.348 249.021 288.983 249.159L288.984 231.581Z" fill="#262626"/>
<path d="M301.143 248.546C294.489 247.577 293.827 247.398 293.607 247.341L295.564 240.066C295.542 240.06 295.514 240.052 295.479 240.045C296.024 240.164 299.406 240.681 302.226 241.091L301.143 248.546Z" fill="#E98862"/>
<path d="M309.454 255.022C309.524 255.212 309.554 255.414 309.542 255.617C309.53 255.819 309.477 256.016 309.385 256.197C309.293 256.378 309.165 256.537 309.009 256.666C308.853 256.795 308.672 256.891 308.477 256.947C308.207 257.024 307.921 257.023 307.652 256.943C307.383 256.863 307.142 256.708 306.958 256.495L301.145 249.306C301.034 249.166 300.953 249.004 300.91 248.831C300.867 248.657 300.861 248.477 300.894 248.301C301.257 246.879 301.154 245.379 300.6 244.02C300.125 242.978 299.367 242.091 298.413 241.459C298.322 241.406 298.248 241.329 298.199 241.235C298.151 241.142 298.13 241.036 298.139 240.931C298.148 240.827 298.187 240.726 298.251 240.643C298.314 240.559 298.401 240.495 298.5 240.459L302.516 238.961C302.635 238.917 302.761 238.896 302.887 238.901C303.013 238.906 303.138 238.935 303.252 238.988C303.367 239.041 303.471 239.116 303.557 239.209C303.642 239.302 303.709 239.41 303.753 239.529L309.454 255.022Z" fill="#9FA6AA"/>
<path d="M278.282 247.868C276.263 247.696 274.244 247.572 272.225 247.456C270.207 247.348 268.188 247.24 266.171 247.169L263.144 247.052L260.118 246.965C258.1 246.897 256.084 246.87 254.066 246.831L254.765 232.335C258.542 232.863 262.322 233.348 266.102 233.846C269.881 234.343 273.665 234.801 277.449 235.266L283.127 235.936L288.809 236.573C292.599 236.98 296.389 237.385 300.187 237.719L298.521 252.007C294.747 251.457 290.966 250.978 287.184 250.501L281.51 249.812L275.83 249.156C272.041 248.737 268.253 248.312 264.462 247.925C260.671 247.537 256.879 247.139 253.082 246.783C251.262 246.613 249.572 245.761 248.353 244.397C247.133 243.034 246.473 241.261 246.505 239.431C246.537 237.602 247.258 235.853 248.524 234.532C249.79 233.212 251.508 232.419 253.333 232.312L253.783 232.287C255.796 232.169 257.811 232.061 259.824 231.914L262.845 231.708L265.864 231.472C267.877 231.32 269.89 231.131 271.903 230.945C273.915 230.749 275.927 230.545 277.938 230.293L278.282 247.868Z" fill="#262626"/>
<path d="M296.313 229.381L297.375 247.212L266.717 246.852L269.031 231.065L296.313 229.381Z" fill="#262626"/>
<path d="M306.548 225.349L298.424 200.15C298.087 198.838 297.388 197.647 296.405 196.715C294.766 195.076 291.937 194.017 288.487 194.014C288.229 196.026 276.014 196.033 275.922 194.06C275.455 194.067 275.093 194.075 274.867 194.085C269.932 194.298 267.946 196.198 267.315 199.058L256.957 224.131C256.704 224.745 256.617 225.415 256.706 226.074C256.794 226.732 257.056 227.355 257.463 227.88C257.87 228.405 258.409 228.812 259.025 229.062C259.64 229.311 260.311 229.393 260.969 229.299L266.628 228.492C266.349 229.902 266.305 230.999 266.856 232.266C268.358 235.721 297.883 237.156 298.277 231.079C298.281 231.019 298.281 230.96 298.283 230.899L303.19 230.443C303.773 230.389 304.336 230.204 304.839 229.903C305.341 229.602 305.769 229.192 306.091 228.703C306.414 228.214 306.622 227.658 306.701 227.078C306.78 226.497 306.728 225.906 306.548 225.349ZM266.437 220.911L268.309 216.378C268.288 217.999 268.201 219.422 268.077 220.677L266.437 220.911ZM297.61 223.108L296.178 223.242C295.473 220.996 295.116 218.654 295.122 216.3C295.122 216.025 295.133 215.753 295.151 215.481L297.61 223.108Z" fill="#001B72"/>
<path d="M286.115 206.07L287.382 224.968C287.397 225.191 287.366 225.415 287.291 225.625C287.216 225.835 287.099 226.028 286.947 226.191C286.794 226.354 286.61 226.484 286.405 226.573C286.2 226.662 285.979 226.708 285.756 226.708H259.371C258.967 226.708 258.578 226.558 258.279 226.288C257.98 226.018 257.791 225.647 257.749 225.245L255.798 206.346C255.774 206.119 255.799 205.889 255.87 205.672C255.94 205.455 256.056 205.256 256.209 205.086C256.362 204.917 256.548 204.781 256.757 204.689C256.965 204.596 257.191 204.548 257.419 204.548H284.49C284.903 204.548 285.301 204.705 285.603 204.988C285.905 205.271 286.088 205.658 286.115 206.07Z" fill="#9EBCEA"/>
<path d="M261.575 226.708H289.298C289.926 226.708 290.436 226.199 290.436 225.57C290.436 224.942 289.926 224.432 289.298 224.432H261.575C260.947 224.432 260.438 224.942 260.438 225.57C260.438 226.199 260.947 226.708 261.575 226.708Z" fill="#9EBCEA"/>
<path d="M270.891 218.14C272.278 218.14 273.401 217.016 273.401 215.629C273.401 214.242 272.278 213.118 270.891 213.118C269.505 213.118 268.381 214.242 268.381 215.629C268.381 217.016 269.505 218.14 270.891 218.14Z" fill="white"/>
<path d="M274.508 229.108C276.118 230.101 278.61 230.571 280.783 230.744L280.905 226.783C279.883 226.754 278.313 226.647 276.774 226.708C276.079 226.141 275.679 225.972 274.965 225.258C274.206 224.499 272.213 224.042 271.836 225.258C271.46 226.475 273.094 228.232 274.508 229.108Z" fill="#E98862"/>
<path d="M275.92 194.06C276.013 196.033 277.085 198.936 280.395 199.154C284.806 199.445 288.227 196.026 288.486 194.014H288.475C284.132 194.014 278.452 194.021 275.92 194.06Z" fill="#E98862"/>
<path d="M259.167 196.254L253.492 192.666H226.596V170.768H259.167V196.254Z" fill="#9FA6AA"/>
<path d="M231.383 181.515L238.712 177.957V179.349L232.898 182.056V182.087L238.712 184.809V186.186L231.383 182.628V181.515Z" fill="white" stroke="white" stroke-miterlimit="10"/>
<path d="M240.398 186.805L244.172 175.589H245.502L241.729 186.805H240.398Z" fill="white" stroke="white" stroke-miterlimit="10"/>
<path d="M254.381 182.659L247.051 186.186V184.809L252.958 182.087V182.055L247.051 179.332V177.955L254.381 181.482V182.659Z" fill="white" stroke="white" stroke-miterlimit="10"/>
<path d="M180.021 105.906C181.645 105.906 182.712 105.522 183.634 103.868L192.221 88.3745H173.327L163.626 105.906H180.021ZM180.021 107.873H163.626L173.327 125.405H192.221L183.634 109.911C182.712 108.256 181.645 107.873 180.021 107.873ZM144.779 88.3745V125.405H161.029V88.3745H144.779Z" fill="#001B72"/>
<path d="M54.4254 249.823L46.9473 248.934C47.284 246.102 47.6645 242.701 47.69 242.143C47.69 242.179 47.69 242.208 47.69 242.231H55.2208C55.2194 242.457 55.2194 243.144 54.4254 249.823Z" fill="#E98862"/>
<path d="M24.4195 250.723L16.8887 250.699C16.8887 250.699 16.9141 242.919 16.9141 242.231H24.445C24.445 242.922 24.4195 250.723 24.4195 250.723Z" fill="#E98862"/>
<path d="M57.2043 247.218C56.5814 231.431 56.5434 214.849 56.3483 199.019C53.758 181.945 52.3967 163.219 49.1997 146.266L49.104 146.295L48.8239 144.383L21.5414 142.697C21.5414 142.697 20.8299 156.07 20.5821 160.526C19.2524 184.416 16.5535 222.812 14.9473 247.016L28.1689 248.134C30.53 224.328 34.0218 186.404 36.1559 162.941C38.4977 174.896 41.0642 188.36 43.1435 200.457C43.5986 215.911 43.979 232.015 43.9378 247.444L57.2043 247.218Z" fill="#262626"/>
<path d="M33.5735 253.637C33.776 253.636 33.9763 253.594 34.1616 253.512C34.347 253.43 34.5135 253.311 34.6508 253.162C34.7881 253.013 34.8931 252.837 34.9594 252.646C35.0256 252.454 35.0517 252.251 35.0359 252.049C35.0141 251.769 34.9127 251.501 34.7438 251.277C34.5749 251.053 34.3454 250.881 34.0823 250.783L25.3175 247.846C25.1477 247.79 24.9677 247.771 24.79 247.791C24.6122 247.811 24.4408 247.869 24.2876 247.961C23.0825 248.797 21.641 249.225 20.175 249.181C19.0331 249.099 17.937 248.699 17.0117 248.025C16.9304 247.958 16.8318 247.916 16.7274 247.903C16.623 247.89 16.5171 247.907 16.4221 247.952C16.327 247.998 16.2468 248.069 16.1908 248.158C16.1347 248.247 16.1051 248.35 16.1055 248.455V252.743C16.1055 252.869 16.1304 252.995 16.179 253.112C16.2275 253.228 16.2986 253.334 16.3881 253.424C16.4777 253.513 16.5841 253.584 16.7011 253.632C16.818 253.68 16.9433 253.704 17.0698 253.704L33.5735 253.637Z" fill="#9FA6AA"/>
<path d="M63.6019 253.637C63.8044 253.636 64.0046 253.594 64.1899 253.512C64.3752 253.43 64.5416 253.311 64.6789 253.162C64.8161 253.013 64.9211 252.837 64.9873 252.646C65.0536 252.454 65.0797 252.251 65.0639 252.049C65.042 251.769 64.9406 251.501 64.7717 251.277C64.6028 251.053 64.3733 250.881 64.1104 250.783L55.3448 247.846C55.175 247.79 54.9951 247.771 54.8173 247.791C54.6396 247.811 54.4682 247.869 54.3149 247.961C53.1098 248.797 51.6683 249.225 50.2023 249.181C49.0606 249.099 47.9646 248.699 47.0394 248.025C46.958 247.958 46.8594 247.916 46.755 247.903C46.6506 247.89 46.5447 247.907 46.4497 247.953C46.3547 247.998 46.2744 248.069 46.2183 248.158C46.1622 248.247 46.1326 248.35 46.1328 248.455V252.743C46.1328 252.869 46.1578 252.995 46.2063 253.111C46.2548 253.228 46.3259 253.334 46.4155 253.424C46.5051 253.513 46.6114 253.584 46.7284 253.632C46.8454 253.68 46.9707 253.704 47.0971 253.704L63.6019 253.637Z" fill="#9FA6AA"/>
<path d="M62.1943 117.492L62.3611 117.564L60.2754 117.9L62.3227 121.811C62.3227 121.811 69.916 123.588 73.4684 119.59C73.5589 119.488 73.6165 119.361 73.6338 119.226C73.6511 119.091 73.6271 118.953 73.5651 118.832C73.5031 118.711 73.406 118.611 73.2863 118.546C73.1667 118.48 73.0301 118.453 72.8946 118.467C70.8473 118.675 67.1959 118.922 65.5517 118.273C66.2746 117.918 67.2339 117.374 67.0833 117.049C66.6867 116.196 63.2494 117.322 62.1943 117.492Z" fill="#E98862"/>
<path d="M147.006 50.9175H55.2324V120.099H147.006V50.9175Z" fill="#DD2638"/>
<path d="M84.6986 117.492L84.8653 117.564L82.7793 117.9L84.827 121.811C84.827 121.811 92.4199 123.588 95.9726 119.59C96.0629 119.488 96.1204 119.361 96.1376 119.226C96.1548 119.091 96.1308 118.954 96.0688 118.832C96.0069 118.711 95.9098 118.611 95.7903 118.546C95.6708 118.481 95.5343 118.453 95.3988 118.467C93.3512 118.675 89.7001 118.922 88.0559 118.273C88.7789 117.918 89.7382 117.374 89.5875 117.049C89.1909 116.196 85.7536 117.322 84.6986 117.492Z" fill="#E98862"/>
<path d="M29.9219 105.382C29.9219 105.382 32.8058 104.143 32.8058 96.5635L38.6028 95.9727C38.6028 95.9727 37.4079 102.67 40.1208 105.049L29.9219 105.382Z" fill="#E98862"/>
<path d="M29.8045 93.378C30.0128 95.6947 31.0815 97.9598 33.0348 98.8627C35.1589 99.9145 37.508 100.43 39.8771 100.366C46.1701 100.366 46.0991 86.0453 43.3575 83.0401C40.6159 80.0349 31.7628 81.0696 30.3248 85.6019C29.581 87.9463 29.6065 91.1731 29.8045 93.378Z" fill="#E98862"/>
<path d="M38.9317 92.3541C39.2187 92.3541 39.4514 92.1214 39.4514 91.8343C39.4514 91.5472 39.2187 91.3145 38.9317 91.3145C38.6448 91.3145 38.4121 91.5472 38.4121 91.8343C38.4121 92.1214 38.6448 92.3541 38.9317 92.3541Z" fill="#001B72"/>
<path d="M37.9108 90.8046C37.8491 90.8048 37.7896 90.7817 37.7443 90.7397C37.699 90.6978 37.6712 90.6402 37.6667 90.5786C37.6621 90.517 37.6811 90.456 37.7198 90.4079C37.7584 90.3597 37.8139 90.328 37.875 90.3192L39.2542 90.104C39.3182 90.094 39.3836 90.1099 39.4358 90.1482C39.4881 90.1864 39.5231 90.2439 39.533 90.3079C39.543 90.3719 39.5271 90.4373 39.4888 90.4896C39.4506 90.5419 39.3932 90.5769 39.3292 90.5868L37.9499 90.8021C37.937 90.804 37.9239 90.8049 37.9108 90.8046Z" fill="#001B72"/>
<path d="M46.672 88.5495C46.672 88.5495 46.2754 78.343 34.9759 79.915C34.1449 80.0455 33.3405 80.3099 32.594 80.6978C32.0497 80.1771 31.3952 79.7855 30.6791 79.5522C29.963 79.3188 29.2036 79.2496 28.4571 79.3497C27.7106 79.4498 26.9962 79.7166 26.3668 80.1304C25.7374 80.5442 25.2091 81.0943 24.8211 81.74C24.4331 82.3858 24.1953 83.1106 24.1252 83.8607C24.0552 84.6109 24.1549 85.3672 24.4167 86.0736C24.6785 86.7801 25.0959 87.4185 25.6379 87.9417C26.1799 88.4648 26.8325 88.8593 27.5476 89.0959C27.5476 89.1831 27.5476 89.2688 27.5533 89.3571C27.8671 95.9726 31.001 99.0815 32.3096 99.5884C37.8287 101.727 40.1291 99.0337 42.501 88.862C43.8976 88.8745 45.2928 88.7699 46.672 88.5495Z" fill="#0F1011"/>
<path d="M83.613 116.603L64.6245 122.756L63.2905 120.097H58.5712L55.7919 116.241H55.7883L50.6351 108.976C48.7237 105.945 47.2426 104.37 42.699 104.176C41.2574 104.112 34.2322 104.101 29.0897 104.101C25.6327 104.101 22.7961 105.163 21.1572 106.802C15.5091 112.453 22.441 122.081 22.441 129.615C22.441 137.148 19.0342 140.528 19.2853 144.395C19.6797 150.476 49.2042 149.037 50.7068 145.586C52.0911 142.407 49.735 140.309 49.3118 131.613L55.4513 128.528L57.2515 130.741C57.6185 131.192 58.0811 131.555 58.6059 131.804C59.1306 132.054 59.7043 132.183 60.2853 132.183C60.6932 132.182 61.0984 132.118 61.4867 131.993L86.0229 124.043L83.613 116.603ZM49.6668 122.68C49.7099 122.314 49.7529 121.952 49.7959 121.586L50.3912 122.318L49.6668 122.68Z" fill="#001B72"/>
<path d="M43.0074 94.0405C43 94.62 42.7647 95.1733 42.3524 95.5806C41.9401 95.9878 41.384 96.2161 40.8047 96.2161C40.2253 96.2161 39.6692 95.9878 39.2569 95.5806C38.8446 95.1733 38.6093 94.62 38.6019 94.0405C38.5969 93.7497 38.6505 93.461 38.7595 93.1914C38.8684 92.9218 39.0304 92.6769 39.236 92.4713C39.4415 92.2657 39.6863 92.1035 39.9557 91.9945C40.2252 91.8855 40.5138 91.8318 40.8045 91.8367C42.3734 91.9139 43.0074 92.8233 43.0074 94.0405Z" fill="#E98862"/>
<g opacity="0.61">
<path d="M77.6222 84.4319C84.3021 84.4319 89.7171 79.0149 89.7171 72.3327C89.7171 65.6504 84.3021 60.2334 77.6222 60.2334C70.9424 60.2334 65.5273 65.6504 65.5273 72.3327C65.5273 79.0149 70.9424 84.4319 77.6222 84.4319Z" fill="white"/>
<path d="M136.709 104.273H65.5273V110.449H136.709V104.273Z" fill="white"/>
<path d="M136.709 91.1455H65.5273V97.322H136.709V91.1455Z" fill="white"/>
<path d="M136.709 75.8081H93.5371V81.9845H136.709V75.8081Z" fill="white"/>
<path d="M136.709 62.6807H93.5371V68.8571H136.709V62.6807Z" fill="white"/>
</g>
</g>
<defs>
<clipPath id="clip0_910_13422">
<rect width="326" height="260" fill="white" transform="translate(0 0.5)"/>
</clipPath>
</defs>
</svg>
