<svg width="360" height="212" viewBox="0 0 360 212" fill="none" xmlns="http://www.w3.org/2000/svg">
<g clip-path="url(#clip0_910_13749)">
<path d="M202.511 12.0973C136.384 -15.1744 57.0714 31.7138 38.7137 70.3905C-5.36664 163.262 71.6663 206.125 105.554 190.446C119.702 183.901 131.258 172.724 142.426 161.85C158.944 145.768 181.667 136.228 204.714 135.698C222.658 135.286 240.516 140.101 258.41 138.687C276.304 137.273 292.108 112.596 291.623 94.654C290.882 67.2692 273.422 41.3432 202.511 12.0973Z" fill="#F4F4F4"/>
<path d="M25.9381 132.765L25.2676 132.838L33.5479 208.506L34.2184 208.433L25.9381 132.765Z" fill="#292A2E"/>
<path d="M47.3841 165.799L43.3105 206.098L43.9817 206.166L48.0553 165.867L47.3841 165.799Z" fill="#292A2E"/>
<path d="M54.3901 201.227H24.1641V211.036H54.3901V201.227Z" fill="#292A2E"/>
<path opacity="0.2" d="M54.3901 201.227H24.1641V211.036H54.3901V201.227Z" fill="white"/>
<path d="M72.6115 183.166C78.3373 175.556 75.6076 163.84 66.5143 156.999C57.4211 150.157 45.4079 150.78 39.682 158.39C33.9562 166 36.686 177.715 45.7792 184.557C54.8724 191.399 66.8856 190.776 72.6115 183.166Z" fill="#DD2638"/>
<path opacity="0.2" d="M72.6115 183.166C78.3373 175.556 75.6076 163.84 66.5143 156.999C57.4211 150.157 45.4079 150.78 39.682 158.39C33.9562 166 36.686 177.715 45.7792 184.557C54.8724 191.399 66.8856 190.776 72.6115 183.166Z" fill="white"/>
<path opacity="0.5" d="M72.6105 183.166C72.2261 183.68 71.8066 184.166 71.3548 184.622C65.0516 188.648 55.7483 188.015 48.3675 182.46C39.2754 175.62 36.5464 163.905 42.2728 156.294C42.6581 155.782 43.0767 155.296 43.5258 154.839C49.833 150.809 59.1323 151.446 66.5158 156.998C75.6079 163.841 78.3369 175.556 72.6105 183.166Z" fill="white"/>
<path d="M30.4283 154.292C39.4364 147.338 41.8847 135.413 35.8968 127.656C29.9089 119.898 17.7523 119.247 8.74419 126.2C-0.263902 133.154 -2.71225 145.079 3.27565 152.836C9.26355 160.593 21.4202 161.245 30.4283 154.292Z" fill="#DD2638"/>
<path opacity="0.2" d="M27.5749 152.298C20.5989 157.686 11.733 158.507 5.30644 155C4.56278 154.344 3.88343 153.62 3.27767 152.835C-2.71114 145.08 -0.263133 133.153 8.74437 126.201C15.7208 120.816 24.5866 119.992 31.0102 123.497C31.7557 124.152 32.436 124.878 33.0416 125.664C39.0308 133.419 36.5828 145.346 27.5749 152.298Z" fill="white"/>
<path d="M240.316 9.66406H61.3049C55.3688 9.66406 50.5566 14.4762 50.5566 20.4123V161.284C50.5566 167.22 55.3688 172.032 61.3049 172.032H240.316C246.252 172.032 251.064 167.22 251.064 161.284V20.4123C251.064 14.4762 246.252 9.66406 240.316 9.66406Z" fill="white"/>
<path d="M240.316 172.369H61.3046C58.3655 172.366 55.5477 171.197 53.4694 169.118C51.3911 167.04 50.2221 164.222 50.2188 161.283V20.4122C50.2217 17.473 51.3906 14.655 53.469 12.5767C55.5474 10.4984 58.3654 9.32952 61.3046 9.32666H240.316C243.255 9.32961 246.073 10.4985 248.151 12.5768C250.229 14.6551 251.398 17.473 251.401 20.4122V161.283C251.398 164.222 250.229 167.04 248.151 169.119C246.073 171.197 243.255 172.366 240.316 172.369ZM61.3046 10.0012C58.5443 10.0041 55.8979 11.1019 53.946 13.0537C51.9941 15.0055 50.8963 17.6519 50.8933 20.4122V161.283C50.8962 164.044 51.994 166.69 53.9459 168.642C55.8977 170.594 58.5442 171.692 61.3046 171.694H240.316C243.076 171.692 245.722 170.594 247.674 168.642C249.626 166.69 250.724 164.044 250.727 161.283V20.4122C250.724 17.6519 249.626 15.0056 247.674 13.0538C245.722 11.102 243.076 10.0042 240.316 10.0012H61.3046Z" fill="#292A2E"/>
<path opacity="0.7" d="M235.349 38.853H224.357C222.04 38.853 220.162 40.7311 220.162 43.0478V54.0396C220.162 56.3563 222.04 58.2344 224.357 58.2344H235.349C237.665 58.2344 239.543 56.3563 239.543 54.0396V43.0478C239.543 40.7311 237.665 38.853 235.349 38.853Z" fill="#001B72"/>
<path opacity="0.7" d="M235.306 62.9502H224.399C222.059 62.9502 220.162 64.8471 220.162 67.1872V78.0946C220.162 80.4346 222.059 82.3315 224.399 82.3315H235.306C237.647 82.3315 239.543 80.4346 239.543 78.0946V67.1872C239.543 64.8471 237.647 62.9502 235.306 62.9502Z" fill="#001B72"/>
<path opacity="0.7" d="M235.306 90.2158H224.399C222.059 90.2158 220.162 92.1128 220.162 94.4528V105.36C220.162 107.7 222.059 109.597 224.399 109.597H235.306C237.647 109.597 239.543 107.7 239.543 105.36V94.4528C239.543 92.1128 237.647 90.2158 235.306 90.2158Z" fill="#001B72"/>
<path opacity="0.7" d="M235.306 116.469H224.399C222.059 116.469 220.162 118.366 220.162 120.706V131.614C220.162 133.954 222.059 135.851 224.399 135.851H235.306C237.647 135.851 239.543 133.954 239.543 131.614V120.706C239.543 118.366 237.647 116.469 235.306 116.469Z" fill="#001B72"/>
<g opacity="0.2">
<path d="M156.317 38.853H145.326C143.009 38.853 141.131 40.7311 141.131 43.0478V54.0396C141.131 56.3563 143.009 58.2344 145.326 58.2344H156.317C158.634 58.2344 160.512 56.3563 160.512 54.0396V43.0478C160.512 40.7311 158.634 38.853 156.317 38.853Z" fill="#001B72"/>
<path d="M129.974 38.853H118.982C116.665 38.853 114.787 40.7311 114.787 43.0478V54.0396C114.787 56.3563 116.665 58.2344 118.982 58.2344H129.974C132.29 58.2344 134.168 56.3563 134.168 54.0396V43.0478C134.168 40.7311 132.29 38.853 129.974 38.853Z" fill="#001B72"/>
<path d="M182.661 38.853H171.669C169.353 38.853 167.475 40.7311 167.475 43.0478V54.0396C167.475 56.3563 169.353 58.2344 171.669 58.2344H182.661C184.978 58.2344 186.856 56.3563 186.856 54.0396V43.0478C186.856 40.7311 184.978 38.853 182.661 38.853Z" fill="#001B72"/>
<path d="M209.005 38.853H198.013C195.696 38.853 193.818 40.7311 193.818 43.0478V54.0396C193.818 56.3563 195.696 58.2344 198.013 58.2344H209.005C211.322 58.2344 213.2 56.3563 213.2 54.0396V43.0478C213.2 40.7311 211.322 38.853 209.005 38.853Z" fill="#001B72"/>
<path d="M156.275 62.9497H145.368C143.028 62.9497 141.131 64.8467 141.131 67.1867V78.0941C141.131 80.4341 143.028 82.3311 145.368 82.3311H156.275C158.615 82.3311 160.512 80.4341 160.512 78.0941V67.1867C160.512 64.8467 158.615 62.9497 156.275 62.9497Z" fill="#001B72"/>
<path d="M182.619 62.9497H171.712C169.372 62.9497 167.475 64.8467 167.475 67.1867V78.0941C167.475 80.4341 169.372 82.3311 171.712 82.3311H182.619C184.959 82.3311 186.856 80.4341 186.856 78.0941V67.1867C186.856 64.8467 184.959 62.9497 182.619 62.9497Z" fill="#001B72"/>
<path d="M208.963 62.9497H198.055C195.715 62.9497 193.818 64.8467 193.818 67.1867V78.0941C193.818 80.4341 195.715 82.3311 198.055 82.3311H208.963C211.303 82.3311 213.2 80.4341 213.2 78.0941V67.1867C213.2 64.8467 211.303 62.9497 208.963 62.9497Z" fill="#001B72"/>
<path d="M77.244 62.9497H66.3366C63.9966 62.9497 62.0996 64.8467 62.0996 67.1867V78.0941C62.0996 80.4341 63.9966 82.3311 66.3366 82.3311H77.244C79.584 82.3311 81.481 80.4341 81.481 78.0941V67.1867C81.481 64.8467 79.584 62.9497 77.244 62.9497Z" fill="#001B72"/>
<path d="M103.588 62.9497H92.6803C90.3403 62.9497 88.4434 64.8467 88.4434 67.1867V78.0941C88.4434 80.4341 90.3403 82.3311 92.6803 82.3311H103.588C105.928 82.3311 107.825 80.4341 107.825 78.0941V67.1867C107.825 64.8467 105.928 62.9497 103.588 62.9497Z" fill="#001B72"/>
<path d="M129.931 62.9497H119.024C116.684 62.9497 114.787 64.8467 114.787 67.1867V78.0941C114.787 80.4341 116.684 82.3311 119.024 82.3311H129.931C132.272 82.3311 134.168 80.4341 134.168 78.0941V67.1867C134.168 64.8467 132.272 62.9497 129.931 62.9497Z" fill="#001B72"/>
<path d="M156.275 90.2158H145.368C143.028 90.2158 141.131 92.1128 141.131 94.4528V105.36C141.131 107.7 143.028 109.597 145.368 109.597H156.275C158.615 109.597 160.512 107.7 160.512 105.36V94.4528C160.512 92.1128 158.615 90.2158 156.275 90.2158Z" fill="#001B72"/>
<path d="M182.619 90.2158H171.712C169.372 90.2158 167.475 92.1128 167.475 94.4528V105.36C167.475 107.7 169.372 109.597 171.712 109.597H182.619C184.959 109.597 186.856 107.7 186.856 105.36V94.4528C186.856 92.1128 184.959 90.2158 182.619 90.2158Z" fill="#001B72"/>
<path d="M208.963 90.2158H198.055C195.715 90.2158 193.818 92.1128 193.818 94.4528V105.36C193.818 107.7 195.715 109.597 198.055 109.597H208.963C211.303 109.597 213.2 107.7 213.2 105.36V94.4528C213.2 92.1128 211.303 90.2158 208.963 90.2158Z" fill="#001B72"/>
<path d="M77.244 90.2158H66.3366C63.9966 90.2158 62.0996 92.1128 62.0996 94.4528V105.36C62.0996 107.7 63.9966 109.597 66.3366 109.597H77.244C79.584 109.597 81.481 107.7 81.481 105.36V94.4528C81.481 92.1128 79.584 90.2158 77.244 90.2158Z" fill="#001B72"/>
<path d="M103.588 90.2158H92.6803C90.3403 90.2158 88.4434 92.1128 88.4434 94.4528V105.36C88.4434 107.7 90.3403 109.597 92.6803 109.597H103.588C105.928 109.597 107.825 107.7 107.825 105.36V94.4528C107.825 92.1128 105.928 90.2158 103.588 90.2158Z" fill="#001B72"/>
<path d="M129.931 90.2158H119.024C116.684 90.2158 114.787 92.1128 114.787 94.4528V105.36C114.787 107.7 116.684 109.597 119.024 109.597H129.931C132.272 109.597 134.168 107.7 134.168 105.36V94.4528C134.168 92.1128 132.272 90.2158 129.931 90.2158Z" fill="#001B72"/>
<path d="M156.275 116.469H145.368C143.028 116.469 141.131 118.366 141.131 120.706V131.614C141.131 133.954 143.028 135.851 145.368 135.851H156.275C158.615 135.851 160.512 133.954 160.512 131.614V120.706C160.512 118.366 158.615 116.469 156.275 116.469Z" fill="#001B72"/>
<path d="M182.619 116.469H171.712C169.372 116.469 167.475 118.366 167.475 120.706V131.614C167.475 133.954 169.372 135.851 171.712 135.851H182.619C184.959 135.851 186.856 133.954 186.856 131.614V120.706C186.856 118.366 184.959 116.469 182.619 116.469Z" fill="#001B72"/>
<path d="M208.963 116.469H198.055C195.715 116.469 193.818 118.366 193.818 120.706V131.614C193.818 133.954 195.715 135.851 198.055 135.851H208.963C211.303 135.851 213.2 133.954 213.2 131.614V120.706C213.2 118.366 211.303 116.469 208.963 116.469Z" fill="#001B72"/>
<path d="M77.244 116.469H66.3366C63.9966 116.469 62.0996 118.366 62.0996 120.706V131.614C62.0996 133.954 63.9966 135.851 66.3366 135.851H77.244C79.584 135.851 81.481 133.954 81.481 131.614V120.706C81.481 118.366 79.584 116.469 77.244 116.469Z" fill="#001B72"/>
<path d="M103.588 116.469H92.6803C90.3403 116.469 88.4434 118.366 88.4434 120.706V131.614C88.4434 133.954 90.3403 135.851 92.6803 135.851H103.588C105.928 135.851 107.825 133.954 107.825 131.614V120.706C107.825 118.366 105.928 116.469 103.588 116.469Z" fill="#001B72"/>
<path d="M129.931 116.469H119.024C116.684 116.469 114.787 118.366 114.787 120.706V131.614C114.787 133.954 116.684 135.851 119.024 135.851H129.931C132.272 135.851 134.168 133.954 134.168 131.614V120.706C134.168 118.366 132.272 116.469 129.931 116.469Z" fill="#001B72"/>
<path d="M156.275 140.632H145.368C143.028 140.632 141.131 142.529 141.131 144.869V155.777C141.131 158.117 143.028 160.014 145.368 160.014H156.275C158.615 160.014 160.512 158.117 160.512 155.777V144.869C160.512 142.529 158.615 140.632 156.275 140.632Z" fill="#001B72"/>
<path d="M77.244 140.632H66.3366C63.9966 140.632 62.0996 142.529 62.0996 144.869V155.777C62.0996 158.117 63.9966 160.014 66.3366 160.014H77.244C79.584 160.014 81.481 158.117 81.481 155.777V144.869C81.481 142.529 79.584 140.632 77.244 140.632Z" fill="#001B72"/>
<path d="M103.588 140.632H92.6803C90.3403 140.632 88.4434 142.529 88.4434 144.869V155.777C88.4434 158.117 90.3403 160.014 92.6803 160.014H103.588C105.928 160.014 107.825 158.117 107.825 155.777V144.869C107.825 142.529 105.928 140.632 103.588 140.632Z" fill="#001B72"/>
<path d="M129.931 140.632H119.024C116.684 140.632 114.787 142.529 114.787 144.869V155.777C114.787 158.117 116.684 160.014 119.024 160.014H129.931C132.272 160.014 134.168 158.117 134.168 155.777V144.869C134.168 142.529 132.272 140.632 129.931 140.632Z" fill="#001B72"/>
</g>
<path d="M251.064 20.4132V27.3036H50.5586V20.4132C50.5582 19.0015 50.8359 17.6036 51.3758 16.2993C51.9158 14.995 52.7074 13.8099 53.7054 12.8116C54.7034 11.8132 55.8884 11.0213 57.1925 10.481C58.4967 9.94069 59.8945 9.6626 61.3061 9.6626H240.317C243.168 9.66313 245.901 10.7961 247.917 12.8122C249.932 14.8283 251.064 17.5624 251.064 20.4132Z" fill="#292A2E"/>
<path d="M86.9688 9.32656C86.9687 7.61597 87.4759 5.94377 88.4261 4.52143C89.3764 3.09908 90.7272 1.99047 92.3075 1.33578C93.8879 0.681083 95.6269 0.509717 97.3046 0.843347C98.9823 1.17698 100.523 2.00062 101.733 3.21012C102.943 4.41962 103.767 5.96065 104.1 7.63835C104.434 9.31606 104.263 11.0551 103.609 12.6355C102.954 14.2159 101.846 15.5668 100.423 16.5172C99.0011 17.4677 97.329 17.9751 95.6184 17.9752C95.4246 17.9752 95.2388 17.8982 95.1018 17.7612C94.9648 17.6242 94.8878 17.4384 94.8878 17.2446C94.8878 17.0509 94.9648 16.8651 95.1018 16.7281C95.2388 16.5911 95.4246 16.5141 95.6184 16.5141C97.04 16.5141 98.4297 16.0925 99.6118 15.3027C100.794 14.5129 101.715 13.3902 102.259 12.0768C102.803 10.7634 102.945 9.31813 102.668 7.92382C102.391 6.5295 101.706 5.24875 100.701 4.24352C99.6956 3.23829 98.4148 2.55374 97.0205 2.27644C95.6261 1.99913 94.1809 2.14152 92.8675 2.6856C91.5541 3.22969 90.4315 4.15103 89.6417 5.33311C88.852 6.51519 88.4305 7.90492 88.4305 9.32656" fill="#E5E5E5"/>
<path d="M131.123 9.32656C131.123 7.61594 131.63 5.94372 132.58 4.52136C133.531 3.099 134.882 1.99038 136.462 1.33571C138.042 0.681039 139.781 0.509712 141.459 0.843396C143.137 1.17708 144.678 2.00079 145.888 3.21036C147.097 4.41992 147.921 5.96102 148.255 7.63877C148.589 9.31651 148.417 11.0556 147.763 12.636C147.108 14.2164 145.999 15.5672 144.577 16.5176C143.155 17.4679 141.483 17.9752 139.772 17.9752C139.578 17.9752 139.392 17.8982 139.255 17.7612C139.118 17.6242 139.041 17.4384 139.041 17.2446C139.041 17.0509 139.118 16.8651 139.255 16.7281C139.392 16.5911 139.578 16.5141 139.772 16.5141C141.194 16.5144 142.584 16.0931 143.766 15.3035C144.948 14.5139 145.87 13.3914 146.414 12.078C146.958 10.7646 147.101 9.31928 146.824 7.92485C146.546 6.53042 145.862 5.24951 144.857 4.24412C143.852 3.23872 142.571 2.554 141.176 2.27656C139.782 1.99912 138.337 2.14141 137.023 2.68544C135.71 3.22948 134.587 4.15081 133.797 5.33293C133.007 6.51505 132.586 7.90485 132.586 9.32656" fill="#E5E5E5"/>
<path d="M175.275 9.32656C175.275 7.61594 175.783 5.94372 176.733 4.52136C177.683 3.099 179.034 1.99038 180.614 1.33571C182.195 0.681039 183.934 0.509712 185.611 0.843396C187.289 1.17708 188.83 2.00079 190.04 3.21036C191.25 4.41992 192.073 5.96102 192.407 7.63877C192.741 9.31651 192.57 11.0556 191.915 12.636C191.26 14.2164 190.152 15.5672 188.73 16.5176C187.307 17.4679 185.635 17.9752 183.924 17.9752C183.731 17.9752 183.545 17.8982 183.408 17.7612C183.271 17.6242 183.194 17.4384 183.194 17.2446C183.194 17.0509 183.271 16.8651 183.408 16.7281C183.545 16.5911 183.731 16.5141 183.924 16.5141C185.346 16.5138 186.736 16.092 187.917 15.302C189.099 14.512 190.02 13.3893 190.564 12.0759C191.108 10.7624 191.25 9.31722 190.973 7.92299C190.695 6.52876 190.01 5.24814 189.005 4.24304C188 3.23795 186.719 2.55353 185.325 2.27634C183.93 1.99914 182.485 2.14161 181.172 2.68573C179.858 3.22986 178.736 4.1512 177.946 5.33325C177.157 6.5153 176.735 7.90498 176.735 9.32656" fill="#E5E5E5"/>
<path d="M197.354 9.32656C197.353 7.61594 197.861 5.94372 198.811 4.52136C199.761 3.099 201.112 1.99038 202.692 1.33571C204.273 0.681039 206.012 0.509712 207.69 0.843396C209.367 1.17708 210.909 2.00079 212.118 3.21036C213.328 4.41992 214.152 5.96102 214.485 7.63877C214.819 9.31651 214.648 11.0556 213.993 12.636C213.339 14.2164 212.23 15.5672 210.808 16.5176C209.385 17.4679 207.713 17.9752 206.002 17.9752C205.809 17.9752 205.623 17.8982 205.486 17.7612C205.349 17.6242 205.272 17.4384 205.272 17.2446C205.272 17.0509 205.349 16.8651 205.486 16.7281C205.623 16.5911 205.809 16.5141 206.002 16.5141C207.424 16.5141 208.814 16.0925 209.996 15.3027C211.178 14.5129 212.099 13.3902 212.643 12.0768C213.187 10.7634 213.33 9.31813 213.052 7.92382C212.775 6.5295 212.09 5.24875 211.085 4.24352C210.08 3.23829 208.799 2.55374 207.405 2.27644C206.01 1.99913 204.565 2.14152 203.252 2.6856C201.938 3.22969 200.816 4.15103 200.026 5.33311C199.236 6.51519 198.815 7.90492 198.815 9.32656" fill="#E5E5E5"/>
<path d="M64.8926 9.32656C64.8925 7.61594 65.3997 5.94372 66.35 4.52136C67.3004 3.099 68.6511 1.99038 70.2315 1.33571C71.8119 0.681039 73.5509 0.509712 75.2287 0.843396C76.9064 1.17708 78.4476 2.00079 79.6572 3.21036C80.8668 4.41992 81.6906 5.96102 82.0243 7.63877C82.3581 9.31651 82.1868 11.0556 81.5322 12.636C80.8776 14.2164 79.769 15.5672 78.3467 16.5176C76.9244 17.4679 75.2522 17.9752 73.5416 17.9752C73.3478 17.9752 73.162 17.8982 73.025 17.7612C72.888 17.6242 72.811 17.4384 72.811 17.2446C72.811 17.0509 72.888 16.8651 73.025 16.7281C73.162 16.5911 73.3478 16.5141 73.5416 16.5141C74.9632 16.5141 76.3529 16.0925 77.5349 15.3027C78.717 14.5129 79.6383 13.3902 80.1823 12.0768C80.7263 10.7634 80.8686 9.31813 80.5913 7.92382C80.3139 6.5295 79.6293 5.24875 78.624 4.24352C77.6187 3.23829 76.338 2.55374 74.9436 2.27644C73.5493 1.99913 72.1041 2.14152 70.7906 2.6856C69.4772 3.22969 68.3547 4.15103 67.5649 5.33311C66.7751 6.51519 66.3536 7.90492 66.3537 9.32656" fill="#E5E5E5"/>
<path d="M109.047 9.32656C109.047 7.61594 109.554 5.94372 110.504 4.52136C111.455 3.099 112.805 1.99038 114.386 1.33571C115.966 0.681039 117.705 0.509712 119.383 0.843396C121.061 1.17708 122.602 2.00079 123.811 3.21036C125.021 4.41992 125.845 5.96102 126.179 7.63877C126.512 9.31651 126.341 11.0556 125.686 12.636C125.032 14.2164 123.923 15.5672 122.501 16.5176C121.079 17.4679 119.406 17.9752 117.696 17.9752C117.502 17.9752 117.316 17.8982 117.179 17.7612C117.042 17.6242 116.965 17.4384 116.965 17.2446C116.965 17.0509 117.042 16.8651 117.179 16.7281C117.316 16.5911 117.502 16.5141 117.696 16.5141C119.117 16.5141 120.507 16.0925 121.689 15.3027C122.871 14.5129 123.793 13.3902 124.337 12.0768C124.881 10.7634 125.023 9.31813 124.746 7.92382C124.468 6.5295 123.784 5.24875 122.778 4.24352C121.773 3.23829 120.492 2.55374 119.098 2.27644C117.704 1.99913 116.258 2.14152 114.945 2.6856C113.632 3.22969 112.509 4.15103 111.719 5.33311C110.929 6.51519 110.508 7.90492 110.508 9.32656" fill="#E5E5E5"/>
<path d="M153.199 9.32656C153.199 7.61593 153.706 5.94369 154.657 4.52132C155.607 3.09895 156.958 1.99034 158.538 1.33568C160.119 0.681016 161.858 0.509709 163.535 0.843421C165.213 1.17713 166.754 2.00087 167.964 3.21048C169.174 4.42008 169.997 5.96121 170.331 7.63897C170.665 9.31674 170.493 11.0558 169.839 12.6362C169.184 14.2166 168.075 15.5674 166.653 16.5177C165.231 17.4681 163.558 17.9753 161.848 17.9752C161.654 17.9752 161.468 17.8982 161.331 17.7612C161.194 17.6242 161.117 17.4384 161.117 17.2446C161.117 17.0509 161.194 16.8651 161.331 16.7281C161.468 16.5911 161.654 16.5141 161.848 16.5141C163.269 16.5141 164.659 16.0925 165.841 15.3027C167.023 14.5129 167.945 13.3902 168.489 12.0768C169.033 10.7634 169.175 9.31813 168.898 7.92382C168.62 6.5295 167.936 5.24875 166.93 4.24352C165.925 3.23829 164.644 2.55374 163.25 2.27644C161.856 1.99913 160.41 2.14152 159.097 2.6856C157.784 3.22969 156.661 4.15103 155.871 5.33311C155.081 6.51519 154.66 7.90492 154.66 9.32656" fill="#E5E5E5"/>
<path d="M219.43 9.32656C219.43 7.61593 219.937 5.94369 220.887 4.52132C221.838 3.09895 223.188 1.99034 224.769 1.33568C226.349 0.681016 228.088 0.509709 229.766 0.843421C231.444 1.17713 232.985 2.00087 234.194 3.21048C235.404 4.42008 236.228 5.96121 236.561 7.63897C236.895 9.31674 236.724 11.0558 236.069 12.6362C235.415 14.2166 234.306 15.5674 232.884 16.5177C231.461 17.4681 229.789 17.9753 228.078 17.9752C227.885 17.9752 227.699 17.8982 227.562 17.7612C227.425 17.6242 227.348 17.4384 227.348 17.2446C227.348 17.0509 227.425 16.8651 227.562 16.7281C227.699 16.5911 227.885 16.5141 228.078 16.5141C229.5 16.5141 230.89 16.0926 232.072 15.3028C233.254 14.5131 234.175 13.3905 234.719 12.0771C235.263 10.7636 235.406 9.31836 235.128 7.92402C234.851 6.52968 234.167 5.2489 233.161 4.24364C232.156 3.23838 230.875 2.55379 229.481 2.27646C228.087 1.99913 226.641 2.1415 225.328 2.68557C224.014 3.22965 222.892 4.15098 222.102 5.33307C221.312 6.51516 220.891 7.90491 220.891 9.32656" fill="#E5E5E5"/>
<path d="M94.3482 131.489C94.3175 131.489 94.2868 131.489 94.2558 131.484C94.1143 131.471 93.9771 131.429 93.8528 131.36C93.7286 131.292 93.62 131.198 93.534 131.085L90.4468 127.024C90.3655 126.917 90.3061 126.795 90.2719 126.665C90.2378 126.535 90.2295 126.4 90.2476 126.267C90.2658 126.134 90.3099 126.006 90.3776 125.89C90.4453 125.774 90.5352 125.672 90.6421 125.591C90.749 125.51 90.8709 125.45 91.0008 125.416C91.1307 125.382 91.266 125.374 91.3991 125.392C91.5322 125.41 91.6604 125.454 91.7764 125.522C91.8924 125.589 91.9939 125.679 92.0752 125.786L94.4851 128.957L103.734 120.514C103.935 120.332 104.2 120.236 104.47 120.248C104.741 120.261 104.996 120.38 105.179 120.58C105.362 120.781 105.458 121.045 105.445 121.316C105.433 121.587 105.314 121.842 105.113 122.025L95.0376 131.221C94.8491 131.393 94.6032 131.489 94.3482 131.489Z" fill="#001B72"/>
<path d="M129.687 142.776H119.269C117.978 142.776 116.932 143.823 116.932 145.114V155.532C116.932 156.823 117.978 157.87 119.269 157.87H129.687C130.978 157.87 132.025 156.823 132.025 155.532V145.114C132.025 143.823 130.978 142.776 129.687 142.776Z" fill="#001B72"/>
<path d="M197.53 55.5846C197.33 55.5844 197.134 55.5253 196.966 55.4147C196.799 55.3041 196.668 55.1468 196.59 54.9624C196.511 54.778 196.488 54.5745 196.525 54.3773C196.561 54.1802 196.654 53.9979 196.793 53.8533L208.678 41.4841C208.77 41.3848 208.881 41.3049 209.005 41.249C209.128 41.1931 209.262 41.1624 209.397 41.1586C209.533 41.1548 209.668 41.178 209.795 41.2269C209.921 41.2758 210.037 41.3493 210.134 41.4433C210.232 41.5372 210.31 41.6497 210.364 41.7742C210.418 41.8986 210.447 42.0326 210.449 42.1682C210.45 42.3038 210.425 42.4384 210.374 42.5642C210.323 42.6899 210.248 42.8043 210.153 42.9007L198.268 55.2702C198.172 55.3698 198.058 55.449 197.931 55.503C197.804 55.557 197.668 55.5848 197.53 55.5846Z" fill="#0A0A0A"/>
<path d="M209.657 55.3429C209.393 55.3432 209.139 55.2409 208.949 55.0576L196.58 43.1721C196.48 43.0796 196.401 42.9684 196.345 42.8448C196.289 42.7212 196.258 42.5877 196.254 42.4521C196.251 42.3166 196.274 42.1816 196.323 42.055C196.371 41.9285 196.445 41.813 196.539 41.7151C196.633 41.6173 196.745 41.5392 196.87 41.4852C196.994 41.4313 197.128 41.4026 197.264 41.401C197.4 41.3993 197.534 41.4246 197.66 41.4754C197.786 41.5263 197.9 41.6016 197.996 41.6971L210.366 53.5827C210.513 53.724 210.614 53.9061 210.657 54.1056C210.699 54.305 210.682 54.5126 210.605 54.7018C210.529 54.891 210.398 55.0532 210.229 55.1674C210.06 55.2817 209.861 55.3428 209.657 55.3429Z" fill="#0A0A0A"/>
<path d="M320.402 72.5034C320.402 72.5034 321.319 83.3549 323.833 87.2529C331.07 98.4753 333.335 111.205 326.407 117.998C319.479 124.792 274.536 125.682 270.859 110.403C267.764 97.5394 273.891 96.0418 275.199 85.3621C275.79 80.5294 277.474 70.3887 277.474 70.3887" fill="#0A0A0A"/>
<path d="M282.055 107.785C282.132 107.775 282.993 122.062 299.591 120.817C311.082 119.956 315.179 107.764 315.444 107.764C314.205 107.501 312.119 107.118 311.569 106.824C309.759 105.852 307.521 104.84 306.937 101.326C306.6 99.3027 307.171 88.9406 306.996 86.8906L289.355 90.8294C289.601 95.1571 291.327 105.189 285.281 106.965C284.276 107.259 283.192 107.529 282.055 107.785Z" fill="#E98862"/>
<path opacity="0.5" d="M289.107 102.865C289.384 101.975 289.561 101.057 289.638 100.128C289.832 98.0075 289.793 95.8725 289.523 93.7608C293.107 93.2767 296.484 91.797 299.27 89.4897C299.598 90.6992 301.399 95.9845 300.9 97.1339C299.958 99.3071 295.528 102.865 289.107 102.865Z" fill="#0C0C0C"/>
<path d="M291.619 98.4119C298.584 98.9613 307.531 96.0209 309.23 86.7287L310.764 78.3442C312.463 69.052 308.96 60.6267 300.211 59.0266C291.462 57.4265 283.545 63.7634 281.845 73.0556L281.167 76.7657C280.515 80.3328 279.193 97.4314 291.619 98.4119Z" fill="#E98862"/>
<path opacity="0.5" d="M288.776 85.5603L288.759 85.5579C288.405 85.4904 288.055 85.4034 287.71 85.2972C287.195 85.135 286.52 84.8658 286.605 84.401C286.701 83.8718 289.197 78.4244 289.481 77.8048C289.507 77.7521 289.552 77.7115 289.607 77.6918C289.663 77.6721 289.723 77.6747 289.777 77.6992C289.83 77.7237 289.872 77.7681 289.893 77.8229C289.914 77.8776 289.912 77.9384 289.889 77.9923C288.825 80.3118 287.112 84.1255 287.047 84.482C287.105 84.6466 287.96 84.9542 288.84 85.1161C288.897 85.127 288.947 85.1593 288.981 85.2063C289.014 85.2533 289.028 85.3114 289.02 85.3686C289.012 85.4257 288.982 85.4775 288.937 85.5132C288.891 85.5489 288.834 85.5657 288.776 85.5603Z" fill="#0C0C0C"/>
<path opacity="0.5" d="M290.096 89.5593C288.669 89.3828 287.304 88.8738 286.11 88.0732C286.066 88.0387 286.036 87.989 286.027 87.9338C286.017 87.8785 286.029 87.8217 286.059 87.7746C286.089 87.7274 286.136 87.6933 286.19 87.6789C286.244 87.6645 286.302 87.6709 286.352 87.6968C288.935 89.3572 291.493 89.6125 293.749 88.4354C293.794 88.4104 293.841 88.3879 293.889 88.368C293.945 88.35 294.005 88.3541 294.057 88.3795C294.109 88.4048 294.15 88.4495 294.17 88.504C294.19 88.5585 294.188 88.6186 294.165 88.6718C294.141 88.725 294.098 88.7671 294.045 88.7892C294.027 88.7967 293.997 88.8125 293.957 88.8341C292.77 89.4545 291.426 89.707 290.096 89.5593Z" fill="#0C0C0C"/>
<path d="M317.774 81.2211L309.931 79.8329C303.984 77.4688 302.126 67.2093 302.126 67.2093C302.126 67.2093 294.963 74.2775 277.475 70.3899C277.475 70.3899 280.827 46.0134 306.67 52.9365C315.004 55.169 321.026 63.5154 320.351 74.725C319.879 82.5787 317.774 81.2211 317.774 81.2211Z" fill="#0A0A0A"/>
<path d="M308.171 89.4605C310.83 89.9468 313.505 87.4965 313.991 84.8377C314.477 82.1789 312.591 80.3181 309.932 79.832L308.236 81.3633L305.885 89.0426L308.171 89.4605Z" fill="#E98862"/>
<path d="M287.527 73.5309C286.855 73.0738 286.075 72.8027 285.265 72.7454C284.858 72.7136 284.449 72.7435 284.051 72.8341C283.649 72.9232 283.261 73.0625 282.894 73.2486L282.882 73.2543C282.841 73.2744 282.794 73.2774 282.751 73.2627C282.708 73.248 282.672 73.2168 282.652 73.1759C282.632 73.135 282.629 73.0878 282.644 73.0447C282.659 73.0016 282.69 72.9661 282.731 72.946C283.119 72.7321 283.533 72.568 283.962 72.4577C284.394 72.3443 284.841 72.2967 285.288 72.3163C286.192 72.3503 287.071 72.6264 287.832 73.116C287.889 73.1535 287.929 73.2121 287.943 73.279C287.957 73.3459 287.944 73.4157 287.907 73.4729C287.869 73.5301 287.811 73.5701 287.744 73.5841C287.677 73.598 287.607 73.5849 287.55 73.5474L287.544 73.543L287.527 73.5309Z" fill="#0C0C0C"/>
<path d="M294.683 74.392C295.568 74.1995 296.488 74.248 297.348 74.5326C297.773 74.6705 298.175 74.8714 298.541 75.1286C298.904 75.3823 299.234 75.6808 299.523 76.017C299.554 76.0502 299.57 76.0941 299.568 76.1392C299.567 76.1843 299.548 76.227 299.515 76.258C299.482 76.289 299.439 76.3059 299.393 76.305C299.348 76.3041 299.305 76.2854 299.274 76.2531L299.264 76.2437C298.986 75.941 298.671 75.6746 298.326 75.4507C297.985 75.2267 297.612 75.0555 297.22 74.9428C296.44 74.7132 295.614 74.6942 294.825 74.8878L294.805 74.8929C294.772 74.9023 294.738 74.9051 294.704 74.901C294.669 74.8969 294.636 74.886 294.607 74.869C294.577 74.852 294.551 74.8292 294.53 74.8019C294.509 74.7747 294.494 74.7435 294.485 74.7103C294.476 74.677 294.474 74.6424 294.479 74.6084C294.484 74.5744 294.496 74.5417 294.513 74.5123C294.531 74.4828 294.555 74.4573 294.582 74.437C294.61 74.4167 294.642 74.4023 294.675 74.3944L294.683 74.392Z" fill="#0C0C0C"/>
<path opacity="0.52" d="M289.805 91.6684C289.546 91.6407 289.291 91.5909 289.041 91.5196C288.983 91.5035 288.935 91.4653 288.906 91.4134C288.877 91.3615 288.869 91.3002 288.885 91.2429C288.901 91.1856 288.94 91.1371 288.992 91.1079C289.043 91.0788 289.105 91.0715 289.162 91.0876C290.667 91.5105 291.517 90.9328 291.553 90.9078C291.602 90.876 291.661 90.8642 291.718 90.875C291.775 90.8858 291.826 90.9183 291.859 90.9656C291.893 91.013 291.907 91.0715 291.898 91.129C291.89 91.1864 291.859 91.2383 291.813 91.2738C291.209 91.6334 290.5 91.7728 289.805 91.6684Z" fill="#0C0C0C"/>
<path d="M309.922 79.7036C304.634 77.8414 302.826 74.2436 302.241 71.5534C301.862 69.7589 301.862 67.9049 302.241 66.1104L302.405 66.1522C302.032 67.9234 302.033 69.753 302.408 71.5238C302.985 74.1698 304.767 77.7095 309.979 79.5447L309.922 79.7036Z" fill="#0C0C0C"/>
<path opacity="0.1" d="M298.057 84.8879C298.142 84.0469 297.282 83.2709 296.135 83.1547C294.988 83.0384 293.99 83.626 293.904 84.467C293.819 85.308 294.68 86.084 295.826 86.2002C296.973 86.3165 297.971 85.7289 298.057 84.8879Z" fill="#0C0C0C"/>
<path opacity="0.1" d="M283.675 83.0591C283.587 83.899 282.589 84.4859 281.442 84.3712C281.244 84.351 281.049 84.3103 280.859 84.2498C280.788 83.2514 280.768 82.2901 280.781 81.3997C281.098 81.3147 281.427 81.2895 281.753 81.3255C282.899 81.4402 283.759 82.2159 283.675 83.0591Z" fill="#0C0C0C"/>
<path d="M334.194 192.675L337.198 210.985H262.287L265.087 192.564L334.194 192.675Z" fill="#262626"/>
<path d="M299.972 117.266C311.471 116.724 311.955 106.964 311.955 106.964C311.955 106.964 317.652 107.333 321.439 107.845C327.64 108.684 331.741 110.52 334.998 113.775C338.026 116.804 339.86 120.347 337.909 141.264C336.496 156.41 334.195 192.675 334.195 192.675L265.088 192.564C265.088 192.564 262.013 146.058 261.433 139.239C260.326 126.224 258.578 107.879 262.288 106.963C266.611 105.897 280.72 107.65 285.283 106.963C285.358 106.954 284.313 118.004 299.972 117.266Z" fill="#001B72"/>
<path d="M174.12 66.2494C174.02 66.0224 173.874 65.8183 173.692 65.6495C173.51 65.4808 173.295 65.3508 173.061 65.2677C172.827 65.1846 172.579 65.15 172.331 65.166C172.083 65.1821 171.841 65.2484 171.62 65.361C171.199 65.5939 170.882 65.9778 170.734 66.4352C170.585 66.8926 170.616 67.3893 170.82 67.8249L171.82 70.0817L165.395 64.4082C164.692 63.765 163.417 63.4254 162.748 64.2618C162.469 64.5668 162.303 64.9572 162.275 65.3692C162.247 65.7813 162.359 66.1906 162.594 66.5304C162.586 66.5358 162.578 66.5422 162.571 66.5493C162.567 66.5552 162.564 66.5612 162.56 66.5675L161.476 65.5755C161.276 65.3932 161.038 65.2574 160.78 65.1779C160.521 65.0984 160.248 65.0773 159.98 65.116C159.713 65.1547 159.457 65.2523 159.231 65.4017C159.006 65.5512 158.816 65.7488 158.676 65.9803C158.461 66.3544 158.382 66.7915 158.451 67.2175C158.521 67.6435 158.736 68.0323 159.06 68.318L159.522 68.7403C159.515 68.7598 159.513 68.7802 159.514 68.8007C159.14 68.5896 158.703 68.5171 158.281 68.5959C157.859 68.6748 157.478 68.8999 157.205 69.2317C156.913 69.6138 156.777 70.0925 156.825 70.571C156.872 71.0496 157.1 71.4922 157.461 71.8096L158.595 72.847C158.569 72.8436 158.542 72.8466 158.516 72.8557C158.491 72.8649 158.468 72.8799 158.45 72.8997C158.43 72.9242 158.417 72.954 158.413 72.9857C158.034 72.8923 157.636 72.9224 157.275 73.0717C156.915 73.221 156.611 73.4815 156.41 73.8154C156.194 74.1896 156.115 74.6267 156.185 75.0527C156.255 75.4787 156.47 75.8674 156.794 76.1531L166.464 84.9987C167.817 86.2362 169.509 87.0415 171.323 87.3112C173.137 87.5809 174.99 87.3027 176.644 86.5124L181.972 83.968L174.12 66.2494Z" fill="#E98862"/>
<g opacity="0.2">
<path d="M168.923 72.1787C168.893 72.2112 168.852 72.2307 168.808 72.2329C168.763 72.2351 168.72 72.2199 168.687 72.1905L162.584 66.7872C162.551 66.7575 162.53 66.7158 162.528 66.6711C162.525 66.6265 162.54 66.5826 162.57 66.5491C162.599 66.5156 162.641 66.4952 162.686 66.4925C162.73 66.4898 162.774 66.5049 162.808 66.5346L168.911 71.9379C168.927 71.9525 168.941 71.9703 168.951 71.9903C168.96 72.0102 168.966 72.0318 168.967 72.0539C168.969 72.076 168.966 72.0982 168.958 72.1191C168.951 72.1401 168.94 72.1594 168.925 72.176L168.923 72.1787Z" fill="#0C0C0C"/>
</g>
<g opacity="0.2">
<path d="M166.615 74.9363C166.586 74.9688 166.544 74.9882 166.5 74.9903C166.456 74.9925 166.412 74.9772 166.379 74.9478L159.569 68.9178C159.552 68.9031 159.538 68.8853 159.529 68.8654C159.519 68.8455 159.513 68.8238 159.512 68.8017C159.511 68.7796 159.514 68.7575 159.521 68.7365C159.528 68.7156 159.539 68.6963 159.554 68.6797C159.585 68.6475 159.626 68.628 159.67 68.6253C159.715 68.6226 159.758 68.6369 159.792 68.6652L166.603 74.6951C166.62 74.7098 166.633 74.7276 166.643 74.7475C166.653 74.7674 166.658 74.7891 166.66 74.8112C166.661 74.8333 166.658 74.8555 166.651 74.8764C166.643 74.8973 166.632 74.9167 166.618 74.9333L166.615 74.9363Z" fill="#0C0C0C"/>
</g>
<g opacity="0.2">
<path d="M164.132 77.9373C164.102 77.9698 164.061 77.9892 164.016 77.9913C163.972 77.9935 163.929 77.9782 163.896 77.9488L158.463 73.1388C158.43 73.1091 158.409 73.0674 158.407 73.0227C158.404 72.978 158.419 72.9341 158.449 72.9006C158.478 72.8671 158.52 72.8468 158.565 72.8441C158.609 72.8413 158.653 72.8565 158.687 72.8861L164.121 77.6961C164.138 77.7108 164.151 77.7287 164.161 77.7486C164.171 77.7685 164.176 77.7901 164.177 77.8123C164.179 77.8344 164.176 77.8565 164.168 77.8775C164.161 77.8984 164.15 77.9177 164.135 77.9343L164.132 77.9373Z" fill="#0C0C0C"/>
</g>
<path d="M180.281 72.5034L216.906 102.503L270.976 107.077C274.227 107.35 277.247 108.868 279.405 111.315C281.563 113.761 282.693 116.948 282.557 120.207C282.421 123.467 281.031 126.548 278.677 128.807C276.323 131.066 273.187 132.328 269.924 132.329C269.567 132.329 269.207 132.314 268.845 132.283L210.793 127.374C208.203 127.155 205.743 126.143 203.749 124.477L165.393 90.4493L180.281 72.5034Z" fill="#001B72"/>
<path d="M170.292 77.9909L143.381 72.6385L147.621 51.3225L154.545 46.8828L175.645 51.0793L170.292 77.9909Z" fill="#DD2638"/>
<path opacity="0.29" d="M154.546 46.8828L147.621 51.3225L153.447 52.5829L154.546 46.8828Z" fill="#FFFFFA"/>
<g opacity="0.88">
<path d="M170.65 60.636C170.627 60.6361 170.604 60.6339 170.582 60.6293L149.836 56.4203C149.793 56.4115 149.752 56.3942 149.715 56.3694C149.678 56.3446 149.647 56.3128 149.622 56.2758C149.573 56.2012 149.555 56.11 149.573 56.0223C149.591 55.9347 149.643 55.8577 149.718 55.8084C149.792 55.759 149.884 55.7414 149.971 55.7593L170.717 59.9682C170.799 59.9849 170.872 60.0314 170.922 60.0987C170.971 60.1661 170.994 60.2494 170.986 60.3327C170.977 60.4159 170.938 60.493 170.876 60.5491C170.814 60.6051 170.733 60.6361 170.65 60.636Z" fill="white"/>
<path d="M169.886 64.5814C169.863 64.5814 169.841 64.5792 169.819 64.5746L149.073 60.3656C148.985 60.3478 148.908 60.2958 148.859 60.2211C148.809 60.1465 148.792 60.0553 148.81 59.9676C148.827 59.88 148.879 59.803 148.954 59.7537C149.029 59.7043 149.12 59.6867 149.208 59.7046L169.954 63.9135C170.036 63.9302 170.108 63.9767 170.158 64.044C170.208 64.1114 170.23 64.1947 170.222 64.278C170.214 64.3612 170.175 64.4383 170.112 64.4944C170.05 64.5504 169.97 64.5814 169.886 64.5814Z" fill="white"/>
<path d="M169.064 68.9334C169.041 68.9335 169.019 68.9312 168.996 68.9267L148.25 64.7177C148.207 64.7088 148.166 64.6915 148.129 64.6667C148.092 64.6419 148.061 64.6101 148.036 64.5732C147.987 64.4985 147.969 64.4074 147.987 64.3197C148.005 64.232 148.057 64.1551 148.132 64.1057C148.206 64.0564 148.298 64.0387 148.385 64.0566L169.131 68.2659C169.213 68.2829 169.285 68.3295 169.334 68.3968C169.384 68.464 169.406 68.5471 169.398 68.63C169.389 68.713 169.351 68.7899 169.289 68.8459C169.227 68.9019 169.147 68.9331 169.063 68.9334H169.064Z" fill="white"/>
<path d="M156.823 70.4988C156.8 70.4989 156.777 70.4967 156.755 70.4921L147.553 68.6248C147.509 68.6169 147.467 68.6002 147.429 68.5757C147.391 68.5512 147.359 68.5194 147.334 68.4822C147.308 68.445 147.291 68.4031 147.282 68.359C147.273 68.3149 147.273 68.2694 147.282 68.2254C147.291 68.1813 147.309 68.1395 147.334 68.1024C147.36 68.0652 147.392 68.0336 147.43 68.0092C147.468 67.9849 147.51 67.9684 147.555 67.9606C147.599 67.9529 147.644 67.954 147.688 67.9641L156.89 69.831C156.972 69.8476 157.045 69.8941 157.095 69.9615C157.144 70.0288 157.167 70.1122 157.159 70.1954C157.15 70.2786 157.111 70.3558 157.049 70.4118C156.987 70.4679 156.906 70.4989 156.823 70.4988Z" fill="white"/>
</g>
<path d="M172.158 70.9244L170.821 67.8248C170.618 67.3892 170.587 66.8925 170.735 66.4351C170.884 65.9777 171.2 65.5938 171.621 65.3609C171.843 65.2483 172.084 65.182 172.332 65.1659C172.58 65.1499 172.828 65.1845 173.062 65.2676C173.296 65.3507 173.511 65.4807 173.693 65.6494C173.875 65.8182 174.021 66.0223 174.122 66.2493" fill="#E98862"/>
<path d="M293.312 150.567L284.417 143.195C284.226 143.037 284.005 142.919 283.766 142.849C283.528 142.779 283.278 142.758 283.032 142.788C282.785 142.818 282.547 142.898 282.333 143.022C282.118 143.147 281.931 143.314 281.783 143.514C281.51 143.91 281.397 144.395 281.468 144.871C281.539 145.347 281.788 145.778 282.164 146.077L284.065 147.652L293.01 152.285L293.312 150.567Z" fill="#E98862"/>
<path d="M284.064 147.65L275.785 145.433C274.869 145.17 273.577 145.433 273.35 146.481C273.236 146.878 273.261 147.302 273.419 147.684C273.577 148.065 273.86 148.382 274.222 148.582C274.217 148.59 274.213 148.599 274.21 148.608C274.21 148.615 274.21 148.621 274.21 148.628L272.798 148.224C272.537 148.149 272.264 148.133 271.996 148.177C271.729 148.221 271.475 148.324 271.253 148.478C271.03 148.632 270.844 148.834 270.709 149.069C270.574 149.303 270.492 149.565 270.47 149.835C270.444 150.266 270.568 150.692 270.82 151.043C271.072 151.393 271.438 151.645 271.855 151.757L272.457 151.929C272.46 151.949 272.466 151.968 272.476 151.985C272.047 151.964 271.624 152.094 271.281 152.353C270.938 152.612 270.698 152.983 270.601 153.402C270.511 153.874 270.602 154.363 270.858 154.77C271.114 155.177 271.514 155.471 271.979 155.594L273.457 156.018C273.432 156.027 273.409 156.042 273.39 156.061C273.372 156.08 273.358 156.104 273.35 156.13C273.343 156.161 273.345 156.193 273.355 156.223C272.975 156.308 272.631 156.513 272.375 156.807C272.119 157.102 271.963 157.47 271.931 157.859C271.905 158.29 272.029 158.717 272.281 159.067C272.533 159.417 272.899 159.67 273.316 159.781L285.914 163.392C287.677 163.897 289.55 163.865 291.294 163.298C293.038 162.732 294.574 161.658 295.703 160.213L299.34 155.562L284.064 147.65Z" fill="#E98862"/>
<g opacity="0.2">
<path d="M282.407 150.818C282.394 150.86 282.366 150.896 282.327 150.918C282.289 150.939 282.243 150.945 282.201 150.933L274.33 148.813C274.309 148.807 274.288 148.797 274.271 148.784C274.253 148.77 274.239 148.754 274.228 148.734C274.217 148.715 274.209 148.694 274.207 148.672C274.204 148.65 274.205 148.628 274.211 148.606C274.217 148.585 274.227 148.565 274.24 148.547C274.254 148.53 274.27 148.515 274.29 148.504C274.309 148.493 274.33 148.486 274.352 148.483C274.374 148.48 274.396 148.481 274.418 148.487L282.289 150.606C282.332 150.618 282.369 150.646 282.391 150.685C282.413 150.724 282.419 150.77 282.408 150.813L282.407 150.818Z" fill="#0C0C0C"/>
</g>
<g opacity="0.2">
<path d="M281.567 154.315C281.555 154.357 281.526 154.393 281.488 154.414C281.45 154.436 281.404 154.441 281.362 154.43L272.578 152.065C272.535 152.054 272.498 152.025 272.476 151.986C272.453 151.948 272.447 151.902 272.459 151.858C272.472 151.816 272.5 151.78 272.539 151.758C272.577 151.736 272.623 151.729 272.666 151.739L281.45 154.104C281.471 154.11 281.491 154.12 281.509 154.133C281.526 154.147 281.541 154.164 281.552 154.183C281.563 154.202 281.57 154.223 281.573 154.245C281.576 154.267 281.574 154.289 281.569 154.311L281.567 154.315Z" fill="#0C0C0C"/>
</g>
<g opacity="0.2">
<path d="M280.681 158.108C280.669 158.15 280.64 158.186 280.602 158.207C280.563 158.229 280.518 158.235 280.475 158.223L273.468 156.337C273.446 156.332 273.425 156.322 273.407 156.309C273.389 156.295 273.373 156.279 273.362 156.259C273.35 156.24 273.343 156.218 273.339 156.196C273.336 156.173 273.338 156.151 273.344 156.129C273.35 156.107 273.36 156.086 273.374 156.069C273.388 156.051 273.405 156.036 273.425 156.025C273.445 156.014 273.467 156.007 273.489 156.005C273.512 156.002 273.534 156.005 273.556 156.011L280.563 157.897C280.584 157.903 280.604 157.913 280.622 157.927C280.639 157.94 280.654 157.957 280.665 157.976C280.676 157.995 280.683 158.017 280.686 158.038C280.689 158.06 280.688 158.083 280.682 158.104L280.681 158.108Z" fill="#0C0C0C"/>
</g>
<path d="M286.879 166.663L344.104 183.182C346.409 183.794 348.84 183.741 351.117 183.031C353.393 182.321 355.423 180.981 356.971 179.167C358.519 177.353 359.522 175.138 359.865 172.778C360.209 170.418 359.878 168.009 358.911 165.829L339.401 119.351C338.728 117.833 337.762 116.462 336.558 115.317C335.355 114.172 333.938 113.276 332.388 112.678C330.838 112.081 329.186 111.795 327.525 111.836C325.865 111.877 324.229 112.245 322.711 112.919C321.192 113.592 319.822 114.558 318.677 115.761C317.532 116.965 316.635 118.382 316.038 119.932C315.44 121.481 315.154 123.134 315.195 124.794C315.236 126.455 315.604 128.091 316.278 129.609L328.009 154.05L292.33 145.801L286.879 166.663Z" fill="#001B72"/>
<path d="M334.987 180.718C334.971 180.718 334.955 180.716 334.94 180.711L286.832 166.824C286.79 166.811 286.755 166.783 286.733 166.745C286.711 166.707 286.705 166.662 286.716 166.619L292.168 145.757C292.179 145.714 292.206 145.677 292.244 145.655C292.282 145.632 292.327 145.625 292.37 145.635L327.707 153.804L316.128 129.679C316.117 129.659 316.11 129.637 316.108 129.615C316.106 129.592 316.108 129.569 316.115 129.547C316.122 129.525 316.134 129.505 316.149 129.488C316.164 129.471 316.182 129.457 316.203 129.447C316.223 129.437 316.246 129.431 316.269 129.43C316.292 129.429 316.314 129.433 316.336 129.441C316.357 129.449 316.377 129.462 316.393 129.477C316.409 129.493 316.423 129.512 316.431 129.533L328.162 153.975C328.176 154.003 328.181 154.035 328.177 154.066C328.173 154.098 328.161 154.127 328.141 154.152C328.121 154.177 328.095 154.195 328.065 154.206C328.036 154.216 328.003 154.218 327.973 154.211L292.453 146.002L287.084 166.546L335.034 180.387C335.073 180.398 335.107 180.423 335.129 180.457C335.151 180.492 335.16 180.533 335.155 180.573C335.149 180.613 335.129 180.65 335.098 180.677C335.067 180.704 335.028 180.718 334.987 180.718Z" fill="#0C0C0C"/>
<path d="M333.901 155.499C333.889 155.499 333.877 155.497 333.865 155.495L327.975 154.213C327.931 154.204 327.894 154.177 327.87 154.139C327.846 154.102 327.838 154.057 327.848 154.013C327.857 153.97 327.883 153.932 327.921 153.908C327.958 153.883 328.003 153.875 328.047 153.884L333.937 155.166C333.978 155.175 334.014 155.198 334.038 155.232C334.062 155.266 334.073 155.307 334.068 155.348C334.064 155.39 334.044 155.428 334.013 155.455C333.983 155.483 333.943 155.499 333.901 155.499Z" fill="#0C0C0C"/>
<path d="M260.788 131.772C260.745 131.772 260.704 131.756 260.673 131.727C260.642 131.699 260.622 131.659 260.619 131.616L259.868 121.889C259.866 121.867 259.869 121.845 259.876 121.824C259.883 121.803 259.894 121.783 259.908 121.766C259.922 121.75 259.94 121.736 259.96 121.726C259.98 121.716 260.001 121.71 260.024 121.708C260.046 121.706 260.068 121.709 260.089 121.716C260.11 121.723 260.13 121.734 260.147 121.748C260.163 121.763 260.177 121.78 260.187 121.8C260.197 121.82 260.203 121.842 260.205 121.864L260.956 131.591C260.96 131.635 260.945 131.679 260.916 131.713C260.887 131.747 260.846 131.768 260.801 131.772C260.797 131.772 260.792 131.772 260.788 131.772Z" fill="#0C0C0C"/>
<path d="M283.779 76.7218C284.384 76.7218 284.875 76.2313 284.875 75.6263C284.875 75.0212 284.384 74.5308 283.779 74.5308C283.174 74.5308 282.684 75.0212 282.684 75.6263C282.684 76.2313 283.174 76.7218 283.779 76.7218Z" fill="#0C0C0C"/>
<path d="M294.885 78.5977C295.49 78.5977 295.98 78.1073 295.98 77.5022C295.98 76.8972 295.49 76.4067 294.885 76.4067C294.28 76.4067 293.789 76.8972 293.789 77.5022C293.789 78.1073 294.28 78.5977 294.885 78.5977Z" fill="#0C0C0C"/>
<path d="M339.974 211.323H10.7416C10.6521 211.323 10.5663 211.287 10.5031 211.224C10.4398 211.16 10.4043 211.075 10.4043 210.985C10.4043 210.896 10.4398 210.81 10.5031 210.747C10.5663 210.683 10.6521 210.648 10.7416 210.648H339.974C340.064 210.648 340.149 210.683 340.213 210.747C340.276 210.81 340.311 210.896 340.311 210.985C340.311 211.075 340.276 211.16 340.213 211.224C340.149 211.287 340.064 211.323 339.974 211.323Z" fill="#292A2E"/>
<g clip-path="url(#clip1_910_13749)">
<path d="M234.196 157.153C234.717 157.153 235.06 157.031 235.356 156.507L238.11 151.594H232.049L228.938 157.153H234.196ZM234.196 157.777H228.938L232.049 163.336H238.11L235.356 158.423C235.06 157.898 234.717 157.777 234.196 157.777ZM222.893 151.594V163.336H228.105V151.594H222.893Z" fill="#001B72"/>
</g>
</g>
<defs>
<clipPath id="clip0_910_13749">
<rect width="360" height="210.645" fill="white" transform="translate(0 0.677734)"/>
</clipPath>
<clipPath id="clip1_910_13749">
<rect width="17" height="13" fill="white" transform="translate(222 151)"/>
</clipPath>
</defs>
</svg>
