<svg width="360" height="300" viewBox="0 0 360 300" fill="none" xmlns="http://www.w3.org/2000/svg">
<path d="M102.636 122.744L250.872 122.744C254.512 122.744 257.463 119.793 257.463 116.152V7.62103C257.463 3.98082 254.512 1.02985 250.872 1.02985L102.636 1.02985C98.9954 1.02985 96.0444 3.98082 96.0444 7.62103V116.152C96.0444 119.793 98.9954 122.744 102.636 122.744Z" fill="white"/>
<path d="M250.872 123.015H102.636C100.817 123.013 99.0723 122.29 97.7857 121.003C96.4991 119.717 95.7754 117.972 95.7734 116.153V7.62116C95.7754 5.80164 96.4991 4.05721 97.7857 2.7706C99.0723 1.484 100.817 0.760308 102.636 0.758301L250.872 0.758301C252.692 0.760308 254.436 1.48399 255.723 2.77058C257.009 4.05718 257.733 5.80161 257.735 7.62116V116.153C257.733 117.972 257.009 119.717 255.723 121.003C254.436 122.29 252.692 123.013 250.872 123.015ZM102.636 1.30169C100.961 1.3036 99.3546 1.97002 98.1699 3.15474C96.9852 4.33945 96.3187 5.94572 96.3168 7.62116V116.153C96.3187 117.828 96.9852 119.434 98.1699 120.619C99.3546 121.804 100.961 122.47 102.636 122.472H250.872C252.548 122.47 254.154 121.804 255.339 120.619C256.523 119.434 257.19 117.828 257.192 116.153V7.62116C257.19 5.94569 256.523 4.33943 255.339 3.15472C254.154 1.97001 252.548 1.3036 250.872 1.30169H102.636Z" fill="#292A2E"/>
<path d="M115.254 11.2547L104.659 12.2594C103.565 12.3631 102.762 13.3343 102.866 14.4286L103.87 25.0232C103.974 26.1175 104.945 26.9204 106.039 26.8167L116.634 25.812C117.728 25.7082 118.531 24.737 118.428 23.6428L117.423 13.0482C117.319 11.9539 116.348 11.151 115.254 11.2547Z" fill="#292A2E"/>
<path d="M145.423 34.2371L134.842 33.0986C133.749 32.9811 132.768 33.7717 132.65 34.8645L131.512 45.4456C131.394 46.5385 132.185 47.5197 133.278 47.6373L143.859 48.7758C144.952 48.8933 145.933 48.1027 146.051 47.0099L147.189 36.4288C147.307 35.3359 146.516 34.3547 145.423 34.2371Z" fill="white"/>
<path d="M144.076 49.1175C143.992 49.1175 143.908 49.1129 143.824 49.104L133.243 47.9655C132.632 47.899 132.072 47.5926 131.686 47.1136C131.3 46.6346 131.12 46.0221 131.185 45.4104L132.323 34.8299C132.356 34.527 132.448 34.2334 132.594 33.966C132.74 33.6985 132.937 33.4625 133.175 33.2713C133.412 33.0801 133.684 32.9375 133.977 32.8517C134.269 32.7659 134.576 32.7385 134.879 32.7711L145.459 33.9097C146.071 33.9757 146.632 34.2819 147.018 34.761C147.404 35.2401 147.584 35.8529 147.518 36.4647L146.379 47.0452C146.318 47.6136 146.049 48.1394 145.625 48.5219C145.2 48.9043 144.648 49.1164 144.077 49.1175H144.076ZM143.894 48.4482C144.332 48.4953 144.771 48.3666 145.114 48.0903C145.457 47.814 145.676 47.4128 145.723 46.975L146.862 36.3941C146.909 35.9562 146.78 35.5176 146.504 35.1746C146.228 34.8316 145.826 34.6124 145.388 34.5652L134.807 33.427C134.59 33.4036 134.371 33.4232 134.162 33.4847C133.953 33.5461 133.758 33.6481 133.588 33.785C133.418 33.9218 133.277 34.0907 133.172 34.2821C133.068 34.4736 133.002 34.6837 132.979 34.9005L131.84 45.481C131.794 45.9189 131.923 46.3573 132.199 46.7002C132.475 47.043 132.876 47.2623 133.314 47.31L143.894 48.4482Z" fill="#292A2E"/>
<path d="M192.376 51.0139C192.322 51.0139 192.269 51.0007 192.221 50.9752C192.173 50.9498 192.133 50.913 192.102 50.8681C185.389 40.8821 175.204 39.064 167.84 39.2948C162.86 39.4844 157.944 40.476 153.28 42.2313C153.199 42.264 153.109 42.2635 153.029 42.2299C152.948 42.1964 152.885 42.1325 152.851 42.0522C152.818 41.9719 152.818 41.8817 152.851 41.8012C152.883 41.7207 152.947 41.6564 153.027 41.6223C157.765 39.8379 162.76 38.8294 167.819 38.6357C175.347 38.399 185.767 40.2639 192.65 50.4998C192.683 50.5494 192.702 50.6071 192.705 50.6668C192.708 50.7265 192.695 50.7859 192.667 50.8387C192.639 50.8914 192.597 50.9356 192.546 50.9664C192.495 50.9972 192.436 51.0135 192.376 51.0135V51.0139Z" fill="#292A2E"/>
<path d="M192.498 51.1488C192.468 51.1487 192.438 51.1445 192.408 51.1363L185.652 49.2281C185.568 49.2044 185.497 49.1482 185.454 49.0719C185.411 48.9956 185.401 48.9054 185.424 48.8213C185.448 48.7371 185.504 48.6658 185.581 48.6231C185.657 48.5804 185.747 48.5697 185.831 48.5934L192.27 50.4115L194.089 43.9727C194.114 43.8904 194.171 43.8214 194.246 43.7803C194.322 43.7392 194.411 43.7293 194.493 43.7527C194.576 43.7761 194.647 43.831 194.69 43.9056C194.732 43.9802 194.744 44.0687 194.723 44.1521L192.815 50.9081C192.796 50.9772 192.754 51.0382 192.697 51.0816C192.64 51.1251 192.57 51.1487 192.498 51.1488Z" fill="#292A2E"/>
<path d="M203.094 54.1063L192.499 55.1109C191.405 55.2147 190.602 56.1859 190.705 57.2801L191.71 67.8748C191.814 68.969 192.785 69.772 193.879 69.6682L204.474 68.6636C205.568 68.5598 206.371 67.5886 206.267 66.4944L205.263 55.8997C205.159 54.8055 204.188 54.0025 203.094 54.1063Z" fill="#001B72"/>
<path d="M237.72 21.5357L227.099 20.8528C226.002 20.7823 225.056 21.6143 224.986 22.7112L224.303 33.3314C224.232 34.4283 225.064 35.3747 226.161 35.4452L236.781 36.1281C237.878 36.1986 238.825 35.3666 238.895 34.2697L239.578 23.6495C239.649 22.5526 238.817 21.6062 237.72 21.5357Z" fill="#292A2E"/>
<path d="M243.72 56.1927L233.139 55.0542C232.046 54.9366 231.065 55.7272 230.947 56.8201L229.809 67.4012C229.691 68.494 230.482 69.4753 231.575 69.5929L242.156 70.7313C243.249 70.8489 244.23 70.0583 244.347 68.9654L245.486 58.3844C245.604 57.2915 244.813 56.3102 243.72 56.1927Z" fill="#DD2638"/>
<path d="M185.637 90.661L175.042 91.6656C173.948 91.7694 173.145 92.7406 173.248 93.8348L174.253 104.429C174.357 105.524 175.328 106.327 176.422 106.223L187.017 105.218C188.111 105.114 188.914 104.143 188.81 103.049L187.806 92.4544C187.702 91.3602 186.731 90.5572 185.637 90.661Z" fill="white"/>
<path d="M176.233 106.562C175.656 106.561 175.1 106.345 174.674 105.956C174.247 105.568 173.98 105.035 173.925 104.461L172.92 93.8659C172.863 93.2535 173.051 92.6434 173.443 92.1694C173.835 91.6953 174.399 91.3961 175.011 91.3373L185.605 90.3326C185.908 90.3039 186.214 90.3351 186.506 90.4246C186.797 90.5141 187.068 90.6601 187.302 90.8543C187.537 91.0484 187.732 91.2869 187.874 91.5562C188.017 91.8254 188.105 92.1201 188.134 92.4234L189.138 103.018C189.196 103.63 189.008 104.24 188.616 104.714C188.224 105.188 187.66 105.488 187.048 105.546L176.454 106.551C176.379 106.558 176.306 106.562 176.233 106.562ZM185.828 90.9815C185.775 90.9815 185.722 90.9842 185.669 90.9891L175.073 91.9928C174.635 92.0348 174.231 92.249 173.95 92.5883C173.67 92.9277 173.535 93.3645 173.576 93.803L174.581 104.397C174.623 104.835 174.838 105.239 175.177 105.519C175.516 105.8 175.953 105.934 176.391 105.894L186.985 104.889C187.424 104.847 187.827 104.633 188.108 104.293C188.388 103.954 188.523 103.517 188.482 103.079L187.477 92.4844C187.438 92.0735 187.247 91.6919 186.942 91.4139C186.637 91.1358 186.239 90.9814 185.827 90.9805L185.828 90.9815Z" fill="#292A2E"/>
<path d="M117.324 87.078L106.729 88.0826C105.635 88.1864 104.832 89.1576 104.936 90.2518L105.941 100.846C106.044 101.941 107.016 102.744 108.11 102.64L118.704 101.635C119.799 101.531 120.602 100.56 120.498 99.466L119.493 88.8714C119.389 87.7771 118.418 86.9742 117.324 87.078Z" fill="#001B72"/>
<path d="M202.088 48.7088C202.075 48.7088 202.062 48.7081 202.05 48.7068C202.007 48.7018 201.965 48.6885 201.927 48.6674C201.889 48.6464 201.856 48.6181 201.829 48.5842C201.802 48.5502 201.782 48.5113 201.77 48.4697C201.759 48.428 201.755 48.3845 201.76 48.3415C202.255 45.0126 203.285 41.7855 204.808 38.7844C208.105 32.3934 213.276 28.7279 219.758 28.1818C219.845 28.1745 219.931 28.2021 219.998 28.2585C220.065 28.3149 220.107 28.3956 220.114 28.4827C220.121 28.5698 220.094 28.6563 220.037 28.7232C219.981 28.79 219.9 28.8316 219.813 28.839C204.696 30.1104 202.437 48.234 202.415 48.417C202.406 48.4972 202.367 48.5713 202.307 48.6251C202.246 48.6789 202.169 48.7087 202.088 48.7088Z" fill="#292A2E"/>
<path d="M216.622 32.1063C216.556 32.1063 216.493 32.0871 216.438 32.0509C216.384 32.0147 216.342 31.9633 216.317 31.9031C216.292 31.8429 216.285 31.7766 216.298 31.7127C216.31 31.6487 216.342 31.59 216.388 31.5438L219.434 28.4836L216.375 25.437C216.343 25.4066 216.318 25.3703 216.3 25.3301C216.283 25.2899 216.274 25.2467 216.273 25.2029C216.273 25.1591 216.281 25.1157 216.298 25.0751C216.314 25.0346 216.339 24.9977 216.37 24.9667C216.4 24.9357 216.437 24.9111 216.478 24.8945C216.518 24.8778 216.562 24.8694 216.605 24.8696C216.649 24.8699 216.692 24.8789 216.733 24.8961C216.773 24.9133 216.809 24.9383 216.84 24.9698L220.133 28.2492C220.195 28.311 220.23 28.3949 220.23 28.4823C220.23 28.5697 220.195 28.6536 220.133 28.7154L216.854 32.009C216.824 32.0398 216.787 32.0642 216.747 32.0809C216.708 32.0976 216.665 32.1062 216.622 32.1063Z" fill="#292A2E"/>
<path d="M180.651 85.7358C180.58 85.7358 180.512 85.7132 180.455 85.6712C180.398 85.6292 180.356 85.5702 180.336 85.5027C180.287 85.3415 175.545 69.3281 187.82 62.6859C187.859 62.6643 187.901 62.6505 187.944 62.6453C187.988 62.6402 188.032 62.6438 188.074 62.6559C188.116 62.668 188.155 62.6884 188.19 62.7159C188.224 62.7434 188.252 62.7774 188.273 62.816C188.294 62.8545 188.307 62.8969 188.311 62.9405C188.315 62.9841 188.311 63.0282 188.298 63.0701C188.285 63.112 188.264 63.1509 188.236 63.1845C188.208 63.2181 188.173 63.2457 188.134 63.2658C176.337 69.6483 180.92 85.1522 180.967 85.3082C180.982 85.3575 180.986 85.4096 180.977 85.4605C180.968 85.5113 180.948 85.5594 180.917 85.6008C180.886 85.6423 180.846 85.676 180.8 85.6992C180.754 85.7224 180.703 85.7345 180.652 85.7345L180.651 85.7358Z" fill="#292A2E"/>
<path d="M186.566 67.0842C186.513 67.0842 186.46 67.071 186.412 67.046C186.365 67.0209 186.324 66.9847 186.294 66.9404C186.264 66.8962 186.245 66.8452 186.239 66.7919C186.233 66.7387 186.24 66.6847 186.259 66.6348L187.635 63.1011L184.101 61.7242C184.021 61.6915 183.957 61.6286 183.923 61.5492C183.889 61.4699 183.888 61.3802 183.919 61.2997C183.95 61.2192 184.012 61.1541 184.091 61.1186C184.169 61.083 184.259 61.0798 184.34 61.1096L188.181 62.6046C188.222 62.6203 188.258 62.6438 188.29 62.6738C188.321 62.7037 188.346 62.7395 188.364 62.7792C188.381 62.8189 188.39 62.8615 188.391 62.9048C188.392 62.9481 188.385 62.9912 188.369 63.0316L186.874 66.8725C186.85 66.9347 186.808 66.9882 186.753 67.026C186.698 67.0638 186.633 67.0841 186.566 67.0842Z" fill="#292A2E"/>
<path d="M139.642 31.272C139.555 31.272 139.471 31.2372 139.409 31.1754C139.347 31.1135 139.312 31.0297 139.312 30.9422C139.312 25.9334 137.834 22.1099 134.918 19.5783C129.741 15.0852 121.69 16.1683 121.609 16.1798C121.522 16.1922 121.434 16.1697 121.364 16.1172C121.294 16.0648 121.248 15.9867 121.236 15.9001C121.223 15.8135 121.246 15.7256 121.298 15.6556C121.351 15.5856 121.429 15.5394 121.516 15.527C121.857 15.4779 129.94 14.3875 135.347 19.0775C138.416 21.74 139.972 25.7319 139.972 30.9422C139.972 30.9855 139.963 31.0284 139.947 31.0684C139.93 31.1084 139.906 31.1448 139.875 31.1754C139.845 31.206 139.808 31.2303 139.768 31.2469C139.728 31.2634 139.685 31.272 139.642 31.272Z" fill="#292A2E"/>
<path d="M139.658 31.3901C139.648 31.3901 139.638 31.3901 139.627 31.3901C139.584 31.386 139.542 31.3735 139.504 31.3533C139.466 31.333 139.432 31.3054 139.404 31.272L136.439 27.6916C136.383 27.6242 136.357 27.5374 136.365 27.4503C136.373 27.3632 136.415 27.2829 136.483 27.2272C136.55 27.1714 136.637 27.1446 136.724 27.1528C136.811 27.161 136.891 27.2035 136.947 27.2708L139.703 30.5987L143.03 27.8449C143.063 27.8173 143.101 27.7965 143.143 27.7838C143.184 27.7711 143.228 27.7666 143.271 27.7707C143.314 27.7747 143.356 27.7873 143.394 27.8075C143.432 27.8278 143.466 27.8554 143.494 27.8887C143.521 27.9221 143.542 27.9606 143.555 28.002C143.568 28.0434 143.572 28.0868 143.568 28.13C143.564 28.1731 143.551 28.215 143.531 28.2532C143.511 28.2915 143.483 28.3254 143.45 28.353L139.868 31.3156C139.809 31.364 139.735 31.3903 139.658 31.3901Z" fill="#292A2E"/>
<path d="M146.949 67.6455H136.307C135.207 67.6455 134.316 68.5366 134.316 69.6357V80.2779C134.316 81.377 135.207 82.2681 136.307 82.2681H146.949C148.048 82.2681 148.939 81.377 148.939 80.2779V69.6357C148.939 68.5366 148.048 67.6455 146.949 67.6455Z" fill="#DD2638"/>
<path d="M174.052 87.0947C173.979 87.0946 173.907 87.0699 173.85 87.0247C173.792 86.9795 173.751 86.9163 173.733 86.8451C170.057 72.1394 152.082 73.1708 151.904 73.183C151.86 73.1859 151.817 73.1803 151.776 73.1664C151.735 73.1526 151.697 73.1307 151.664 73.1022C151.631 73.0736 151.604 73.0389 151.585 73C151.566 72.9611 151.554 72.9188 151.552 72.8755C151.549 72.8322 151.554 72.7888 151.568 72.7477C151.582 72.7066 151.604 72.6686 151.632 72.6359C151.661 72.6032 151.696 72.5765 151.735 72.5572C151.773 72.5379 151.816 72.5265 151.859 72.5236C155.17 72.4115 158.476 72.8467 161.645 73.8115C166.351 75.2817 172.379 78.7085 174.372 86.6835C174.383 86.7256 174.385 86.7692 174.378 86.8121C174.372 86.8549 174.357 86.8961 174.335 86.9333C174.313 86.9704 174.283 87.0028 174.249 87.0286C174.214 87.0543 174.174 87.073 174.132 87.0835C174.106 87.0906 174.079 87.0944 174.052 87.0947Z" fill="#292A2E"/>
<path d="M174.098 87.2057C174.03 87.2056 173.963 87.1843 173.907 87.1447L170.176 84.4967C170.104 84.446 170.056 84.3691 170.042 84.2829C170.027 84.1966 170.047 84.1081 170.098 84.0369C170.149 83.9656 170.226 83.9174 170.312 83.9028C170.398 83.8883 170.487 83.9085 170.558 83.9592L174.016 86.4137L176.482 82.8388C176.532 82.7675 176.608 82.7189 176.693 82.7034C176.779 82.688 176.867 82.7071 176.939 82.7566C177.011 82.806 177.06 82.8818 177.076 82.9674C177.092 83.053 177.073 83.1414 177.024 83.2134L174.37 87.0632C174.345 87.0992 174.313 87.1299 174.276 87.1535C174.24 87.1771 174.199 87.1931 174.156 87.2007C174.137 87.204 174.117 87.2057 174.098 87.2057Z" fill="#292A2E"/>
<path d="M336.197 299.242L336.845 299.117L326.724 198.541L326.076 198.666L336.197 299.242Z" fill="#494949"/>
<path d="M298.51 299.242L299.157 299.117L289.036 198.541L288.389 198.666L298.51 299.242Z" fill="#494949"/>
<path d="M215.206 299.242L214.559 299.117L224.68 198.541L225.327 198.666L215.206 299.242Z" fill="#494949"/>
<path d="M252.894 299.242L252.246 299.117L262.367 198.541L263.015 198.666L252.894 299.242Z" fill="#494949"/>
<path d="M266.311 154.275L260.398 198.558L261.052 198.645L266.965 154.362L266.311 154.275Z" fill="#494949"/>
<path d="M334.176 154.274L328.264 198.558L328.917 198.645L334.83 154.362L334.176 154.274Z" fill="#494949"/>
<path d="M260.459 201.846H326.839C328.63 201.846 330.082 200.394 330.082 198.603V198.603C330.082 196.812 328.63 195.36 326.839 195.36H260.459C258.668 195.36 257.216 196.812 257.216 198.603V198.603C257.216 200.394 258.668 201.846 260.459 201.846Z" fill="#292A2E"/>
<path opacity="0.8" d="M260.459 201.846H326.839C328.63 201.846 330.082 200.394 330.082 198.603V198.603C330.082 196.812 328.63 195.36 326.839 195.36H260.459C258.668 195.36 257.216 196.812 257.216 198.603V198.603C257.216 200.394 258.668 201.846 260.459 201.846Z" fill="white"/>
<path d="M256.887 198.603C256.888 197.656 257.265 196.748 257.934 196.079C258.604 195.409 259.512 195.032 260.459 195.031H326.839C327.787 195.031 328.695 195.408 329.365 196.078C330.035 196.748 330.412 197.656 330.412 198.604C330.412 199.551 330.035 200.46 329.365 201.13C328.695 201.8 327.787 202.176 326.839 202.176H260.459C259.512 202.175 258.604 201.798 257.934 201.129C257.264 200.459 256.888 199.551 256.887 198.603ZM260.459 195.69C259.687 195.69 258.946 195.997 258.399 196.544C257.853 197.09 257.546 197.831 257.546 198.603C257.546 199.376 257.853 200.117 258.399 200.663C258.946 201.21 259.687 201.517 260.459 201.517H326.839C327.612 201.517 328.353 201.21 328.899 200.663C329.445 200.117 329.752 199.376 329.752 198.603C329.752 197.831 329.445 197.09 328.899 196.544C328.353 195.997 327.612 195.69 326.839 195.69H260.459Z" fill="#292A2E"/>
<path d="M224.026 201.846H290.406C292.197 201.846 293.648 200.394 293.648 198.603V198.603C293.648 196.812 292.197 195.36 290.406 195.36H224.026C222.235 195.36 220.783 196.812 220.783 198.603V198.603C220.783 200.394 222.235 201.846 224.026 201.846Z" fill="white"/>
<path d="M220.451 198.603C220.452 197.656 220.829 196.748 221.5 196.078C222.17 195.408 223.078 195.032 224.025 195.031H290.405C291.353 195.031 292.262 195.408 292.931 196.078C293.601 196.748 293.978 197.656 293.978 198.604C293.978 199.551 293.601 200.46 292.931 201.13C292.262 201.8 291.353 202.176 290.405 202.176H224.025C223.078 202.176 222.169 201.799 221.499 201.129C220.829 200.459 220.452 199.551 220.451 198.603ZM224.025 195.691C223.643 195.691 223.264 195.766 222.911 195.912C222.557 196.059 222.236 196.273 221.965 196.544C221.695 196.814 221.48 197.136 221.334 197.489C221.188 197.842 221.112 198.221 221.112 198.604C221.112 198.986 221.188 199.365 221.334 199.719C221.48 200.072 221.695 200.393 221.965 200.664C222.236 200.934 222.557 201.149 222.911 201.295C223.264 201.442 223.643 201.517 224.025 201.517H290.405C291.178 201.517 291.919 201.21 292.465 200.664C293.011 200.117 293.318 199.376 293.318 198.604C293.318 197.831 293.011 197.09 292.465 196.544C291.919 195.998 291.178 195.691 290.405 195.691H224.025Z" fill="#292A2E"/>
<path d="M269.953 154.32H334.33C335.383 154.32 336.399 153.937 337.19 153.243C337.981 152.548 338.492 151.589 338.628 150.546L342.886 117.843C342.966 117.232 342.914 116.611 342.735 116.021C342.555 115.431 342.252 114.887 341.845 114.423C341.438 113.96 340.937 113.589 340.376 113.335C339.814 113.081 339.205 112.949 338.589 112.949H274.211C273.158 112.949 272.141 113.332 271.35 114.027C270.559 114.721 270.048 115.68 269.912 116.725L265.653 149.427C265.574 150.038 265.626 150.659 265.805 151.249C265.985 151.839 266.288 152.383 266.695 152.847C267.102 153.31 267.603 153.681 268.165 153.935C268.727 154.189 269.336 154.32 269.953 154.32Z" fill="#292A2E"/>
<path opacity="0.8" d="M269.953 154.32H334.33C335.383 154.32 336.399 153.937 337.19 153.243C337.981 152.548 338.492 151.589 338.628 150.546L342.886 117.843C342.966 117.232 342.914 116.611 342.735 116.021C342.555 115.431 342.252 114.887 341.845 114.423C341.438 113.96 340.937 113.589 340.376 113.335C339.814 113.081 339.205 112.949 338.589 112.949H274.211C273.158 112.949 272.141 113.332 271.35 114.027C270.559 114.721 270.048 115.68 269.912 116.725L265.653 149.427C265.574 150.038 265.626 150.659 265.805 151.249C265.985 151.839 266.288 152.383 266.695 152.847C267.102 153.31 267.603 153.681 268.165 153.935C268.727 154.189 269.336 154.32 269.953 154.32Z" fill="white"/>
<path d="M266.449 153.064C266.011 152.565 265.685 151.979 265.492 151.345C265.298 150.71 265.242 150.042 265.328 149.384L269.586 116.682C269.735 115.56 270.286 114.53 271.136 113.783C271.987 113.036 273.079 112.623 274.211 112.62H338.589C339.252 112.62 339.908 112.762 340.512 113.035C341.116 113.309 341.655 113.708 342.093 114.206C342.531 114.705 342.857 115.291 343.05 115.926C343.243 116.56 343.299 117.229 343.213 117.886L338.955 150.588C338.807 151.71 338.256 152.74 337.406 153.487C336.555 154.234 335.463 154.647 334.331 154.65H269.952C269.289 154.65 268.634 154.508 268.03 154.235C267.425 153.961 266.887 153.562 266.449 153.064ZM274.21 113.28C273.239 113.282 272.301 113.637 271.571 114.278C270.841 114.919 270.368 115.804 270.241 116.767L265.983 149.469C265.909 150.034 265.957 150.608 266.123 151.153C266.289 151.697 266.569 152.201 266.945 152.628C267.32 153.056 267.783 153.399 268.302 153.634C268.821 153.869 269.384 153.991 269.953 153.991H334.331C335.303 153.988 336.241 153.634 336.971 152.992C337.701 152.351 338.174 151.467 338.302 150.503L342.56 117.801C342.633 117.236 342.586 116.662 342.42 116.118C342.254 115.573 341.974 115.07 341.598 114.642C341.222 114.214 340.759 113.871 340.241 113.636C339.722 113.401 339.159 113.28 338.589 113.28H274.21Z" fill="#292A2E"/>
<path d="M266.31 154.32H330.687C331.74 154.32 332.757 153.937 333.548 153.243C334.338 152.548 334.849 151.589 334.985 150.546L339.244 117.843C339.323 117.232 339.272 116.61 339.092 116.021C338.912 115.431 338.609 114.887 338.202 114.423C337.796 113.96 337.295 113.589 336.733 113.335C336.172 113.081 335.562 112.949 334.946 112.949H270.569C269.516 112.949 268.5 113.332 267.709 114.027C266.918 114.721 266.407 115.68 266.271 116.724L262.013 149.426C261.933 150.037 261.985 150.658 262.164 151.248C262.344 151.838 262.647 152.382 263.053 152.846C263.46 153.309 263.961 153.68 264.523 153.934C265.084 154.189 265.694 154.32 266.31 154.32Z" fill="white"/>
<path d="M262.806 153.064C262.369 152.565 262.042 151.979 261.849 151.345C261.656 150.71 261.6 150.042 261.685 149.384L265.944 116.682C266.092 115.56 266.643 114.529 267.494 113.782C268.345 113.035 269.438 112.622 270.57 112.62H334.947C335.611 112.62 336.266 112.762 336.871 113.035C337.475 113.309 338.014 113.708 338.452 114.206C338.889 114.705 339.216 115.291 339.409 115.926C339.602 116.56 339.658 117.229 339.572 117.886L335.314 150.588C335.165 151.71 334.615 152.74 333.764 153.487C332.913 154.234 331.821 154.647 330.689 154.65H266.311C265.647 154.65 264.992 154.508 264.387 154.235C263.783 153.961 263.244 153.562 262.806 153.064ZM270.57 113.28C269.598 113.282 268.66 113.637 267.93 114.278C267.199 114.919 266.727 115.804 266.599 116.767L262.341 149.469C262.267 150.034 262.315 150.608 262.481 151.153C262.647 151.697 262.927 152.201 263.303 152.628C263.678 153.056 264.141 153.399 264.66 153.634C265.179 153.869 265.742 153.991 266.311 153.991H330.688C331.66 153.988 332.598 153.634 333.329 152.992C334.059 152.351 334.532 151.467 334.659 150.503L338.917 117.801C338.991 117.237 338.943 116.663 338.777 116.118C338.611 115.573 338.331 115.07 337.955 114.642C337.58 114.214 337.117 113.871 336.598 113.636C336.079 113.401 335.516 113.28 334.947 113.28H270.57Z" fill="#292A2E"/>
<path d="M217.656 281.819C217.656 281.819 215.888 290.984 207.308 291.494C198.728 292.005 200.588 298.84 200.588 298.84H233.378V282.458L217.656 281.819Z" fill="#001B72"/>
<path d="M247.077 276.033C247.077 276.033 249.536 285.037 242.062 289.283C234.589 293.529 239.275 298.84 239.275 298.84L268.697 284.366L261.466 269.667L247.077 276.033Z" fill="#001B72"/>
<path d="M265.299 273.49L240.488 195.217H285.462C294.496 195.217 298.262 187.556 298.262 178.522C298.262 169.489 289.381 161.569 280.347 161.569H219.648C214.139 161.569 207.96 164.939 204.936 169.545C201.912 174.152 202.729 181.289 204.92 186.345L244.652 282.844" fill="#262626"/>
<path opacity="0.8" d="M265.299 273.49L240.488 195.217H285.462C294.496 195.217 298.262 187.556 298.262 178.522C298.262 169.489 289.381 161.569 280.347 161.569H219.648C214.139 161.569 207.96 164.939 204.936 169.545C201.912 174.152 202.729 181.289 204.92 186.345L244.652 282.844" fill="#0A0A0A"/>
<path d="M235.94 288.389L243.788 195.217L298.261 195.213C311.025 194.213 316.87 187.218 316.685 178.186C316.501 169.269 311.986 160.461 303.109 160.461H229.691C223.122 160.596 215.518 166.809 215.518 173.955L211.703 287.306" fill="#262626"/>
<path d="M320.401 160.57C320.401 160.57 322.82 176.346 318.985 185.117C314.198 196.067 296.252 195.214 296.252 195.214L297.263 160.461L320.401 160.57Z" fill="#262626"/>
<path d="M323.068 158.787L323.138 158.791C323.138 158.791 323.088 157.447 323.068 158.787Z" fill="#333333"/>
<path d="M322.98 158.787L323.05 158.791C323.05 158.791 323 157.447 322.98 158.787Z" fill="#333333"/>
<path d="M206.197 94.8283C206.325 94.5741 206.529 94.366 206.781 94.2328C207.032 94.0995 207.319 94.0477 207.602 94.0845C207.599 94.0593 207.605 94.0341 207.617 94.0123C207.63 93.9954 207.648 93.9822 207.668 93.9742C207.687 93.9661 207.709 93.9635 207.73 93.9664L206.777 93.2832C206.493 93.088 206.288 92.7964 206.202 92.4623C206.115 92.1282 206.152 91.774 206.306 91.4651C206.469 91.1649 206.737 90.9357 207.059 90.8218C207.38 90.7079 207.733 90.7176 208.048 90.8489C208.046 90.8354 208.055 90.8225 208.057 90.8087L207.665 90.5281C207.398 90.3432 207.202 90.0716 207.112 89.7592C207.021 89.4468 207.041 89.1128 207.169 88.8135C207.253 88.6274 207.377 88.4623 207.532 88.33C207.688 88.1977 207.871 88.1016 208.068 88.0486C208.265 87.9956 208.472 87.987 208.673 88.0234C208.873 88.0598 209.064 88.1404 209.23 88.2592L210.134 88.9068C210.136 88.9015 210.133 88.8953 210.137 88.8903C210.141 88.8854 210.15 88.8834 210.156 88.8781C209.948 88.6447 209.826 88.3477 209.81 88.0358C209.793 87.7239 209.883 87.4157 210.065 87.1616C210.491 86.4754 211.476 86.6156 212.06 87.0343L217.379 90.7081L216.429 89.1043C216.237 88.7963 216.17 88.4271 216.24 88.0714C216.311 87.7156 216.513 87.3997 216.807 87.1876C216.963 87.0835 217.138 87.0121 217.322 86.978C217.507 86.9438 217.696 86.9475 217.878 86.9888C218.061 87.0302 218.233 87.1083 218.385 87.2184C218.536 87.3286 218.664 87.4684 218.759 87.6295L223.95 96.3671C224.559 97.3923 224.744 98.6146 224.467 99.7741C224.189 100.934 223.47 101.939 222.462 102.577C221.294 103.317 219.931 103.691 218.549 103.651C217.167 103.612 215.828 103.16 214.704 102.354L206.672 96.5973C206.405 96.399 206.213 96.1164 206.127 95.7954C206.04 95.4743 206.065 95.1336 206.197 94.8283Z" fill="#F1926D"/>
<g opacity="0.25">
<path d="M215.396 92.5342C215.377 92.5611 215.347 92.5793 215.314 92.5848C215.282 92.5904 215.248 92.5829 215.221 92.5639L210.167 89.0639C210.14 89.0446 210.121 89.0152 210.115 88.9821C210.109 88.9491 210.117 88.915 210.136 88.8874C210.155 88.8598 210.184 88.8408 210.217 88.8347C210.25 88.8285 210.284 88.8357 210.312 88.8545L215.366 92.3552C215.38 92.3646 215.391 92.3767 215.401 92.3907C215.41 92.4047 215.416 92.4204 215.419 92.4369C215.422 92.4533 215.422 92.4702 215.418 92.4866C215.415 92.503 215.408 92.5185 215.399 92.5323L215.396 92.5342Z" fill="#0C0C0C"/>
</g>
<g opacity="0.25">
<path d="M213.914 94.806C213.894 94.8329 213.865 94.851 213.832 94.8566C213.799 94.8621 213.766 94.8546 213.738 94.8357L208.1 90.9294C208.072 90.9103 208.053 90.8809 208.047 90.8477C208.041 90.8145 208.048 90.7802 208.067 90.7524C208.087 90.7255 208.116 90.7071 208.149 90.701C208.182 90.6948 208.216 90.7014 208.244 90.7194L213.884 94.6256C213.898 94.6351 213.91 94.6472 213.919 94.6612C213.928 94.6752 213.934 94.6909 213.937 94.7073C213.94 94.7238 213.94 94.7407 213.937 94.757C213.933 94.7734 213.927 94.7889 213.917 94.8027L213.914 94.806Z" fill="#0C0C0C"/>
</g>
<g opacity="0.25">
<path d="M212.324 97.2751C212.304 97.3019 212.275 97.3201 212.242 97.3256C212.209 97.3312 212.176 97.3237 212.148 97.3047L207.65 94.1888C207.623 94.1692 207.605 94.1399 207.599 94.1072C207.594 94.0745 207.601 94.0409 207.62 94.0137C207.639 93.9864 207.668 93.9677 207.701 93.9613C207.733 93.955 207.767 93.9616 207.795 93.9798L212.293 97.0957C212.307 97.1051 212.319 97.1172 212.328 97.1312C212.337 97.1452 212.344 97.1609 212.347 97.1774C212.35 97.1938 212.349 97.2107 212.346 97.2271C212.343 97.2434 212.336 97.259 212.326 97.2727L212.324 97.2751Z" fill="#0C0C0C"/>
</g>
<path d="M227.014 94.3779L242.258 120.34L260.858 95.9428L276.305 109.869L249.924 144.034L249.751 144.277C248.695 145.723 247.289 146.877 245.664 147.629C244.039 148.381 242.249 148.707 240.463 148.577C238.677 148.446 236.954 147.863 235.456 146.882C233.958 145.901 232.734 144.555 231.9 142.971L210.223 103.715L227.014 94.3779Z" fill="#001B72"/>
<path d="M243.75 123.462C243.783 123.462 243.816 123.453 243.844 123.437C243.873 123.421 243.898 123.397 243.915 123.369C243.932 123.341 243.942 123.309 243.943 123.276C243.945 123.242 243.937 123.21 243.922 123.18L242.428 120.252C242.404 120.208 242.363 120.175 242.315 120.16C242.267 120.146 242.215 120.15 242.17 120.173C242.125 120.196 242.091 120.235 242.075 120.283C242.059 120.33 242.061 120.382 242.083 120.428L243.577 123.356C243.594 123.388 243.618 123.415 243.649 123.433C243.679 123.452 243.714 123.462 243.75 123.462Z" fill="#0C0C0C"/>
<path d="M261.929 120.192L261.543 120.214L262.008 128.414L262.395 128.392L261.929 120.192Z" fill="#0C0C0C"/>
<path d="M311.049 60.8471C311.049 60.8471 311.764 69.9745 313.857 73.2648C319.884 82.7368 321.722 93.4501 315.862 99.1257C310.002 104.801 272.214 105.317 269.202 92.4544C266.666 81.624 271.825 80.3967 272.98 71.4246C273.503 67.3654 274.97 58.8486 274.97 58.8486" fill="#0A0A0A"/>
<path d="M278.822 90.3966C278.888 90.388 279.611 102.399 293.566 101.353C303.226 100.629 306.67 90.3794 306.892 90.3794C305.85 90.1582 304.096 89.8364 303.634 89.5881C302.112 88.7707 300.23 87.9204 299.74 84.9664C299.457 83.2637 299.938 74.5534 299.789 72.8306L284.961 76.1403C285.168 79.7785 286.618 88.2128 281.535 89.7055C280.689 89.9538 279.778 90.1809 278.822 90.3966Z" fill="#F1926D"/>
<path opacity="0.52" d="M284.752 86.2595C284.984 85.511 285.134 84.7392 285.198 83.9581C285.361 82.1756 285.329 80.3807 285.101 78.6053C288.115 78.1986 290.955 76.9546 293.297 75.0146C293.572 76.0315 295.086 80.4749 294.667 81.4413C293.874 83.2683 290.15 86.2595 284.752 86.2595Z" fill="#0C0C0C"/>
<path d="M286.719 82.4795C292.571 82.9774 300.108 80.5513 301.585 72.7484L302.917 65.7075C304.394 57.9042 301.493 50.804 294.146 49.4125C286.799 48.0221 280.111 53.3085 278.634 61.1118L278.044 64.2287C277.476 67.2229 276.277 81.5909 286.719 82.4795Z" fill="#F1926D"/>
<path d="M280.136 64.5684C280.644 64.5684 281.057 64.1561 281.057 63.6475C281.057 63.1389 280.644 62.7266 280.136 62.7266C279.627 62.7266 279.215 63.1389 279.215 63.6475C279.215 64.1561 279.627 64.5684 280.136 64.5684Z" fill="#0C0C0C"/>
<path d="M289.571 65.8287C290.08 65.8287 290.492 65.4163 290.492 64.9077C290.492 64.3991 290.08 63.9868 289.571 63.9868C289.063 63.9868 288.65 64.3991 288.65 64.9077C288.65 65.4163 289.063 65.8287 289.571 65.8287Z" fill="#0C0C0C"/>
<path d="M284.394 71.6596C284.389 71.6593 284.384 71.6586 284.379 71.6576C284.082 71.5989 283.788 71.524 283.498 71.4331C283.066 71.2943 282.5 71.0641 282.575 70.6747C282.659 70.2303 284.784 65.6629 285.027 65.1443C285.048 65.0989 285.086 65.0638 285.133 65.0466C285.18 65.0294 285.232 65.0317 285.278 65.0528C285.323 65.0739 285.358 65.1122 285.375 65.1592C285.392 65.2062 285.39 65.2581 285.369 65.3035C284.462 67.2489 283.002 70.4472 282.946 70.744C282.994 70.8828 283.712 71.1462 284.45 71.2864C284.499 71.295 284.542 71.3221 284.57 71.362C284.599 71.4019 284.611 71.4513 284.604 71.4999C284.596 71.5485 284.571 71.5923 284.531 71.6221C284.492 71.6518 284.443 71.6652 284.394 71.6593L284.394 71.6596Z" fill="#0C0C0C"/>
<path d="M285.481 75.029C284.283 74.8733 283.138 74.4383 282.138 73.7589C282.096 73.7316 282.067 73.6887 282.057 73.6398C282.046 73.5908 282.056 73.5397 282.083 73.4978C282.111 73.4559 282.154 73.4265 282.203 73.4162C282.251 73.4058 282.303 73.4154 282.344 73.4427C284.507 74.852 286.657 75.0798 288.559 74.1022C288.598 74.0811 288.637 74.0622 288.678 74.0458C288.725 74.0288 288.777 74.0312 288.822 74.0524C288.867 74.0736 288.902 74.112 288.919 74.159C288.936 74.2061 288.934 74.258 288.913 74.3033C288.891 74.3486 288.853 74.3836 288.806 74.4006C288.791 74.4068 288.766 74.42 288.732 74.4378C287.731 74.9539 286.6 75.1597 285.481 75.029Z" fill="#0C0C0C"/>
<path d="M308.794 68.1612L302.208 66.9537C297.22 64.9351 295.712 56.3003 295.712 56.3003C295.712 56.3003 289.654 62.2057 274.973 58.8471C274.973 58.8471 277.917 38.3713 299.608 44.3248C306.602 46.2448 311.622 53.2933 310.997 62.7128C310.556 69.3142 308.794 68.1612 308.794 68.1612Z" fill="#0A0A0A"/>
<path d="M300.677 75.0389C302.91 75.4613 305.172 73.4154 305.595 71.1812C306.017 68.947 304.441 67.3745 302.207 66.9521L300.774 68.2305L298.758 74.6743L300.677 75.0389Z" fill="#F1926D"/>
<path d="M283.681 61.4118C283.03 60.9912 282.277 60.7536 281.502 60.724C281.121 60.707 280.739 60.7474 280.37 60.8437C280.004 60.9376 279.652 61.0773 279.321 61.2595C279.278 61.2849 279.247 61.3252 279.233 61.3725C279.219 61.4198 279.223 61.4707 279.244 61.5151C279.266 61.5596 279.303 61.5944 279.349 61.6127C279.395 61.6311 279.446 61.6316 279.492 61.6142L279.506 61.608C279.812 61.4583 280.135 61.3475 280.469 61.2783C280.799 61.2077 281.137 61.1874 281.473 61.2183C282.139 61.2738 282.779 61.5048 283.327 61.8879L283.345 61.9008C283.376 61.9268 283.412 61.9462 283.451 61.9576C283.49 61.9691 283.531 61.9724 283.571 61.9674C283.612 61.9623 283.651 61.9491 283.686 61.9284C283.721 61.9077 283.751 61.88 283.775 61.8471C283.799 61.8141 283.816 61.7767 283.824 61.737C283.833 61.6972 283.834 61.6562 283.826 61.6162C283.818 61.5763 283.802 61.5384 283.779 61.5049C283.756 61.4714 283.727 61.4429 283.692 61.4214L283.681 61.4118Z" fill="#0C0C0C"/>
<path d="M289.554 62.7949C290.203 62.6361 290.883 62.6517 291.524 62.8401C291.849 62.9328 292.157 63.0741 292.439 63.2591C292.725 63.4445 292.986 63.6652 293.217 63.9159L293.228 63.9265C293.264 63.9594 293.312 63.9773 293.362 63.9768C293.411 63.9763 293.458 63.9573 293.494 63.9237C293.531 63.89 293.553 63.8441 293.557 63.7949C293.561 63.7457 293.546 63.6968 293.516 63.6578C293.273 63.3685 292.995 63.111 292.688 62.8912C292.378 62.6679 292.037 62.4922 291.675 62.3702C290.942 62.118 290.154 62.0677 289.395 62.2248C289.323 62.2455 289.261 62.2929 289.222 62.3574C289.183 62.422 289.17 62.4988 289.186 62.5724C289.202 62.646 289.245 62.7109 289.307 62.7538C289.369 62.7968 289.445 62.8147 289.519 62.8038L289.531 62.8008L289.554 62.7949Z" fill="#0C0C0C"/>
<path d="M285.227 76.8005C285.01 76.7757 284.796 76.7326 284.586 76.6715C284.538 76.6577 284.497 76.6253 284.473 76.5815C284.449 76.5377 284.443 76.486 284.457 76.4379C284.47 76.3898 284.503 76.3492 284.547 76.325C284.59 76.3008 284.642 76.295 284.69 76.3088C285.953 76.6715 286.671 76.1908 286.702 76.17C286.743 76.1413 286.793 76.1299 286.843 76.1386C286.892 76.1472 286.936 76.1751 286.964 76.216C286.993 76.257 287.005 76.3077 286.996 76.357C286.987 76.4063 286.959 76.4502 286.918 76.479C286.409 76.7782 285.811 76.8918 285.227 76.8005Z" fill="#0C0C0C"/>
<path d="M302.194 66.8705L302.26 66.6882C293.916 63.6926 295.956 55.5036 295.978 55.4212L295.791 55.3721C295.768 55.4561 293.681 63.814 302.194 66.8705Z" fill="#0C0C0C"/>
<path opacity="0.1" d="M292.197 71.1422C292.273 70.4356 291.553 69.7787 290.59 69.675C289.627 69.5714 288.784 70.0602 288.708 70.7669C288.632 71.4735 289.351 72.1304 290.315 72.2341C291.278 72.3377 292.121 71.8489 292.197 71.1422Z" fill="#0C0C0C"/>
<path opacity="0.1" d="M280.118 69.531C280.04 70.2367 279.198 70.725 278.234 70.6224C278.068 70.6046 277.904 70.5695 277.744 70.5176C277.69 69.6778 277.678 68.869 277.694 68.1211C277.96 68.0512 278.237 68.0318 278.511 68.0638C279.473 68.166 280.193 68.8228 280.118 69.531Z" fill="#0C0C0C"/>
<path d="M261.485 116.841C261.924 122.004 264.062 154.099 264.485 160.461L320.402 160.58C320.731 154.843 324.532 129.76 325.779 118.542C326.97 107.838 329.307 102.479 327.593 99.3139C324.794 94.1418 317.147 91.1532 311.931 90.4469C308.747 90.016 303.957 89.707 303.957 89.707C303.957 89.707 303.552 97.9102 293.883 98.3669C280.72 98.9878 281.599 89.707 281.533 89.707C279.401 89.707 267.219 91.0566 264.239 92.8232C256.12 97.6309 260.551 105.898 261.485 116.841Z" fill="#001B72"/>
<path d="M225.189 120.448L230.579 146.645C230.689 147.177 230.977 147.656 231.397 148.001C231.816 148.346 232.341 148.536 232.884 148.541L269.998 148.857C270.352 148.86 270.703 148.784 271.024 148.634C271.344 148.484 271.628 148.264 271.852 147.991C272.077 147.717 272.238 147.397 272.323 147.053C272.408 146.709 272.415 146.351 272.344 146.004L266.954 119.807C266.845 119.275 266.556 118.797 266.137 118.452C265.717 118.107 265.192 117.916 264.649 117.912L227.535 117.595C227.181 117.592 226.831 117.668 226.51 117.818C226.189 117.968 225.906 118.188 225.681 118.461C225.456 118.735 225.295 119.055 225.21 119.399C225.125 119.743 225.118 120.101 225.189 120.448Z" fill="#292A2E"/>
<path d="M259.797 139.056C259.777 139.401 259.883 139.742 260.094 140.015C260.305 140.288 260.608 140.476 260.947 140.543L262.09 140.795C262.069 140.802 262.051 140.814 262.036 140.829C262.021 140.845 262.01 140.864 262.004 140.884C262.002 140.909 262.007 140.933 262.02 140.954C261.745 141.031 261.501 141.192 261.322 141.414C261.143 141.636 261.038 141.909 261.021 142.193C261.019 142.525 261.129 142.848 261.334 143.109C261.538 143.371 261.825 143.556 262.148 143.634L271.795 145.777C272.289 145.888 272.793 145.943 273.298 145.942C274.424 145.942 275.533 145.668 276.53 145.144C277.527 144.62 278.381 143.861 279.019 142.933C279.695 141.951 279.962 140.744 279.762 139.569C279.563 138.393 278.912 137.342 277.95 136.639L269.743 130.638C269.562 130.506 269.352 130.42 269.131 130.386L269.886 134.054L269.685 134.008L269.642 134L263.348 132.72C262.647 132.565 261.687 132.819 261.563 133.619C261.496 133.924 261.535 134.243 261.673 134.523C261.81 134.804 262.039 135.03 262.321 135.164C262.317 135.168 262.309 135.172 262.309 135.179C262.309 135.187 262.313 135.191 262.313 135.199L261.225 134.959C261.026 134.915 260.82 134.915 260.621 134.96C260.422 135.006 260.236 135.094 260.076 135.22C259.916 135.346 259.785 135.506 259.694 135.688C259.603 135.87 259.553 136.071 259.549 136.274C259.549 136.6 259.662 136.915 259.868 137.167C260.074 137.419 260.361 137.592 260.68 137.657L261.148 137.761C261.152 137.777 261.148 137.792 261.156 137.804C260.815 137.807 260.486 137.936 260.235 138.168C259.983 138.399 259.827 138.716 259.797 139.056Z" fill="#F1926D"/>
<g opacity="0.25">
<path d="M268.579 136.47C268.572 136.502 268.552 136.531 268.524 136.549C268.496 136.567 268.462 136.573 268.43 136.566L262.408 135.331C262.391 135.328 262.375 135.322 262.361 135.313C262.347 135.303 262.334 135.291 262.325 135.277C262.315 135.263 262.309 135.247 262.305 135.231C262.302 135.214 262.302 135.197 262.305 135.18C262.309 135.164 262.315 135.148 262.325 135.134C262.335 135.12 262.347 135.108 262.361 135.099C262.376 135.09 262.392 135.083 262.408 135.08C262.425 135.078 262.442 135.078 262.459 135.082L268.481 136.317C268.497 136.32 268.513 136.327 268.527 136.336C268.54 136.346 268.552 136.358 268.562 136.372C268.571 136.386 268.577 136.401 268.58 136.418C268.583 136.434 268.583 136.451 268.58 136.467L268.579 136.47Z" fill="#0C0C0C"/>
</g>
<g opacity="0.25">
<path d="M268.109 139.141C268.101 139.173 268.081 139.201 268.053 139.219C268.025 139.237 267.992 139.244 267.959 139.237L261.238 137.859C261.222 137.855 261.206 137.849 261.193 137.84C261.179 137.83 261.167 137.818 261.158 137.804C261.149 137.79 261.142 137.775 261.139 137.758C261.136 137.742 261.136 137.725 261.139 137.709C261.147 137.676 261.167 137.648 261.195 137.63C261.223 137.611 261.257 137.604 261.29 137.61L268.01 138.988C268.043 138.995 268.072 139.015 268.091 139.043C268.109 139.071 268.116 139.105 268.109 139.138L268.109 139.141Z" fill="#0C0C0C"/>
</g>
<g opacity="0.25">
<path d="M267.614 142.037C267.607 142.069 267.587 142.097 267.559 142.115C267.531 142.133 267.497 142.14 267.465 142.133L262.104 141.034C262.071 141.027 262.043 141.007 262.024 140.979C262.006 140.951 262 140.917 262.007 140.884C262.013 140.851 262.033 140.822 262.06 140.804C262.088 140.785 262.122 140.778 262.155 140.785L267.516 141.884C267.549 141.891 267.578 141.91 267.596 141.938C267.615 141.967 267.621 142.001 267.615 142.034L267.614 142.037Z" fill="#0C0C0C"/>
</g>
<path d="M272.393 149.593L324.735 159.052C326.369 159.23 328.021 159.027 329.563 158.459C331.104 157.891 332.493 156.973 333.621 155.778C334.748 154.583 335.583 153.143 336.061 151.571C336.538 149.999 336.645 148.337 336.372 146.717L329.044 103.161C328.816 101.78 328.318 100.458 327.578 99.2708C326.839 98.0833 325.872 97.0534 324.733 96.2403C323.595 95.4271 322.307 94.8466 320.944 94.532C319.581 94.2175 318.169 94.175 316.789 94.4071C315.409 94.6392 314.089 95.1413 312.904 95.8846C311.718 96.6279 310.691 97.5978 309.881 98.7387C309.072 99.8796 308.495 101.169 308.185 102.533C307.874 103.897 307.836 105.31 308.072 106.689L313.07 136.673L274.694 131.854L272.393 149.593Z" fill="#001B72"/>
<path d="M324.736 159.246C324.784 159.246 324.83 159.227 324.865 159.194C324.901 159.162 324.923 159.117 324.927 159.069C324.931 159.021 324.917 158.973 324.888 158.935C324.859 158.897 324.816 158.871 324.769 158.862L272.607 149.436L274.86 132.07L313.042 136.866C313.072 136.87 313.102 136.867 313.131 136.856C313.16 136.846 313.186 136.83 313.207 136.807C313.227 136.786 313.243 136.76 313.252 136.731C313.261 136.702 313.263 136.672 313.258 136.643L310.084 117.48C310.08 117.455 310.071 117.431 310.058 117.409C310.044 117.387 310.027 117.368 310.006 117.354C309.985 117.339 309.962 117.328 309.937 117.323C309.912 117.317 309.886 117.316 309.861 117.321C309.811 117.329 309.765 117.358 309.735 117.399C309.706 117.441 309.694 117.493 309.702 117.544L312.834 136.45L274.718 131.663C274.668 131.657 274.616 131.672 274.576 131.703C274.536 131.734 274.509 131.78 274.502 131.831L272.201 149.57C272.194 149.619 272.207 149.669 272.237 149.709C272.266 149.749 272.31 149.777 272.358 149.785L324.701 159.243C324.713 159.245 324.724 159.246 324.736 159.246Z" fill="#0C0C0C"/>
<path d="M313.102 136.484L313.041 136.867L316.408 137.406L316.469 137.023L313.102 136.484Z" fill="#0C0C0C"/>
<path d="M359.769 299.047H0.230806C0.169593 299.047 0.110886 299.022 0.0676016 298.979C0.024317 298.936 0 298.877 0 298.816C0 298.755 0.024317 298.696 0.0676016 298.653C0.110886 298.609 0.169593 298.585 0.230806 298.585H359.768C359.829 298.585 359.888 298.609 359.931 298.653C359.974 298.696 359.999 298.755 359.999 298.816C359.999 298.877 359.974 298.936 359.931 298.979C359.888 299.022 359.829 299.047 359.768 299.047H359.769Z" fill="#292A2E"/>
<g opacity="0.65">
<path d="M359.769 299.047H0.230806C0.169593 299.047 0.110886 299.022 0.0676016 298.979C0.024317 298.936 0 298.877 0 298.816C0 298.755 0.024317 298.696 0.0676016 298.653C0.110886 298.609 0.169593 298.585 0.230806 298.585H359.768C359.829 298.585 359.888 298.609 359.931 298.653C359.974 298.696 359.999 298.755 359.999 298.816C359.999 298.877 359.974 298.936 359.931 298.979C359.888 299.022 359.829 299.047 359.768 299.047H359.769Z" fill="#292A2E"/>
</g>
<path d="M22.3409 299.242L21.6934 299.117L31.8146 198.541L32.4621 198.666L22.3409 299.242Z" fill="#494949"/>
<path d="M60.0284 299.242L59.3809 299.117L69.5017 198.541L70.1493 198.666L60.0284 299.242Z" fill="#494949"/>
<path d="M143.332 299.242L143.98 299.117L133.859 198.541L133.211 198.666L143.332 299.242Z" fill="#494949"/>
<path d="M105.646 299.242L106.294 299.117L96.173 198.541L95.5254 198.666L105.646 299.242Z" fill="#494949"/>
<path d="M92.224 154.277L91.5703 154.365L97.4829 198.648L98.1365 198.561L92.224 154.277Z" fill="#494949"/>
<path d="M24.3587 154.277L23.7051 154.364L29.6177 198.648L30.2713 198.56L24.3587 154.277Z" fill="#494949"/>
<path d="M98.0798 195.36H31.6999C29.9089 195.36 28.457 196.812 28.457 198.603V198.604C28.457 200.394 29.9089 201.846 31.6999 201.846H98.0798C99.8708 201.846 101.323 200.394 101.323 198.604V198.603C101.323 196.812 99.8708 195.36 98.0798 195.36Z" fill="#292A2E"/>
<path opacity="0.8" d="M98.0798 195.36H31.6999C29.9089 195.36 28.457 196.812 28.457 198.603V198.604C28.457 200.394 29.9089 201.846 31.6999 201.846H98.0798C99.8708 201.846 101.323 200.394 101.323 198.604V198.603C101.323 196.812 99.8708 195.36 98.0798 195.36Z" fill="white"/>
<path d="M98.0794 202.176H31.6995C31.2304 202.176 30.7658 202.083 30.3323 201.904C29.8989 201.724 29.5051 201.461 29.1733 201.129C28.8416 200.798 28.5784 200.404 28.3989 199.97C28.2194 199.537 28.127 199.072 28.127 198.603C28.127 198.134 28.2194 197.67 28.3989 197.236C28.5784 196.803 28.8416 196.409 29.1733 196.077C29.5051 195.745 29.8989 195.482 30.3323 195.303C30.7658 195.123 31.2304 195.031 31.6995 195.031H98.0794C99.0269 195.031 99.9356 195.407 100.606 196.077C101.276 196.747 101.652 197.656 101.652 198.603C101.652 199.551 101.276 200.46 100.606 201.129C99.9356 201.799 99.0269 202.176 98.0794 202.176ZM31.6995 195.691C31.317 195.691 30.9381 195.766 30.5847 195.912C30.2313 196.059 29.9101 196.273 29.6396 196.544C29.3691 196.814 29.1545 197.135 29.0081 197.489C28.8617 197.842 28.7864 198.221 28.7864 198.604C28.7864 198.986 28.8617 199.365 29.0081 199.718C29.1545 200.072 29.3691 200.393 29.6396 200.664C29.9101 200.934 30.2313 201.149 30.5847 201.295C30.9381 201.441 31.317 201.517 31.6995 201.517H98.0794C98.852 201.517 99.593 201.21 100.139 200.664C100.686 200.117 100.993 199.376 100.993 198.604C100.993 197.831 100.686 197.09 100.139 196.544C99.593 195.997 98.852 195.691 98.0794 195.691H31.6995Z" fill="#292A2E"/>
<path d="M134.511 195.36H68.1315C66.3405 195.36 64.8887 196.812 64.8887 198.603V198.604C64.8887 200.394 66.3405 201.846 68.1315 201.846H134.511C136.302 201.846 137.754 200.394 137.754 198.604V198.603C137.754 196.812 136.302 195.36 134.511 195.36Z" fill="white"/>
<path d="M134.511 202.176H68.1311C67.662 202.176 67.1974 202.083 66.764 201.904C66.3305 201.724 65.9367 201.461 65.605 201.129C65.2732 200.798 65.0101 200.404 64.8305 199.97C64.651 199.537 64.5586 199.072 64.5586 198.603C64.5586 198.134 64.651 197.67 64.8305 197.236C65.0101 196.803 65.2732 196.409 65.605 196.077C65.9367 195.745 66.3305 195.482 66.764 195.303C67.1974 195.123 67.662 195.031 68.1311 195.031H134.511C134.98 195.031 135.445 195.123 135.878 195.303C136.312 195.482 136.706 195.745 137.037 196.077C137.369 196.409 137.632 196.803 137.812 197.236C137.991 197.67 138.084 198.134 138.084 198.603C138.084 199.072 137.991 199.537 137.812 199.97C137.632 200.404 137.369 200.798 137.037 201.129C136.706 201.461 136.312 201.724 135.878 201.904C135.445 202.083 134.98 202.176 134.511 202.176ZM68.1311 195.691C67.7486 195.691 67.3698 195.766 67.0163 195.912C66.6629 196.059 66.3418 196.273 66.0713 196.544C65.8008 196.814 65.5862 197.135 65.4398 197.489C65.2934 197.842 65.218 198.221 65.218 198.604C65.218 198.986 65.2934 199.365 65.4398 199.718C65.5862 200.072 65.8008 200.393 66.0713 200.664C66.3418 200.934 66.6629 201.149 67.0163 201.295C67.3698 201.441 67.7486 201.517 68.1311 201.517H134.511C134.894 201.517 135.272 201.441 135.626 201.295C135.979 201.149 136.3 200.934 136.571 200.664C136.841 200.393 137.056 200.072 137.202 199.718C137.349 199.365 137.424 198.986 137.424 198.604C137.424 198.221 137.349 197.842 137.202 197.489C137.056 197.135 136.841 196.814 136.571 196.544C136.3 196.273 135.979 196.059 135.626 195.912C135.272 195.766 134.894 195.691 134.511 195.691H68.1311Z" fill="#292A2E"/>
<path d="M88.5873 154.32H24.2098C23.1572 154.32 22.1406 153.937 21.3498 153.243C20.5589 152.548 20.0478 151.589 19.9118 150.546L15.6535 117.843C15.5739 117.232 15.6256 116.61 15.8052 116.021C15.9848 115.431 16.2881 114.887 16.6948 114.423C17.1016 113.96 17.6025 113.589 18.1641 113.335C18.7256 113.081 19.335 112.949 19.9514 112.949H84.3289C85.3815 112.949 86.398 113.332 87.1889 114.027C87.9798 114.721 88.4909 115.68 88.6269 116.724L92.8849 149.426C92.9647 150.037 92.9131 150.658 92.7337 151.248C92.5542 151.838 92.251 152.383 91.8442 152.846C91.4374 153.309 90.9365 153.68 90.3749 153.935C89.8132 154.189 89.2038 154.32 88.5873 154.32Z" fill="#292A2E"/>
<path opacity="0.8" d="M88.5873 154.32H24.2098C23.1572 154.32 22.1406 153.937 21.3498 153.243C20.5589 152.548 20.0478 151.589 19.9118 150.546L15.6535 117.843C15.5739 117.232 15.6256 116.61 15.8052 116.021C15.9848 115.431 16.2881 114.887 16.6948 114.423C17.1016 113.96 17.6025 113.589 18.1641 113.335C18.7256 113.081 19.335 112.949 19.9514 112.949H84.3289C85.3815 112.949 86.398 113.332 87.1889 114.027C87.9798 114.721 88.4909 115.68 88.6269 116.724L92.8849 149.426C92.9647 150.037 92.9131 150.658 92.7337 151.248C92.5542 151.838 92.251 152.383 91.8442 152.846C91.4374 153.309 90.9365 153.68 90.3749 153.935C89.8132 154.189 89.2038 154.32 88.5873 154.32Z" fill="white"/>
<path d="M88.5868 154.65H24.2093C23.0773 154.647 21.9847 154.234 21.1342 153.487C20.2837 152.74 19.733 151.71 19.5843 150.588L15.3262 117.886C15.2405 117.229 15.2961 116.56 15.4893 115.926C15.6824 115.291 16.0088 114.705 16.4465 114.206C16.8842 113.708 17.4232 113.309 18.0275 113.035C18.6319 112.762 19.2876 112.62 19.9509 112.62H84.3284C85.4604 112.623 86.553 113.036 87.4035 113.783C88.254 114.53 88.8046 115.56 88.9532 116.682L93.2115 149.384C93.2972 150.042 93.2416 150.71 93.0484 151.345C92.8552 151.979 92.5288 152.565 92.0911 153.064C91.6534 153.562 91.1144 153.961 90.5101 154.235C89.9058 154.509 89.2501 154.65 88.5868 154.65ZM19.9509 113.28C19.3814 113.28 18.8184 113.401 18.2996 113.636C17.7807 113.871 17.318 114.214 16.9422 114.642C16.5663 115.07 16.2861 115.573 16.1202 116.118C15.9543 116.662 15.9065 117.236 15.9801 117.801L20.2384 150.503C20.366 151.467 20.8388 152.351 21.569 152.992C22.2993 153.634 23.2374 153.988 24.2093 153.991H88.5868C89.1563 153.991 89.7193 153.869 90.2382 153.634C90.757 153.399 91.2198 153.056 91.5956 152.628C91.9714 152.201 92.2516 151.697 92.4175 151.153C92.5834 150.608 92.6312 150.034 92.5577 149.469L88.3009 116.767C88.1733 115.804 87.7005 114.919 86.9703 114.278C86.2401 113.636 85.302 113.282 84.3301 113.28H19.9509Z" fill="#292A2E"/>
<path d="M92.2276 154.32H27.8501C26.7975 154.32 25.781 153.937 24.9902 153.243C24.1994 152.548 23.6883 151.589 23.5525 150.546L19.2941 117.843C19.2145 117.232 19.2662 116.61 19.4458 116.021C19.6254 115.431 19.9287 114.887 20.3355 114.423C20.7422 113.96 21.2431 113.589 21.8047 113.335C22.3663 113.081 22.9756 112.949 23.592 112.949H87.9695C89.022 112.949 90.0386 113.332 90.8294 114.027C91.6202 114.721 92.1313 115.68 92.2672 116.724L96.5255 149.426C96.6053 150.037 96.5537 150.658 96.3742 151.248C96.1946 151.838 95.8914 152.383 95.4846 152.846C95.0778 153.309 94.5769 153.68 94.0152 153.935C93.4536 154.189 92.8441 154.32 92.2276 154.32Z" fill="white"/>
<path d="M92.2274 154.65H27.8498C26.7179 154.647 25.6253 154.234 24.7749 153.487C23.9244 152.74 23.3738 151.71 23.2251 150.588L18.9668 117.886C18.8811 117.229 18.9368 116.56 19.13 115.926C19.3233 115.291 19.6497 114.705 20.0874 114.207C20.5251 113.708 21.0641 113.309 21.6684 113.035C22.2727 112.762 22.9284 112.62 23.5918 112.62H87.969C89.1009 112.623 90.1936 113.036 91.0441 113.783C91.8946 114.53 92.4453 115.56 92.594 116.682L96.8524 149.384C96.938 150.042 96.8823 150.71 96.689 151.345C96.4957 151.979 96.1693 152.565 95.7316 153.064C95.2939 153.562 94.7549 153.961 94.1506 154.235C93.5463 154.508 92.8907 154.65 92.2274 154.65ZM23.5918 113.28C23.0222 113.279 22.4591 113.401 21.9401 113.636C21.4212 113.871 20.9583 114.213 20.5823 114.641C20.2064 115.069 19.9261 115.573 19.7602 116.118C19.5942 116.662 19.5464 117.237 19.6199 117.801L23.878 150.503C24.0057 151.467 24.4787 152.351 25.2091 152.993C25.9395 153.634 26.8778 153.988 27.8498 153.991H92.2274C92.7969 153.991 93.3598 153.869 93.8787 153.634C94.3975 153.399 94.8603 153.056 95.2361 152.628C95.6119 152.201 95.8922 151.697 96.0581 151.153C96.224 150.608 96.2717 150.034 96.1982 149.469L91.9398 116.767C91.8123 115.804 91.3395 114.919 90.6092 114.278C89.879 113.636 88.9409 113.282 87.969 113.28H23.5918Z" fill="#292A2E"/>
<path d="M85.1306 62.4956C85.1306 62.4956 89.4087 59.2666 90.4688 51.834C91.2895 46.079 85.9809 49.8075 85.9809 49.8075C85.9809 49.8075 86.5316 45.6579 83.508 46.0698C80.4845 46.4816 78.793 50.8405 78.793 50.8405" fill="#0C0C0C"/>
<path d="M67.8825 46.5566C67.8825 46.5566 52.882 48.165 58.3047 68.4918L59.6318 68.5805L62.3263 68.7612" fill="#0C0C0C"/>
<path d="M82.6179 89.7175C82.5519 89.709 81.8203 101.851 67.7127 100.794C57.9463 100.062 54.4638 89.7004 54.2402 89.7004C55.293 89.4765 56.5945 89.1369 57.1115 89.0202C58.2386 88.7586 59.2594 88.1601 60.0381 87.3041C60.8168 86.4482 61.3163 85.3755 61.4704 84.2286C61.7559 82.5075 61.2726 73.7012 61.4206 71.96L76.4122 75.3086C76.2025 78.9867 74.7365 87.5137 79.8743 89.0228C80.7302 89.2708 81.6511 89.5006 82.6179 89.7175Z" fill="#F1926D"/>
<path opacity="0.52" d="M76.6216 85.5362C76.3868 84.7795 76.2356 83.9993 76.1709 83.2096C76.0063 81.4075 76.0395 79.5928 76.2698 77.7979C73.2228 77.3866 70.3522 76.129 67.9842 74.168C67.7056 75.196 66.1747 79.6879 66.5993 80.6652C67.3989 82.5119 71.164 85.5362 76.6216 85.5362Z" fill="#0C0C0C"/>
<path d="M73.5287 83.1329C67.6144 82.6027 60.5356 78.8657 60.4334 70.8376L60.3397 63.5935C60.2375 55.5651 64.3716 49.0033 71.9305 48.9073C79.4894 48.811 85.2223 55.2476 85.3245 63.2757L85.3651 66.4829C85.36 67.5842 85.2798 68.6838 85.1251 69.7742C84.7373 72.6593 84.1359 77.0456 82.178 80.0131C80.3302 82.8144 77.3067 83.4719 73.5287 83.1329Z" fill="#F1926D"/>
<path d="M76.2725 75.7945C77.4931 75.8498 78.7096 75.6174 79.8239 75.1162C79.8469 75.1064 79.8678 75.0921 79.8853 75.0742C79.9029 75.0563 79.9167 75.0352 79.926 75.0119C79.9354 74.9887 79.94 74.9638 79.9398 74.9388C79.9395 74.9137 79.9343 74.889 79.9245 74.866C79.9146 74.8429 79.9004 74.822 79.8825 74.8045C79.8646 74.787 79.8434 74.7732 79.8202 74.7638C79.7969 74.7545 79.7721 74.7498 79.747 74.7501C79.722 74.7504 79.6972 74.7556 79.6742 74.7654C77.2735 75.7875 75.0937 75.6392 73.3706 74.3321C73.3359 74.3046 73.2998 74.2788 73.2624 74.255C73.2191 74.2346 73.1697 74.2312 73.124 74.2456C73.0783 74.2599 73.0396 74.2909 73.0157 74.3324C72.9918 74.3739 72.9844 74.4229 72.9949 74.4696C73.0054 74.5164 73.0331 74.5574 73.0725 74.5847C73.0863 74.5936 73.1088 74.6111 73.1384 74.6348C74.0443 75.3249 75.1356 75.7287 76.2725 75.7945Z" fill="#0C0C0C"/>
<path d="M76.2149 77.6034C76.4354 77.6168 76.6567 77.6115 76.8763 77.5876C76.9256 77.5809 76.9703 77.5553 77.001 77.5162C77.0317 77.4771 77.0459 77.4275 77.0406 77.3781C77.0353 77.3287 77.011 77.2832 76.9727 77.2515C76.9345 77.2197 76.8853 77.2041 76.8358 77.2081C75.5149 77.3485 74.8841 76.7431 74.8574 76.7174C74.8214 76.6832 74.7734 76.6644 74.7237 76.6651C74.674 76.6657 74.6265 76.6856 74.5913 76.7207C74.5561 76.7558 74.536 76.8032 74.5352 76.8529C74.5344 76.9026 74.553 76.9506 74.5871 76.9868C75.0422 77.3741 75.6174 77.592 76.2149 77.6034Z" fill="#0C0C0C"/>
<path d="M82.8296 68.0268C83.3438 68.0268 83.7607 67.6099 83.7607 67.0957C83.7607 66.5814 83.3438 66.1646 82.8296 66.1646C82.3153 66.1646 81.8984 66.5814 81.8984 67.0957C81.8984 67.6099 82.3153 68.0268 82.8296 68.0268Z" fill="#0C0C0C"/>
<path d="M73.7319 67.4555C74.2462 67.4555 74.6631 67.0387 74.6631 66.5244C74.6631 66.0101 74.2462 65.5933 73.7319 65.5933C73.2177 65.5933 72.8008 66.0101 72.8008 66.5244C72.8008 67.0387 73.2177 67.4555 73.7319 67.4555Z" fill="#0C0C0C"/>
<path d="M60.9337 73.2771C58.6369 73.3064 56.7433 70.8724 56.7133 68.5756C56.6832 66.2787 58.5304 64.9878 60.8275 64.9585L62.0307 66.4828L62.9081 73.252L60.9337 73.2771Z" fill="#F1926D"/>
<path d="M63.2189 69.5859C63.2189 69.5859 63.9944 58.2259 67.4394 57.5246C69.7336 57.0574 75.297 60.3114 80.4502 59.3288C82.7046 58.9002 84.8448 59.4568 85.0624 60.5218C85.1488 60.9435 86.5531 54.8835 83.0228 50.2855C80.2119 46.6256 71.0136 45.5902 66.8287 46.7904C55.2409 50.1144 60.3543 65.4584 60.3543 65.4584L60.8709 69.3749L63.2189 69.5859Z" fill="#0C0C0C"/>
<path d="M77.6599 73.1138H77.6744C78.4146 73.1062 79.6557 73.0113 79.6507 72.4574C79.6458 71.9987 78.3398 67.0581 78.1907 66.4963C78.1779 66.4479 78.1464 66.4066 78.1032 66.3815C78.0599 66.3564 78.0084 66.3494 77.9601 66.3622C77.9117 66.3751 77.8704 66.4066 77.8453 66.4498C77.8202 66.4931 77.8132 66.5445 77.8261 66.5929C78.4064 68.7809 79.2702 72.1494 79.2735 72.462C79.202 72.5939 78.4374 72.7294 77.6711 72.7373C77.622 72.7373 77.5749 72.7564 77.5397 72.7905C77.5045 72.8247 77.484 72.8712 77.4825 72.9203C77.481 72.9693 77.4988 73.017 77.5319 73.0532C77.565 73.0894 77.6109 73.1113 77.6599 73.1142V73.1138Z" fill="#0C0C0C"/>
<path d="M80.1861 62.0466C80.9642 61.8328 81.7854 61.8328 82.5634 62.0466C82.9456 62.1496 83.3101 62.3092 83.6449 62.5201C83.9758 62.7269 84.2792 62.9746 84.5481 63.2574C84.5976 63.3078 84.6259 63.3753 84.6269 63.446C84.6279 63.5167 84.6017 63.585 84.5536 63.6368C84.5055 63.6887 84.4393 63.7199 84.3688 63.7242C84.2982 63.7284 84.2288 63.7053 84.1748 63.6596L84.1583 63.6451C83.9093 63.4148 83.6324 63.2166 83.334 63.0553C83.0412 62.895 82.7258 62.7799 82.3986 62.714C81.7544 62.5791 81.086 62.6164 80.4608 62.8222L80.4348 62.8314C80.3837 62.8494 80.3296 62.8573 80.2755 62.8544C80.2214 62.8515 80.1684 62.838 80.1195 62.8147C80.0706 62.7913 80.0268 62.7586 79.9906 62.7183C79.9543 62.6781 79.9264 62.631 79.9084 62.58C79.8903 62.5289 79.8825 62.4748 79.8853 62.4207C79.8882 62.3666 79.9017 62.3136 79.925 62.2647C79.9484 62.2158 79.9811 62.172 80.0214 62.1358C80.0617 62.0996 80.1087 62.0716 80.1598 62.0536C80.1687 62.0516 80.1779 62.0489 80.1861 62.0466Z" fill="#0C0C0C"/>
<path d="M74.6779 62.5154C74.0858 62.2278 73.4283 62.1016 72.7718 62.1498C72.4387 62.1714 72.1109 62.2435 71.7994 62.3634C71.4825 62.4838 71.182 62.6434 70.9049 62.8386L70.8871 62.8501C70.8276 62.8903 70.7548 62.9057 70.6842 62.8928C70.6136 62.88 70.5508 62.84 70.5094 62.7814C70.4679 62.7228 70.4511 62.6503 70.4624 62.5795C70.4738 62.5086 70.5125 62.445 70.5702 62.4023C70.8743 62.1578 71.2081 61.9526 71.5637 61.7917C71.9236 61.6273 72.3062 61.5177 72.6986 61.4666C73.4981 61.358 74.3121 61.4671 75.0548 61.7825C75.1553 61.8262 75.2344 61.9081 75.2746 62.0101C75.3148 62.1121 75.3128 62.2259 75.2691 62.3265C75.2254 62.4271 75.1435 62.5061 75.0415 62.5463C74.9394 62.5865 74.8256 62.5846 74.725 62.5408C74.7171 62.5375 74.7096 62.5339 74.702 62.5299L74.6779 62.5154Z" fill="#0C0C0C"/>
<path d="M79.0797 54.2263C80.78 53.8711 81.7346 51.5543 81.2117 49.0516C80.6888 46.549 78.8865 44.8081 77.1862 45.1634C75.4858 45.5187 74.5313 47.8354 75.0542 50.3381C75.5771 52.8408 77.3793 54.5816 79.0797 54.2263Z" fill="#0C0C0C"/>
<path d="M173.913 281.819C173.913 281.819 175.681 290.984 184.261 291.494C192.841 292.005 190.981 298.84 190.981 298.84H158.191V282.458L173.913 281.819Z" fill="#001B72"/>
<path d="M111.534 276.033C111.534 276.033 109.074 285.037 116.549 289.283C124.024 293.528 119.336 298.84 119.336 298.84L89.9141 284.365L97.1452 269.666L111.534 276.033Z" fill="#001B72"/>
<path d="M93.3108 273.49L118.122 195.217H73.1479C64.1134 195.217 60.3477 187.556 60.3477 178.522C60.3477 169.489 69.2288 161.569 78.2625 161.569H138.961C144.471 161.569 150.65 164.939 153.674 169.545C156.698 174.152 155.881 181.289 153.69 186.345L113.958 282.844" fill="#262626"/>
<path opacity="0.8" d="M93.3108 273.49L118.122 195.217H73.1479C64.1134 195.217 60.3477 187.556 60.3477 178.522C60.3477 169.489 69.2288 161.569 78.2625 161.569H138.961C144.471 161.569 150.65 164.939 153.674 169.545C156.698 174.152 155.881 181.289 153.69 186.345L113.958 282.844" fill="#0A0A0A"/>
<path d="M156.307 290.33L114.821 195.217L60.3482 195.213C47.5839 194.213 41.7386 187.218 41.9242 178.186C42.1075 169.269 46.6228 160.461 55.5002 160.461H128.919C135.487 160.596 140.655 167.854 143.091 173.955L177.58 284.507" fill="#262626"/>
<path d="M38.208 160.57C38.208 160.57 35.7888 176.346 39.6235 185.117C44.4107 196.067 62.3569 195.214 62.3569 195.214L61.3456 160.461L38.208 160.57Z" fill="#262626"/>
<path d="M144.651 160.26L106.173 152.286C104.569 151.954 103.076 151.223 101.83 150.16C100.584 149.098 99.6261 147.738 99.0451 146.207L83.9108 106.326C83.4571 105.13 83.2434 103.857 83.2817 102.579C83.3201 101.301 83.6098 100.043 84.1343 98.8772C84.6588 97.7111 85.4079 96.6597 86.3388 95.7831C87.2696 94.9065 88.364 94.2218 89.5594 93.7682C90.7549 93.3145 92.028 93.1008 93.306 93.1391C94.5841 93.1775 95.8421 93.4672 97.0081 93.9917C98.1742 94.5163 99.2256 95.2653 100.102 96.1962C100.979 97.127 101.663 98.2214 102.117 99.4169L115.356 134.302L148.604 141.191C148.604 141.191 145.319 160.398 144.651 160.26Z" fill="#001B72"/>
<path d="M100.146 116.453C99.7016 121.674 96.5521 154.243 96.1235 160.673H38.2326C37.8999 154.873 36.8201 130.251 35.5589 118.91C34.3547 108.088 33.9182 101.912 35.305 98.549C37.7509 92.6176 43.8715 90.4833 49.1435 89.7695C52.3629 89.3336 57.2049 89.021 57.2049 89.021C57.2049 89.021 57.6147 97.3145 67.3904 97.7761C80.698 98.4026 79.8094 89.021 79.875 89.021C82.0311 89.021 93.7659 90.5888 96.7001 92.5016C100.844 95.2027 102.069 98.884 102.118 102.266C102.174 106.16 100.651 110.532 100.146 116.453Z" fill="#001B72"/>
<path d="M97.8702 143.067C97.8655 143.067 97.8609 143.067 97.8563 143.067C97.8128 143.063 97.7724 143.042 97.7442 143.009C97.7159 142.976 97.7021 142.932 97.7056 142.889L99.2085 124.835C99.2098 124.813 99.2154 124.792 99.2252 124.772C99.2349 124.753 99.2486 124.736 99.2652 124.721C99.2819 124.707 99.3012 124.697 99.3221 124.691C99.3429 124.684 99.3649 124.682 99.3866 124.685C99.43 124.688 99.4703 124.709 99.4985 124.742C99.5266 124.776 99.5405 124.819 99.5369 124.862L98.0344 142.916C98.0307 142.957 98.0119 142.996 97.9815 143.023C97.9511 143.051 97.9114 143.067 97.8702 143.067Z" fill="#0C0C0C"/>
<path d="M125.443 153.901L138.146 114.854C138.369 114.168 138.803 113.57 139.387 113.146C139.971 112.722 140.674 112.494 141.396 112.494H193.146C193.686 112.494 194.218 112.621 194.698 112.866C195.179 113.111 195.595 113.467 195.912 113.903C196.229 114.34 196.438 114.845 196.522 115.378C196.606 115.91 196.563 116.456 196.397 116.969L183.694 156.016C183.471 156.702 183.036 157.3 182.452 157.724C181.868 158.148 181.165 158.376 180.444 158.376H128.692C128.153 158.376 127.621 158.248 127.141 158.003C126.66 157.758 126.244 157.403 125.928 156.966C125.611 156.53 125.402 156.024 125.317 155.492C125.233 154.959 125.276 154.414 125.443 153.901Z" fill="#292A2E"/>
<path d="M125.443 153.901L138.146 114.854C138.369 114.168 138.803 113.57 139.387 113.146C139.971 112.722 140.674 112.494 141.396 112.494H193.146C193.686 112.494 194.218 112.621 194.698 112.866C195.179 113.111 195.595 113.467 195.912 113.903C196.229 114.34 196.438 114.845 196.522 115.378C196.606 115.91 196.563 116.456 196.397 116.969L183.694 156.016C183.471 156.702 183.036 157.3 182.452 157.724C181.868 158.148 181.165 158.376 180.444 158.376H128.692C128.153 158.376 127.621 158.248 127.141 158.003C126.66 157.758 126.244 157.403 125.928 156.966C125.611 156.53 125.402 156.024 125.317 155.492C125.233 154.959 125.276 154.414 125.443 153.901Z" fill="#292A2E"/>
<path d="M135.805 155.21H101.162C100.299 155.21 99.5996 155.91 99.5996 156.773V156.813C99.5996 157.676 100.299 158.376 101.162 158.376H135.805C136.668 158.376 137.367 157.676 137.367 156.813V156.773C137.367 155.91 136.668 155.21 135.805 155.21Z" fill="#292A2E"/>
<path d="M135.805 155.21H101.162C100.299 155.21 99.5996 155.91 99.5996 156.773V156.813C99.5996 157.676 100.299 158.376 101.162 158.376H135.805C136.668 158.376 137.367 157.676 137.367 156.813V156.773C137.367 155.91 136.668 155.21 135.805 155.21Z" fill="#292A2E"/>
<path d="M166.196 135.153C166.717 135.153 167.06 135.031 167.356 134.507L170.11 129.594H164.049L160.938 135.153H166.196ZM166.196 135.777H160.938L164.049 141.336H170.11L167.356 136.423C167.06 135.898 166.717 135.777 166.196 135.777ZM154.893 129.594V141.336H160.105V129.594H154.893Z" fill="#EDEDEB"/>
<path d="M122.547 144.754L113.901 141.724L115.142 141.638C115.543 141.603 115.914 141.416 116.182 141.117C116.45 140.818 116.595 140.428 116.586 140.027C116.575 139.82 116.521 139.617 116.429 139.431C116.337 139.246 116.207 139.081 116.049 138.947C115.891 138.813 115.707 138.712 115.509 138.651C115.31 138.591 115.102 138.571 114.895 138.594L99.5996 140.219L99.9953 145.134C100.119 146.661 100.695 148.116 101.651 149.313C102.607 150.51 103.898 151.394 105.36 151.852L111.984 153.916C112.326 154.03 112.697 154.022 113.034 153.893C113.371 153.765 113.653 153.525 113.833 153.212C113.99 152.927 114.051 152.599 114.008 152.276C113.965 151.953 113.819 151.653 113.593 151.418C113.608 151.408 113.62 151.395 113.63 151.379C113.639 151.364 113.645 151.347 113.648 151.329C113.65 151.311 113.649 151.293 113.644 151.276C113.639 151.259 113.631 151.243 113.62 151.229L114.84 151.611C115.221 151.739 115.636 151.718 116.001 151.551C116.367 151.385 116.656 151.086 116.809 150.715C116.935 150.378 116.937 150.008 116.817 149.669C116.696 149.331 116.46 149.046 116.15 148.864C116.164 148.856 116.177 148.846 116.187 148.834L116.689 148.991C117.031 149.105 117.402 149.097 117.739 148.969C118.076 148.841 118.359 148.6 118.539 148.288C118.729 147.941 118.777 147.535 118.674 147.153C118.57 146.772 118.323 146.445 117.984 146.242C117.987 146.232 117.989 146.221 117.989 146.211L121.59 147.473C121.95 147.599 122.346 147.577 122.69 147.412C123.035 147.246 123.299 146.951 123.425 146.59C123.552 146.23 123.53 145.834 123.364 145.489C123.198 145.145 122.903 144.881 122.542 144.754H122.547Z" fill="#F1926D"/>
<path opacity="0.2" d="M117.853 146.351C117.836 146.351 117.819 146.349 117.803 146.343L114.321 145.078C114.285 145.065 114.256 145.038 114.24 145.004C114.224 144.969 114.222 144.93 114.235 144.894C114.248 144.858 114.275 144.829 114.31 144.813C114.344 144.797 114.384 144.795 114.42 144.809L117.902 146.075C117.934 146.086 117.96 146.109 117.977 146.138C117.994 146.167 118 146.201 117.994 146.234C117.989 146.268 117.971 146.298 117.945 146.319C117.92 146.341 117.887 146.353 117.853 146.353L117.853 146.351Z" fill="#0A0A0A"/>
<path opacity="0.2" d="M116.092 148.884C116.075 148.884 116.059 148.881 116.044 148.876L113.299 147.902C113.281 147.895 113.265 147.886 113.251 147.873C113.237 147.86 113.225 147.845 113.217 147.828C113.209 147.811 113.204 147.793 113.203 147.774C113.202 147.755 113.205 147.736 113.211 147.719C113.218 147.701 113.227 147.684 113.24 147.67C113.253 147.656 113.268 147.645 113.285 147.637C113.302 147.629 113.32 147.624 113.339 147.623C113.358 147.622 113.377 147.625 113.395 147.631L116.14 148.605C116.172 148.617 116.199 148.639 116.216 148.668C116.233 148.697 116.239 148.732 116.233 148.765C116.227 148.798 116.21 148.829 116.184 148.85C116.158 148.872 116.126 148.884 116.092 148.884Z" fill="#0A0A0A"/>
<path opacity="0.2" d="M113.506 151.453C113.488 151.453 113.471 151.45 113.454 151.444L112.169 150.953C112.15 150.947 112.133 150.937 112.119 150.925C112.104 150.912 112.092 150.896 112.084 150.879C112.076 150.861 112.071 150.842 112.07 150.823C112.07 150.803 112.073 150.784 112.08 150.766C112.087 150.748 112.097 150.732 112.111 150.718C112.124 150.704 112.14 150.693 112.158 150.685C112.176 150.678 112.195 150.674 112.214 150.674C112.234 150.674 112.253 150.678 112.271 150.686L113.557 151.176C113.588 151.188 113.614 151.211 113.63 151.24C113.647 151.269 113.652 151.303 113.646 151.336C113.64 151.369 113.623 151.398 113.597 151.42C113.571 151.441 113.539 151.453 113.506 151.453H113.506Z" fill="#0A0A0A"/>
<path d="M106.369 137.31L70.0995 137.286L56.3787 103.814L35.9102 112.42L53.0297 152.145L53.1972 152.541C54.0348 154.472 55.4455 156.098 57.2384 157.201C59.0313 158.303 61.1198 158.828 63.2208 158.704L106.918 156.122L106.369 137.31Z" fill="#001B72"/>
<path d="M62.6193 158.885C60.586 158.882 58.5978 158.286 56.8976 157.171C55.1974 156.056 53.859 154.469 53.0458 152.605L52.878 152.21L38.291 118.361L38.5937 118.23L53.3488 152.476C54.1769 154.372 55.5659 155.97 57.329 157.054C59.0921 158.138 61.1449 158.656 63.2112 158.539L106.749 155.967L106.209 137.475L69.9896 137.451L59.4385 111.715L59.7435 111.59L70.2102 137.121L106.529 137.145L107.087 156.277L106.927 156.287L63.23 158.868C63.026 158.88 62.8224 158.885 62.6193 158.885Z" fill="#0C0C0C"/>
<path d="M280.594 161.536L279.938 161.602L293.838 299.212L294.494 299.146L280.594 161.536Z" fill="#494949"/>
<path d="M22.277 161.538L8.36719 299.146L9.02329 299.213L22.9332 161.604L22.277 161.538Z" fill="#494949"/>
<path d="M79.7478 161.538L65.8379 299.146L66.494 299.213L80.4039 161.604L79.7478 161.538Z" fill="#494949"/>
<path d="M338.064 161.536L337.408 161.602L351.308 299.212L351.965 299.146L338.064 161.536Z" fill="#494949"/>
<path d="M350.599 158.868H10.6529C9.16079 158.868 7.95117 160.078 7.95117 161.57C7.95117 163.062 9.16079 164.271 10.6529 164.271H350.599C352.091 164.271 353.301 163.062 353.301 161.57C353.301 160.078 352.091 158.868 350.599 158.868Z" fill="#292A2E"/>
<path opacity="0.8" d="M350.599 158.868H10.6529C9.16079 158.868 7.95117 160.078 7.95117 161.57C7.95117 163.062 9.16079 164.271 10.6529 164.271H350.599C352.091 164.271 353.301 163.062 353.301 161.57C353.301 160.078 352.091 158.868 350.599 158.868Z" fill="white"/>
<path d="M350.6 164.601H10.6549C10.2542 164.605 9.85656 164.53 9.48512 164.379C9.11368 164.229 8.77576 164.006 8.4909 163.724C8.20605 163.442 7.97992 163.107 7.82559 162.737C7.67126 162.367 7.5918 161.97 7.5918 161.57C7.5918 161.169 7.67126 160.772 7.82559 160.402C7.97992 160.032 8.20605 159.697 8.4909 159.415C8.77576 159.133 9.11368 158.91 9.48512 158.76C9.85656 158.609 10.2542 158.534 10.6549 158.538H350.6C351.398 158.547 352.161 158.87 352.723 159.437C353.285 160.005 353.6 160.771 353.6 161.57C353.6 162.368 353.285 163.134 352.723 163.702C352.161 164.27 351.398 164.593 350.6 164.601ZM10.6549 159.198C10.3411 159.194 10.0296 159.253 9.7386 159.37C9.44759 159.488 9.18279 159.662 8.95956 159.882C8.73633 160.103 8.5591 160.366 8.43814 160.655C8.31718 160.945 8.25489 161.256 8.25489 161.57C8.25489 161.883 8.31718 162.194 8.43814 162.484C8.5591 162.773 8.73633 163.036 8.95956 163.257C9.18279 163.477 9.44759 163.651 9.7386 163.769C10.0296 163.887 10.3411 163.945 10.6549 163.941H350.6C351.224 163.934 351.82 163.681 352.259 163.237C352.698 162.793 352.944 162.194 352.944 161.57C352.944 160.945 352.698 160.346 352.259 159.902C351.82 159.458 351.224 159.205 350.6 159.198H10.6549Z" fill="#292A2E"/>
<path d="M350.6 158.868H70.3209C68.8288 158.868 67.6191 160.077 67.6191 161.569C67.6191 163.061 68.8288 164.271 70.3209 164.271H350.6C352.092 164.271 353.301 163.061 353.301 161.569C353.301 160.077 352.092 158.868 350.6 158.868Z" fill="white"/>
<path d="M350.6 164.601H70.3202C69.5217 164.592 68.7587 164.269 68.1971 163.702C67.6354 163.134 67.3203 162.368 67.3203 161.569C67.3203 160.771 67.6354 160.005 68.1971 159.437C68.7587 158.869 69.5217 158.546 70.3202 158.538H350.6C351.398 158.546 352.161 158.869 352.723 159.437C353.284 160.005 353.6 160.771 353.6 161.569C353.6 162.368 353.284 163.134 352.723 163.702C352.161 164.269 351.398 164.592 350.6 164.601ZM70.3202 159.198C69.696 159.205 69.0998 159.458 68.661 159.902C68.2222 160.346 67.9761 160.945 67.9761 161.569C67.9761 162.194 68.2222 162.793 68.661 163.237C69.0998 163.681 69.696 163.934 70.3202 163.941H350.6C351.224 163.934 351.82 163.681 352.259 163.237C352.698 162.793 352.944 162.194 352.944 161.569C352.944 160.945 352.698 160.346 352.259 159.902C351.82 159.458 351.224 159.205 350.6 159.198H70.3202Z" fill="#292A2E"/>
</svg>
