<svg width="360" height="297" viewBox="0 0 360 297" fill="none" xmlns="http://www.w3.org/2000/svg">
<g clip-path="url(#clip0_910_14685)">
<path d="M335.164 287.068C349.312 287.068 360.6 274.192 359.975 258.77C359.158 238.605 349.708 210.133 312.46 181.681C267.036 146.982 287.523 47.0755 191.011 53.9708C94.4984 60.866 103.701 134.693 44.5205 168.533C6.85137 190.074 0.00260964 232.22 0 260.012C0 274.962 11.1333 287.068 24.8349 287.068H335.164Z" fill="#EDEDEB"/>
<path d="M50.627 259.002C46.5695 257.837 43.5152 254.207 42.3017 250.164C41.0883 246.121 41.5162 241.735 42.7015 237.683C43.6687 234.377 45.1342 231.182 45.4954 227.756C46.6959 216.349 35.6346 204.695 40.8414 194.475C42.5246 191.17 45.7825 188.587 46.3644 184.924C46.8451 181.894 45.3524 178.95 44.6107 175.974C43.5893 171.877 44.1071 167.23 46.7647 163.949C49.4224 160.669 54.4439 159.236 58.1057 161.337C62.895 164.084 63.3104 170.867 62.0792 176.249C60.848 181.631 58.5671 187.169 60.0713 192.481C61.5045 197.544 66.1695 201.358 67.0062 206.553C67.7014 210.873 65.5928 215.084 64.6664 219.36C63.2107 226.08 64.6925 233.046 64.7562 239.921C64.8198 246.797 62.8803 254.507 50.627 259.002Z" fill="#8DDBE0"/>
<path d="M44.3677 259.655C41.9534 258.887 39.7869 257.491 38.0906 255.61C36.3942 253.729 35.2292 251.43 34.7151 248.949C33.9207 244.858 34.8957 240.262 32.6566 236.747C29.6221 231.984 26.5109 231.446 22.7332 227.248C16.9252 220.793 16.7211 217.934 17.1042 205.979C17.266 200.923 10.2852 195.218 12.744 190.36C14.91 186.081 21.4941 186.059 25.228 189.07C28.9619 192.081 30.6039 196.909 32.2287 201.422C33.8534 205.934 35.9093 210.708 40.0325 213.158C42.506 214.626 45.744 215.305 47.1099 217.837C48.2059 219.872 47.6548 222.354 47.2143 224.622C46.1052 230.325 46.3834 237.282 51.1695 240.576C53.3292 242.062 56.157 242.574 57.9321 244.503C59.6873 246.41 59.9702 249.236 59.8517 251.825C59.6185 256.803 58.2468 261.661 55.8423 266.025" fill="#DADADA"/>
<path d="M50.1394 263.627C48.0287 261.112 46.7566 258 46.501 254.727C46.2453 251.454 47.0189 248.182 48.7135 245.37C51.6436 240.728 57.104 237.53 58.2507 232.161C59.2721 227.379 56.4396 222.438 57.2878 217.622C58.2095 212.386 63.0472 208.95 66.8912 205.275C67.8911 204.382 68.7513 203.344 69.443 202.195C71.133 199.153 70.6617 195.422 71.2353 191.99C72.3344 185.417 77.7495 179.587 84.3247 178.5C90.091 177.547 94.2221 180.86 94.2221 186.961C94.2221 194.188 88.8076 197.285 86.0455 200.557C82.0785 205.294 79.9732 211.314 80.1232 217.491C80.3179 224.39 83.2548 231.736 80.1169 237.884C77.8137 242.395 72.894 244.8 69.0285 248.074C66.1078 250.576 63.7302 253.65 62.042 257.106C60.3538 260.561 59.3907 264.326 59.2121 268.168" fill="white"/>
<path d="M68.7378 252.295H33.9648V287.068H68.7378V252.295Z" fill="#DD2638"/>
<g opacity="0.42">
<path d="M68.7378 259.076H33.9648V265.863H68.7378V259.076Z" fill="white"/>
</g>
<path d="M271.191 0.275391H88.8086V236.871H271.191V0.275391Z" fill="#DADADA"/>
<path d="M256.623 68.9961H222.145V81.8293H256.623V68.9961Z" fill="white"/>
<path d="M256.623 90.231H222.145V103.064H256.623V90.231Z" fill="white"/>
<path d="M256.623 111.465H222.145V124.299H256.623V111.465Z" fill="white"/>
<path d="M256.623 132.7H222.145V145.533H256.623V132.7Z" fill="white"/>
<path d="M256.623 153.934H222.145V166.767H256.623V153.934Z" fill="white"/>
<path d="M256.623 175.169H222.145V188.002H256.623V175.169Z" fill="white"/>
<path d="M215.175 68.9961H103.375V81.8293H215.175V68.9961Z" fill="white"/>
<path d="M215.175 90.231H103.375V103.064H215.175V90.231Z" fill="white"/>
<path d="M215.175 111.465H103.375V124.299H215.175V111.465Z" fill="white"/>
<path d="M215.175 132.7H103.375V145.533H215.175V132.7Z" fill="white"/>
<path d="M215.175 153.934H103.375V166.767H215.175V153.934Z" fill="white"/>
<path d="M215.175 175.169H103.375V188.002H215.175V175.169Z" fill="white"/>
<path d="M273.689 283.872C272.697 283.706 261.51 281.796 261.51 281.796L263.355 270.992C263.355 270.992 274.512 272.898 275.501 273.063L273.689 283.872Z" fill="#E98862"/>
<path d="M255.127 294.236C255.08 294.527 255.093 294.825 255.166 295.11C255.239 295.396 255.37 295.663 255.551 295.896C255.732 296.129 255.959 296.322 256.217 296.463C256.476 296.604 256.761 296.69 257.055 296.716C257.462 296.752 257.871 296.671 258.233 296.482C258.596 296.294 258.897 296.005 259.101 295.652L265.422 283.776C265.544 283.545 265.614 283.292 265.628 283.032C265.643 282.772 265.601 282.512 265.505 282.269C264.595 280.339 264.328 278.167 264.743 276.073C265.134 274.453 265.972 272.976 267.163 271.81C267.278 271.71 267.362 271.578 267.406 271.431C267.449 271.284 267.45 271.128 267.408 270.981C267.366 270.834 267.283 270.701 267.169 270.6C267.054 270.498 266.913 270.431 266.762 270.406L260.609 269.375C260.428 269.345 260.242 269.351 260.063 269.392C259.884 269.434 259.714 269.51 259.565 269.617C259.415 269.725 259.288 269.86 259.191 270.017C259.094 270.173 259.029 270.347 258.999 270.529L255.127 294.236Z" fill="#9FA6AA"/>
<path d="M308.323 254.651C312.965 254.844 317.694 254.98 322.422 255.097L329.529 255.254L336.627 255.381L337.334 255.394C340.266 255.449 343.068 256.614 345.175 258.653C347.282 260.692 348.538 263.455 348.688 266.383C348.839 269.312 347.874 272.188 345.987 274.433C344.101 276.678 341.434 278.124 338.523 278.48L268.376 286.998L265.518 266.267L335.352 255.487L337.247 278.585L330.04 279.051L322.837 279.487C318.028 279.765 313.217 280.025 308.319 280.226L308.323 254.651Z" fill="#262626"/>
<path d="M326.018 279.333C316.334 277.923 315.37 277.665 315.051 277.579L317.897 266.995C317.865 266.987 317.824 266.975 317.773 266.964C318.566 267.138 323.489 267.889 327.594 268.486L326.018 279.333Z" fill="#E98862"/>
<path d="M338.114 288.754C338.216 289.031 338.259 289.325 338.242 289.62C338.225 289.914 338.147 290.201 338.013 290.464C337.88 290.727 337.694 290.96 337.466 291.147C337.239 291.335 336.975 291.474 336.692 291.555C336.299 291.667 335.883 291.665 335.491 291.549C335.099 291.433 334.749 291.207 334.482 290.898L326.021 280.438C325.858 280.235 325.741 279.999 325.678 279.747C325.615 279.495 325.607 279.232 325.655 278.976C326.183 276.908 326.033 274.725 325.227 272.748C324.536 271.232 323.433 269.941 322.044 269.022C321.911 268.945 321.804 268.832 321.733 268.696C321.663 268.56 321.632 268.407 321.646 268.254C321.659 268.102 321.715 267.956 321.808 267.834C321.901 267.713 322.027 267.62 322.17 267.567L328.016 265.387C328.188 265.323 328.372 265.293 328.556 265.3C328.74 265.307 328.92 265.35 329.087 265.427C329.255 265.504 329.405 265.613 329.53 265.748C329.655 265.883 329.752 266.041 329.816 266.214L338.114 288.754Z" fill="#9FA6AA"/>
<path d="M292.749 278.347C289.81 278.097 286.872 277.916 283.934 277.746C280.996 277.59 278.058 277.433 275.122 277.329L270.717 277.159L266.312 277.032C263.376 276.934 260.441 276.894 257.505 276.838L258.523 255.747C264.018 256.516 269.521 257.222 275.022 257.946C280.523 258.669 286.03 259.335 291.536 260.012L299.8 260.986L308.069 261.913C313.586 262.506 319.102 263.095 324.631 263.58L322.204 284.369C316.713 283.568 311.209 282.87 305.705 282.177L297.444 281.174L289.178 280.219C283.663 279.61 278.15 278.992 272.632 278.428C267.115 277.863 261.595 277.285 256.071 276.768C253.421 276.52 250.962 275.28 249.187 273.297C247.412 271.313 246.452 268.733 246.498 266.072C246.544 263.41 247.593 260.865 249.436 258.944C251.279 257.024 253.779 255.87 256.436 255.714L257.089 255.677C260.02 255.505 262.952 255.349 265.882 255.135L270.278 254.834L274.673 254.49C277.603 254.27 280.532 253.996 283.461 253.724C286.39 253.439 289.319 253.142 292.246 252.776L292.749 278.347Z" fill="#262626"/>
<path d="M318.987 251.449L320.532 277.392L275.912 276.868L279.28 253.9L318.987 251.449Z" fill="#262626"/>
<path d="M333.883 245.582L322.058 208.92C321.569 207.011 320.55 205.278 319.12 203.922C316.735 201.537 312.617 199.997 307.596 199.992C307.22 202.92 289.444 202.931 289.308 200.06C288.629 200.07 288.102 200.081 287.773 200.097C280.592 200.406 277.7 203.171 276.783 207.332L261.707 243.81C261.339 244.703 261.213 245.678 261.343 246.636C261.472 247.593 261.853 248.499 262.445 249.262C263.038 250.025 263.822 250.618 264.718 250.981C265.613 251.343 266.589 251.462 267.546 251.326L275.782 250.152C275.376 252.204 275.312 253.799 276.114 255.643C278.3 260.669 321.271 262.757 321.845 253.915C321.851 253.829 321.851 253.743 321.854 253.654L328.994 252.99C329.843 252.911 330.662 252.643 331.393 252.204C332.124 251.766 332.746 251.17 333.216 250.459C333.685 249.748 333.988 248.94 334.104 248.096C334.219 247.252 334.144 246.393 333.883 245.582ZM275.504 239.125L278.229 232.531C278.199 234.889 278.072 236.959 277.891 238.785L275.504 239.125ZM320.874 242.322L318.79 242.516C317.763 239.248 317.245 235.841 317.252 232.416C317.252 232.017 317.269 231.621 317.294 231.226L320.874 242.322Z" fill="#001B72"/>
<path d="M304.144 217.535L305.988 245.03C306.01 245.354 305.965 245.679 305.856 245.985C305.747 246.291 305.576 246.571 305.354 246.809C305.132 247.046 304.864 247.235 304.566 247.364C304.268 247.494 303.947 247.56 303.622 247.56H265.22C264.633 247.56 264.067 247.343 263.631 246.95C263.195 246.557 262.921 246.016 262.86 245.432L260.018 217.938C259.984 217.607 260.02 217.274 260.123 216.958C260.226 216.642 260.394 216.352 260.617 216.105C260.839 215.858 261.111 215.661 261.414 215.526C261.718 215.391 262.046 215.322 262.378 215.322H301.778C302.38 215.322 302.959 215.551 303.398 215.962C303.837 216.373 304.104 216.935 304.144 217.535Z" fill="#9EBCEA"/>
<path d="M268.428 247.561H308.776C309.69 247.561 310.432 246.82 310.432 245.905C310.432 244.991 309.69 244.25 308.776 244.25H268.428C267.514 244.25 266.772 244.991 266.772 245.905C266.772 246.82 267.514 247.561 268.428 247.561Z" fill="#9EBCEA"/>
<path d="M281.986 235.095C284.003 235.095 285.639 233.459 285.639 231.441C285.639 229.423 284.003 227.788 281.986 227.788C279.968 227.788 278.332 229.423 278.332 231.441C278.332 233.459 279.968 235.095 281.986 235.095Z" fill="white"/>
<path d="M287.25 251.053C289.593 252.498 293.22 253.182 296.383 253.433L296.559 247.67C295.071 247.628 292.785 247.471 290.546 247.561C289.535 246.735 288.952 246.49 287.913 245.452C286.808 244.346 283.907 243.683 283.359 245.452C282.811 247.221 285.193 249.779 287.25 251.053Z" fill="#E98862"/>
<path d="M289.307 200.062C289.442 202.932 291.003 207.155 295.82 207.473C302.24 207.896 307.219 202.922 307.595 199.994H307.579C301.259 199.994 292.991 200.004 289.307 200.062Z" fill="#E98862"/>
<path d="M306.184 203.129C306.184 203.129 302.149 200.989 303.049 189.999L294.711 188.453C294.711 188.453 295.648 198.306 291.43 201.435L306.184 203.129Z" fill="#E98862"/>
<g opacity="0.15">
<path d="M293.139 199.374L300.066 194.075L294.625 194.019C294.468 195.881 293.963 197.697 293.139 199.374Z" fill="black"/>
</g>
<path d="M307.781 185.737C307.204 189.072 305.384 192.229 302.443 193.305C299.237 194.578 295.768 195.047 292.34 194.67C283.211 193.922 285.017 173.167 289.351 169.134C293.685 165.102 306.404 167.656 307.951 174.399C308.751 177.888 308.33 182.564 307.781 185.737Z" fill="#E98862"/>
<path d="M286.34 169.85C286.612 169.418 286.994 169.065 287.446 168.827C291.5 166.623 299.012 165.861 302.62 166.94C306.806 168.193 312.055 171.702 310.71 180.21C310.653 180.569 310.592 180.914 310.529 181.254C311.851 181.028 313.209 181.17 314.456 181.665C315.702 182.16 316.789 182.988 317.596 184.06C318.403 185.131 318.899 186.403 319.031 187.738C319.163 189.073 318.925 190.418 318.343 191.626C317.762 192.835 316.858 193.86 315.733 194.589C314.607 195.318 313.303 195.724 311.962 195.761C310.621 195.798 309.296 195.465 308.132 194.799C306.968 194.134 306.009 193.16 305.362 191.986C304.741 192.522 304.07 192.999 303.358 193.408C302.859 193.704 302.738 193.46 302.565 192.908C301.96 190.971 301.365 183.311 301.84 177.748L292.003 177.408L290.289 172.532L288.884 177.408H285.535C285.085 174.766 284.622 171.771 286.34 169.85Z" fill="#0F1011"/>
<path d="M294.723 183.169C295.141 183.169 295.479 182.831 295.479 182.413C295.479 181.995 295.141 181.657 294.723 181.657C294.305 181.657 293.967 181.995 293.967 182.413C293.967 182.831 294.305 183.169 294.723 183.169Z" fill="#0F1011"/>
<path d="M288.756 182.68C289.174 182.68 289.513 182.341 289.513 181.924C289.513 181.506 289.174 181.167 288.756 181.167C288.339 181.167 288 181.506 288 181.924C288 182.341 288.339 182.68 288.756 182.68Z" fill="#0F1011"/>
<path d="M287.446 180.312C287.354 180.309 287.267 180.271 287.203 180.205C287.138 180.139 287.102 180.051 287.102 179.959C287.101 179.867 287.136 179.779 287.199 179.712C287.263 179.645 287.349 179.606 287.441 179.602L289.445 179.577H289.45C289.542 179.58 289.629 179.618 289.693 179.684C289.757 179.75 289.793 179.838 289.794 179.93C289.795 180.022 289.76 180.11 289.696 180.177C289.633 180.243 289.546 180.283 289.454 180.287L287.451 180.312H287.446Z" fill="#0F1011"/>
<path d="M296.355 181.042C296.326 181.042 296.298 181.039 296.271 181.033L294.296 180.558C294.204 180.536 294.125 180.478 294.076 180.398C294.027 180.317 294.011 180.221 294.033 180.129C294.055 180.037 294.113 179.958 294.193 179.909C294.274 179.86 294.37 179.844 294.462 179.866L296.438 180.342C296.522 180.362 296.597 180.412 296.647 180.484C296.697 180.555 296.719 180.642 296.709 180.729C296.699 180.816 296.657 180.895 296.591 180.953C296.526 181.011 296.442 181.043 296.355 181.042Z" fill="#0F1011"/>
<path d="M298.658 184.264C298.594 185.108 298.867 185.943 299.417 186.587C299.967 187.231 300.75 187.631 301.594 187.7C302.438 187.769 303.275 187.501 303.922 186.955C304.569 186.409 304.974 185.629 305.049 184.785C305.09 184.364 305.047 183.939 304.921 183.535C304.795 183.132 304.589 182.757 304.315 182.435C304.041 182.112 303.705 181.848 303.327 181.658C302.949 181.468 302.537 181.356 302.115 181.328C299.83 181.256 298.805 182.499 298.658 184.264Z" fill="#E98862"/>
<g opacity="0.15">
<path d="M291.366 186.607C291.34 186.607 291.314 186.603 291.289 186.595L289.469 186.036C289.434 186.025 289.401 186.007 289.373 185.983C289.346 185.958 289.323 185.928 289.308 185.895C289.293 185.861 289.285 185.824 289.285 185.787C289.285 185.75 289.293 185.714 289.308 185.68L290.505 183.015C290.534 182.953 290.587 182.904 290.651 182.88C290.715 182.856 290.786 182.859 290.849 182.887C290.912 182.915 290.961 182.967 290.985 183.031C291.01 183.095 291.009 183.166 290.981 183.229L289.905 185.624L291.443 186.097C291.503 186.115 291.554 186.154 291.588 186.207C291.621 186.26 291.634 186.323 291.625 186.385C291.615 186.447 291.584 186.503 291.537 186.544C291.49 186.585 291.429 186.607 291.367 186.607H291.366Z" fill="black"/>
</g>
<path d="M294.373 188.369C294.373 188.369 291.581 188.663 289.623 187.979C289.623 187.979 289.638 189.818 291.848 189.999C294.057 190.18 294.373 188.369 294.373 188.369Z" fill="white"/>
<path d="M256.623 49.144H222.145V62.5054H256.623V49.144Z" fill="#9FA6AA"/>
<path d="M215.175 49.144H103.375V62.5054H215.175V49.144Z" fill="#9FA6AA"/>
<path d="M256.624 201.402H197.396V215.322H256.624V201.402Z" fill="#9FA6AA"/>
<path d="M132.535 35.1358V18.0625H136.156V35.1358H132.535Z" fill="white"/>
<path d="M155.6 35.1358H150.999L143.572 22.2197H143.467C143.615 24.5008 143.689 26.128 143.689 27.1013V35.1358H140.453V18.0625H145.019L152.435 30.8498H152.517C152.4 28.6312 152.342 27.0625 152.342 26.1435V18.0625H155.6V35.1358Z" fill="white"/>
<path d="M169.636 18.0625H173.29L167.487 35.1358H163.54L157.748 18.0625H161.402L164.617 28.2224C164.795 28.8215 164.98 29.5202 165.171 30.3184C165.362 31.1166 165.481 31.6714 165.527 31.9829C165.739 30.7128 166.031 29.4576 166.403 28.225L169.636 18.0625Z" fill="white"/>
<path d="M190.938 26.5759C190.938 29.402 190.237 31.5741 188.836 33.0922C187.435 34.6103 185.426 35.3694 182.81 35.3694C180.194 35.3694 178.185 34.6103 176.784 33.0922C175.383 31.5741 174.682 29.3942 174.682 26.5524C174.682 23.7111 175.384 21.541 176.79 20.0424C178.196 18.5438 180.21 17.7943 182.833 17.7939C185.457 17.7939 187.464 18.5492 188.853 20.0596C190.242 21.5701 190.937 23.7422 190.938 26.5759ZM178.477 26.5759C178.477 28.4837 178.839 29.9201 179.563 30.885C179.945 31.3727 180.441 31.7596 181.007 32.0119C181.573 32.2643 182.192 32.3744 182.81 32.3328C185.698 32.3328 187.142 30.4138 187.142 26.5759C187.142 22.7304 185.706 20.8074 182.833 20.807C182.213 20.7665 181.592 20.8777 181.024 21.1311C180.456 21.3844 179.959 21.7723 179.575 22.2611C178.843 23.2305 178.477 24.6688 178.477 26.5759Z" fill="white"/>
<path d="M194.475 35.1358V18.0625H198.095V35.1358H194.475Z" fill="white"/>
<path d="M209.645 20.8303C209.031 20.8025 208.42 20.9284 207.868 21.1965C207.315 21.4647 206.838 21.8666 206.48 22.3658C205.733 23.3899 205.359 24.8165 205.359 26.6457C205.359 30.4526 206.788 32.3561 209.645 32.3561C211.136 32.2984 212.608 31.9947 214.001 31.4573V34.4934C212.509 35.0945 210.913 35.3922 209.306 35.3692C206.822 35.3692 204.922 34.616 203.607 33.1097C202.292 31.6035 201.634 29.4411 201.633 26.6227C201.598 25.014 201.93 23.4184 202.603 21.9572C203.2 20.6759 204.171 19.6051 205.388 18.8856C206.684 18.1514 208.155 17.7822 209.645 17.8172C211.38 17.8347 213.089 18.2451 214.643 19.0177L213.475 21.9603C212.848 21.6611 212.204 21.3961 211.548 21.1664C210.937 20.9477 210.294 20.834 209.645 20.8303Z" fill="white"/>
<path d="M227.466 35.1358H217.633V18.0625H227.466V21.0286H221.255V24.7771H227.035V27.7432H221.253V32.1462H227.464L227.466 35.1358Z" fill="white"/>
</g>
<defs>
<clipPath id="clip0_910_14685">
<rect width="360" height="296.449" fill="white" transform="translate(0 0.275391)"/>
</clipPath>
</defs>
</svg>
