<svg width="360" height="207" viewBox="0 0 360 207" fill="none" xmlns="http://www.w3.org/2000/svg">
<g clip-path="url(#clip0_910_14583)">
<path d="M64.5428 63.4092H86.4082V41.172H64.5428V63.4092Z" fill="#9FA6AA"/>
<path d="M65.6066 63.4092H87.8438V41.172H65.6066V63.4092Z" fill="#DADADA"/>
<path d="M67.1416 61.876H86.3125V42.7051H67.1416V61.876Z" fill="white"/>
<path d="M82.434 47.0718V54.3444L75.2012 47.1115L82.434 47.0718Z" fill="#EDEDEB"/>
<path d="M75.9354 57.509C78.1779 57.509 79.9958 55.6911 79.9958 53.4486C79.9958 51.2061 78.1779 49.3882 75.9354 49.3882C73.6929 49.3882 71.875 51.2061 71.875 53.4486C71.875 55.6911 73.6929 57.509 75.9354 57.509Z" fill="#DADADA"/>
<path d="M19.8963 206.167C6.81573 206.167 -2.67779 193.768 0.680408 181.126C6.04241 160.94 21.4026 133.876 64.3371 121.04C121.36 103.989 118.164 35.272 163.709 35.272C209.255 35.272 209.495 70.1705 223.074 73.7206C236.653 77.2707 282.173 66.73 292.342 97.8401C311.138 155.348 336.367 127.624 355.947 171.911C357.164 174.687 358.218 177.531 359.104 180.429C363.048 193.218 353.472 206.17 340.089 206.17L19.8963 206.167Z" fill="#EDEDEB"/>
<path d="M213.84 3.57324H137.626C131.79 3.57324 127.059 8.30446 127.059 14.1407V169.65C127.059 175.486 131.79 180.217 137.626 180.217H213.84C219.676 180.217 224.407 175.486 224.407 169.65V14.1407C224.407 8.30446 219.676 3.57324 213.84 3.57324Z" fill="white"/>
<path d="M213.84 182.957H137.626C134.098 182.953 130.716 181.55 128.221 179.055C125.726 176.56 124.322 173.178 124.318 169.65V14.1406C124.323 10.6124 125.726 7.22981 128.221 4.73503C130.716 2.24024 134.099 0.836953 137.627 0.833008L213.841 0.833008C217.369 0.8372 220.751 2.2406 223.246 4.73535C225.741 7.23011 227.144 10.6125 227.149 14.1406V169.65C227.144 173.178 225.741 176.56 223.246 179.055C220.751 181.55 217.369 182.953 213.84 182.957ZM137.627 6.31334C135.552 6.31597 133.563 7.14137 132.096 8.60853C130.629 10.0757 129.803 12.0648 129.801 14.1397V169.649C129.803 171.723 130.628 173.713 132.096 175.18C133.563 176.647 135.552 177.472 137.627 177.475H213.841C215.916 177.472 217.905 176.647 219.372 175.18C220.839 173.713 221.665 171.723 221.667 169.649V14.1406C221.665 12.0658 220.839 10.0766 219.372 8.60946C217.905 7.1423 215.916 6.3169 213.841 6.31427L137.627 6.31334Z" fill="#DADADA"/>
<path d="M159.045 3.57324H192.42V10.0486C192.42 10.6852 192.295 11.3155 192.051 11.9035C191.808 12.4916 191.45 13.0259 191 13.476C190.55 13.9261 190.016 14.2832 189.428 14.5268C188.84 14.7703 188.21 14.8957 187.573 14.8957H163.892C162.606 14.8957 161.374 14.385 160.465 13.476C159.556 12.567 159.045 11.3342 159.045 10.0486V3.57324H159.045Z" fill="#DADADA"/>
<path d="M156.41 18.9771H135.393V39.9946H156.41V18.9771Z" fill="#DADADA"/>
<path d="M216.076 31.1797H161.301V36.7529H216.076V31.1797Z" fill="#DADADA"/>
<path d="M200.312 21.1978H161.301V26.7709H200.312V21.1978Z" fill="#DADADA"/>
<path d="M216.075 46.0107H135.393V106.809H216.075V46.0107Z" fill="#DADADA"/>
<path d="M154.749 62.8947C154.696 57.7859 156.715 54.6199 159.453 52.8816C162.155 51.1664 170.625 49.6734 173.837 55.9001C175.933 59.963 175.105 61.4155 175.7 67.9229C176.295 74.4303 178.575 75.1132 180.886 83.0008C182.701 89.188 172.538 92.4732 163.737 92.1887C154.936 91.9042 149.358 89.9563 148.847 84.3589C148.114 76.326 154.852 72.9066 154.749 62.8947Z" fill="#0F1011"/>
<path d="M159.992 77.0197C159.992 77.0197 162.636 75.5868 161.976 68.3576L167.456 67.2896C167.456 67.2896 166.899 73.7805 169.695 75.8153L159.992 77.0197Z" fill="#E98862"/>
<g opacity="0.15">
<path d="M168.557 74.4692L163.965 71.0218L167.546 70.9517C167.661 72.1769 168.004 73.3699 168.557 74.4692Z" fill="black"/>
</g>
<path d="M158.837 65.5811C159.237 67.7728 160.454 69.8403 162.396 70.5316C164.514 71.3502 166.801 71.6381 169.056 71.3701C175.06 70.8223 173.745 57.1696 170.869 54.5416C167.992 51.9135 159.634 53.672 158.656 58.1196C158.151 60.4194 158.456 63.4953 158.837 65.5811Z" fill="#E98862"/>
<path d="M167.412 63.8111C167.687 63.8111 167.91 63.5882 167.91 63.3133C167.91 63.0383 167.687 62.8154 167.412 62.8154C167.137 62.8154 166.914 63.0383 166.914 63.3133C166.914 63.5882 167.137 63.8111 167.412 63.8111Z" fill="#0F1011"/>
<path d="M171.338 63.4532C171.613 63.4532 171.836 63.2303 171.836 62.9554C171.836 62.6804 171.613 62.4575 171.338 62.4575C171.063 62.4575 170.84 62.6804 170.84 62.9554C170.84 63.2303 171.063 63.4532 171.338 63.4532Z" fill="#0F1011"/>
<path d="M172.189 61.8864L170.87 61.8821C170.81 61.8799 170.752 61.8543 170.71 61.8106C170.668 61.767 170.645 61.7087 170.645 61.6481C170.645 61.5874 170.668 61.5292 170.71 61.4855C170.752 61.4419 170.81 61.4163 170.87 61.4141L172.189 61.4184C172.25 61.4206 172.307 61.4462 172.349 61.4899C172.391 61.5335 172.415 61.5918 172.415 61.6524C172.415 61.7131 172.391 61.7713 172.349 61.815C172.307 61.8586 172.25 61.8842 172.189 61.8864Z" fill="#0F1011"/>
<path d="M166.328 62.4212C166.271 62.4213 166.216 62.4004 166.173 62.3626C166.13 62.3247 166.102 62.2725 166.095 62.2158C166.089 62.159 166.103 62.1017 166.135 62.0546C166.167 62.0076 166.216 61.974 166.271 61.9603L167.569 61.6354C167.629 61.6204 167.693 61.6298 167.746 61.6617C167.799 61.6936 167.837 61.7453 167.852 61.8055C167.868 61.8656 167.858 61.9293 167.826 61.9825C167.794 62.0357 167.743 62.0741 167.682 62.0892L166.385 62.414C166.367 62.4188 166.347 62.4212 166.328 62.4212Z" fill="#0F1011"/>
<path d="M167.68 67.2325C167.68 67.2325 169.519 67.4096 170.803 66.9478C170.803 66.9478 170.803 68.159 169.351 68.2907C167.899 68.4223 167.68 67.2325 167.68 67.2325Z" fill="white"/>
<path d="M162.828 59.8571C163.241 64.9983 162.726 70.1717 161.31 75.131C161.31 75.131 157.048 67.9494 156.341 61.9414C155.677 56.3095 159.801 52.9426 162.602 52.2891C173.246 49.8046 173.986 57.5707 173.986 57.5707C173.297 60.2193 161.677 61.8625 161.677 61.8625" fill="#0F1011"/>
<path d="M164.919 65.4826C164.954 65.7637 164.933 66.0491 164.855 66.3218C164.778 66.5944 164.647 66.8487 164.469 67.0695C164.292 67.2903 164.071 67.4731 163.821 67.607C163.572 67.7409 163.298 67.8231 163.015 67.8489C162.733 67.8746 162.449 67.8433 162.179 67.7567C161.909 67.6702 161.659 67.5303 161.445 67.3452C161.23 67.1602 161.055 66.9338 160.93 66.6797C160.804 66.4255 160.731 66.1487 160.715 65.8658C160.685 65.5889 160.711 65.3089 160.792 65.0423C160.872 64.7757 161.006 64.528 161.184 64.314C161.362 64.1 161.581 63.924 161.829 63.7966C162.077 63.6692 162.347 63.5929 162.625 63.5722C164.129 63.5095 164.813 64.3217 164.919 65.4826Z" fill="#E98862"/>
<g opacity="0.15">
<path d="M169.646 66.0544C169.605 66.0543 169.566 66.0396 169.534 66.013C169.503 65.9863 169.483 65.9494 169.477 65.9089C169.47 65.8684 169.479 65.827 169.5 65.7922C169.522 65.7573 169.555 65.7314 169.594 65.719L170.604 65.3988L169.881 63.8282C169.869 63.8075 169.862 63.7847 169.86 63.761C169.857 63.7374 169.86 63.7134 169.867 63.6908C169.874 63.6681 169.886 63.6472 169.902 63.6294C169.917 63.6115 169.937 63.5972 169.958 63.5872C169.98 63.5772 170.003 63.5718 170.027 63.5713C170.051 63.5709 170.074 63.5753 170.096 63.5845C170.118 63.5936 170.138 63.6072 170.155 63.6244C170.171 63.6416 170.184 63.662 170.192 63.6844L170.997 65.4314C171.007 65.4535 171.013 65.4775 171.013 65.5019C171.013 65.5263 171.008 65.5504 170.998 65.5727C170.989 65.595 170.974 65.615 170.956 65.6312C170.938 65.6475 170.916 65.6597 170.893 65.6671L169.698 66.046C169.681 66.0515 169.664 66.0543 169.646 66.0544Z" fill="black"/>
</g>
<path d="M196.4 80.2521C196.4 80.2521 196.954 76.1318 199.879 76.7051C201.723 77.0669 210.616 77.73 210.649 78.5533C210.733 80.5866 202.585 80.0894 201.625 81.8569L196.4 80.2521Z" fill="#E98862"/>
<path d="M198.816 76.7102C198.816 76.7102 203.085 75.8717 204.065 76.2338C204.932 76.5546 202.894 77.7823 202.894 77.7823L198.816 76.7102Z" fill="#E98862"/>
<path d="M196.712 78.045L186.293 93.7071L179.196 80.3898C178.485 77.2934 176.522 75.1629 172.016 74.9673C171.798 74.9579 171.45 74.9517 171 74.9424C170.91 76.8462 159.121 76.84 158.872 74.8989C155.54 74.902 152.81 75.9238 151.229 77.5046C149.735 78.9985 149.155 80.778 149.096 82.7222L143.456 101.055C143.322 101.488 143.276 101.944 143.322 102.395C143.368 102.846 143.504 103.284 143.722 103.681C143.94 104.079 144.236 104.428 144.592 104.709C144.948 104.99 145.357 105.197 145.794 105.316L151.22 106.81H178.997C178.499 103.947 178.28 101.042 178.345 98.1358C178.361 96.7289 178.482 95.2506 178.643 93.7506L182.985 101.897C183.261 102.414 183.666 102.85 184.16 103.164C184.655 103.478 185.223 103.657 185.808 103.686C185.861 103.689 185.917 103.689 185.973 103.689C186.53 103.689 187.079 103.552 187.571 103.288C188.062 103.025 188.481 102.644 188.79 102.179L202.349 81.7936L196.712 78.045ZM152.459 100.127L150.953 99.7135L152.071 96.086C152.318 97.2126 152.452 98.3614 152.468 99.5147C152.468 99.7228 152.465 99.9278 152.46 100.127H152.459Z" fill="#001B72"/>
<path d="M170.998 74.9435C170.907 76.8473 169.873 79.6474 166.678 79.8586C162.421 80.1381 159.118 76.8401 158.869 74.8984H158.88C163.071 74.8984 168.554 74.904 170.998 74.9435Z" fill="#E98862"/>
<path d="M143.715 128.264C148.312 128.264 152.038 124.538 152.038 119.941C152.038 115.345 148.312 111.619 143.715 111.619C139.119 111.619 135.393 115.345 135.393 119.941C135.393 124.538 139.119 128.264 143.715 128.264Z" fill="#DADADA"/>
<path d="M216.076 116.782H155.855V123.101H216.076V116.782Z" fill="#DADADA"/>
<path d="M216.075 131.975H135.393V138.294H216.075V131.975Z" fill="#DADADA"/>
<path d="M216.075 147.168H135.393V153.487H216.075V147.168Z" fill="#DADADA"/>
<path d="M216.075 162.361H135.393V168.681H216.075V162.361Z" fill="#DADADA"/>
<path d="M113.557 115.504C115.72 145.028 118.497 174.557 122.453 203.897L128.78 203.311C127.279 173.745 124.584 144.206 121.288 114.788L113.557 115.504Z" fill="#E98862"/>
<path d="M100.395 122.209C99.5325 145.042 97.3582 179.667 96.1035 202.775L102.428 203.377C105.423 180.097 110.134 145.901 112.701 122.887L100.395 122.209Z" fill="#E98862"/>
<path d="M110.623 206.11C110.798 206.109 110.972 206.072 111.132 206.001C111.293 205.93 111.437 205.827 111.555 205.698C111.674 205.569 111.765 205.417 111.823 205.251C111.88 205.085 111.902 204.909 111.889 204.735C111.87 204.492 111.782 204.26 111.636 204.066C111.49 203.872 111.291 203.724 111.063 203.639L103.472 201.096C103.325 201.047 103.169 201.031 103.015 201.048C102.861 201.065 102.713 201.115 102.58 201.195C101.537 201.919 100.288 202.289 99.0185 202.251C98.0296 202.181 97.0803 201.834 96.2789 201.25C96.2085 201.193 96.1232 201.156 96.0327 201.145C95.9423 201.134 95.8506 201.149 95.7683 201.188C95.686 201.227 95.6166 201.288 95.568 201.366C95.5195 201.443 95.4938 201.532 95.4941 201.623V205.335C95.4941 205.444 95.5158 205.553 95.5578 205.654C95.5998 205.755 95.6614 205.847 95.7389 205.924C95.8165 206.002 95.9086 206.063 96.0099 206.104C96.1112 206.146 96.2198 206.167 96.3293 206.167L110.623 206.11Z" fill="#9FA6AA"/>
<path d="M136.627 206.11C136.802 206.109 136.976 206.071 137.136 206.001C137.296 205.93 137.44 205.827 137.559 205.698C137.678 205.569 137.769 205.416 137.826 205.251C137.883 205.085 137.906 204.909 137.892 204.735C137.874 204.492 137.786 204.26 137.639 204.066C137.493 203.872 137.294 203.724 137.067 203.639L129.476 201.096C129.329 201.047 129.173 201.031 129.019 201.048C128.865 201.065 128.717 201.115 128.584 201.195C127.54 201.919 126.292 202.289 125.022 202.251C124.033 202.181 123.084 201.834 122.283 201.25C122.212 201.193 122.127 201.156 122.037 201.145C121.946 201.134 121.855 201.149 121.772 201.188C121.69 201.227 121.62 201.288 121.572 201.366C121.523 201.443 121.498 201.532 121.498 201.623V205.335C121.498 205.444 121.52 205.553 121.562 205.654C121.604 205.755 121.665 205.847 121.743 205.924C121.82 206.002 121.913 206.063 122.014 206.104C122.115 206.146 122.224 206.167 122.333 206.167L136.627 206.11Z" fill="#9FA6AA"/>
<path d="M100.202 110.067C100.202 110.067 96.6741 125.866 96.6741 139.153C96.6741 152.44 92.623 173.019 92.623 173.019C92.623 173.019 104.264 170.588 111.892 173.019C119.521 175.449 133.747 171.074 133.747 171.074L123.829 111.525L100.202 110.067Z" fill="#262626"/>
<path d="M93.5322 121.257C93.5322 122.183 94.0211 125.277 93.235 125.498C92.7639 125.63 92.207 123.324 92.207 123.324" fill="#E98862"/>
<path d="M89.8221 120.771C89.8221 120.771 87.2555 127.018 90.183 130.607C90.2576 130.698 90.3581 130.765 90.4712 130.798C90.5843 130.831 90.7049 130.83 90.8171 130.793C90.9293 130.757 91.028 130.688 91.1003 130.595C91.1725 130.502 91.215 130.389 91.2221 130.271C91.3644 127.851 91.8523 122.881 93.4477 123.462V119.56" fill="#E98862"/>
<path d="M155.399 73.8062C155.785 73.24 155.854 72.4943 155.854 71.7639C155.854 70.6762 155.489 69.62 154.817 68.7647C154.146 67.9093 153.206 67.3043 152.149 67.0468C151.093 66.7892 149.98 66.894 148.99 67.3443C148 67.7947 147.19 68.5645 146.69 69.5302C146.19 68.5645 145.379 67.7947 144.389 67.3443C143.399 66.894 142.287 66.7892 141.23 67.0468C140.174 67.3043 139.234 67.9093 138.562 68.7647C137.89 69.62 137.525 70.6762 137.526 71.7639C137.483 72.7195 137.766 73.6614 138.329 74.4348C140.203 76.7476 146.69 82.9133 146.69 82.9133C146.69 82.9133 153.622 76.4078 155.399 73.8062Z" fill="#DD2638"/>
<path d="M147.46 87.855C147.46 87.855 151.125 83.3918 151.58 82.4421C153.187 79.0978 152.384 77.5661 151.715 77.0766C150.925 76.4977 147.262 81.419 147.262 81.419C147.262 81.419 147.58 79.6488 146.894 79.5323C146.613 79.4848 146.389 79.7612 145.948 81.0144C145.446 82.443 144.441 84.5906 144.441 84.5906L147.46 87.855Z" fill="#E98862"/>
<path d="M107.818 78.0031C107.818 78.0031 110.316 76.9304 110.316 70.3689L115.336 69.8574C115.336 69.8574 114.301 75.6552 116.651 77.7149L107.818 78.0031Z" fill="#E98862"/>
<path d="M107.716 67.6113C107.896 69.6169 108.822 71.5779 110.514 72.3596C112.353 73.2702 114.388 73.7168 116.439 73.6606C121.89 73.6606 121.828 61.2632 119.454 58.66C117.08 56.0568 109.412 56.9537 108.167 60.8778C107.523 62.9086 107.545 65.7025 107.716 67.6113Z" fill="#E98862"/>
<path d="M119.166 63.697C120.224 63.6888 121.28 63.5998 122.324 63.4308C122.324 63.4308 122.004 55.3802 113.454 55.8392C112.344 55.7885 111.232 55.8541 110.135 56.0349C107.565 56.429 103.922 59.0564 103.334 65.6315C103.064 68.6481 102.024 71.4917 101.231 73.292C101.137 73.5034 101.097 73.7348 101.116 73.9653C101.134 74.1958 101.21 74.4181 101.336 74.612C101.462 74.8059 101.634 74.9653 101.837 75.0756C102.04 75.186 102.268 75.2438 102.499 75.244L120.816 75.0989C121.033 75.0992 121.247 75.0487 121.44 74.9515C121.634 74.8543 121.802 74.7131 121.931 74.5393C122.06 74.3654 122.147 74.1637 122.184 73.9503C122.222 73.7369 122.208 73.5177 122.146 73.3104C121.15 70.0106 119.328 67.9881 119.166 63.697Z" fill="#0F1011"/>
<path d="M143.92 83.7039L133.318 95.6323L125.026 80.7889C124.241 78.4435 122.453 76.8726 118.807 76.7164C117.56 76.663 111.476 76.6543 107.021 76.6543C104.028 76.6543 101.571 77.5727 100.153 78.9913C99.438 79.6957 98.9032 80.5616 98.5933 81.516L98.5504 81.5004L91.4216 100.883C91.3416 101.101 91.2842 101.326 91.2502 101.555L88.373 120.939L95.0714 121.933L97.8976 102.893L100.777 95.0646C101.077 96.2679 101.24 97.501 101.265 98.7408C101.265 105.263 98.3147 108.188 98.5321 111.536C98.8737 116.799 124.442 115.555 125.745 112.566C127.087 109.483 124.364 107.584 124.483 97.5004C124.496 96.4032 124.581 95.255 124.698 94.0863L129.729 103.093C129.992 103.564 130.365 103.966 130.815 104.264C131.266 104.563 131.781 104.749 132.318 104.807C132.44 104.821 132.563 104.827 132.685 104.827C133.163 104.827 133.636 104.726 134.072 104.53C134.508 104.334 134.898 104.048 135.216 103.691L149.155 87.3858L143.92 83.7039Z" fill="#001B72"/>
<path d="M254.938 193.836L251.662 206.167H256.287L261.489 193.836H254.938Z" fill="#DADADA"/>
<path d="M314.668 193.836L317.944 206.167H313.319L308.117 193.836H314.668Z" fill="#DADADA"/>
<path d="M276.004 193.836L272.729 206.167H277.353L282.555 193.836H276.004Z" fill="#9FA6AA"/>
<path d="M335.735 193.836L339.01 206.167H334.386L329.184 193.836H335.735Z" fill="#9FA6AA"/>
<path d="M340.641 176.072H281.053L285.094 132.111C285.191 131.06 285.677 130.082 286.457 129.37C287.237 128.658 288.255 128.264 289.311 128.264H340.393C340.982 128.264 341.564 128.387 342.103 128.625C342.642 128.862 343.125 129.21 343.522 129.645C343.918 130.08 344.22 130.593 344.408 131.152C344.595 131.71 344.664 132.301 344.61 132.888L340.641 176.072Z" fill="#9FA6AA"/>
<path d="M287.732 155.522H247.221V196.033H287.732V155.522Z" fill="#9FA6AA"/>
<path d="M329.092 176.072H271.701L275.742 132.111C275.839 131.06 276.325 130.082 277.106 129.37C277.886 128.658 278.904 128.264 279.96 128.264H328.844C329.433 128.264 330.015 128.386 330.554 128.624C331.093 128.862 331.576 129.209 331.973 129.645C332.37 130.08 332.672 130.593 332.859 131.151C333.047 131.709 333.116 132.3 333.062 132.887L329.092 176.072Z" fill="#DADADA"/>
<g opacity="0.48">
<path d="M329.092 176.072H271.701L275.742 132.111C275.839 131.06 276.325 130.082 277.106 129.37C277.886 128.658 278.904 128.264 279.96 128.264H328.844C329.433 128.264 330.015 128.386 330.554 128.624C331.093 128.862 331.576 129.209 331.973 129.645C332.37 130.08 332.672 130.593 332.859 131.151C333.047 131.709 333.116 132.3 333.062 132.887L329.092 176.072Z" fill="#9FA6AA"/>
</g>
<path d="M308.836 155.522H343.338C344.932 155.522 346.46 156.155 347.587 157.282C348.714 158.409 349.347 159.937 349.347 161.531V191.837C349.347 193.431 348.714 194.959 347.587 196.086C346.46 197.213 344.932 197.846 343.338 197.846H308.836V155.522Z" fill="#9FA6AA"/>
<path d="M308.837 197.846H247.219C245.471 197.846 243.794 197.152 242.558 195.915C241.322 194.679 240.627 193.002 240.627 191.254V162.114C240.639 160.374 241.339 158.708 242.574 157.482C243.809 156.255 245.479 155.567 247.219 155.567C248.96 155.567 250.63 156.255 251.865 157.482C253.1 158.708 253.8 160.374 253.812 162.114V184.662H302.244V162.114C302.244 160.366 302.939 158.689 304.175 157.453C305.412 156.217 307.088 155.522 308.837 155.522C310.585 155.522 312.262 156.217 313.498 157.453C314.734 158.689 315.429 160.366 315.429 162.114V191.254C315.429 193.002 314.734 194.679 313.498 195.915C312.262 197.152 310.585 197.846 308.837 197.846Z" fill="#DADADA"/>
<path d="M250.36 171.649H302.333V185.751H250.36C249.806 185.751 249.259 185.642 248.747 185.43C248.236 185.219 247.772 184.908 247.381 184.517C246.989 184.126 246.679 183.661 246.467 183.15C246.255 182.639 246.146 182.091 246.146 181.538V175.863C246.146 174.745 246.59 173.674 247.381 172.883C248.171 172.093 249.242 171.649 250.36 171.649Z" fill="#EDEDEB"/>
<g opacity="0.15">
<path d="M250.36 171.649H302.333V185.751H250.36C249.806 185.751 249.259 185.642 248.747 185.43C248.236 185.219 247.772 184.908 247.381 184.517C246.989 184.126 246.679 183.661 246.467 183.15C246.255 182.639 246.146 182.091 246.146 181.538V175.863C246.146 174.745 246.59 173.674 247.381 172.883C248.171 172.093 249.242 171.649 250.36 171.649Z" fill="#9FA6AA"/>
</g>
<path d="M69.9615 204.333H73.1113V173.348H69.9615V204.333Z" fill="#9FA6AA"/>
<path d="M72.5533 204.333H75.7031V173.348H72.5533V204.333Z" fill="#DADADA"/>
<path d="M30.7291 204.333H33.8789L33.8789 173.348H30.7291L30.7291 204.333Z" fill="#9FA6AA"/>
<path d="M33.3209 204.333H36.4707L36.4707 173.348H33.3209L33.3209 204.333Z" fill="#DADADA"/>
<path d="M61.3229 204.333H64.4727V173.348H61.3229L61.3229 204.333Z" fill="#9FA6AA"/>
<path d="M63.9146 204.333H67.0645V173.348H63.9146L63.9146 204.333Z" fill="#DADADA"/>
<path d="M22.0904 204.333H25.2402L25.2402 173.348H22.0904L22.0904 204.333Z" fill="#9FA6AA"/>
<path d="M24.6822 204.333H27.832L27.832 173.348H24.6822L24.6822 204.333Z" fill="#DADADA"/>
<path d="M64.4517 153.514H22.0898V174.091H64.4517V153.514Z" fill="#9FA6AA"/>
<path d="M75.7017 153.514H33.3398V174.091H75.7017V153.514Z" fill="#DADADA"/>
<g opacity="0.53">
<path d="M73.423 156.439H35.6191V171.075H73.423V156.439Z" fill="#EDEDEB"/>
</g>
<path d="M54.5227 165.436C55.4499 165.436 56.2016 164.684 56.2016 163.757C56.2016 162.83 55.4499 162.078 54.5227 162.078C53.5954 162.078 52.8438 162.83 52.8438 163.757C52.8438 164.684 53.5954 165.436 54.5227 165.436Z" fill="white"/>
<path d="M51.8739 133.664C50.6819 133.274 49.4585 133.713 48.288 134.602C49.8297 130.709 50.466 127.193 47.8302 127.034C45.9861 126.923 44.5733 128.339 43.4999 130.35C43.1226 126.813 42.1486 124.175 39.9672 125.05C37.5724 126.01 37.2081 129.3 37.5711 132.743C36.5152 130.985 35.3801 130.004 34.3487 131.035C31.2703 134.113 38.8265 142.789 38.8265 142.789H40.7029L41.7741 143.952C41.5567 144.41 41.4384 144.683 41.4384 144.683L42.7987 147.451C42.7987 147.451 56.8222 135.284 51.8739 133.664Z" fill="#8DDBE0"/>
<path d="M48.5096 153.652H37.889L36.1113 141.254H50.2876L48.5096 153.652Z" fill="#9FA6AA"/>
</g>
<defs>
<clipPath id="clip0_910_14583">
<rect width="360" height="205.334" fill="white" transform="translate(0 0.833008)"/>
</clipPath>
</defs>
</svg>
