<?xml version="1.0" encoding="utf-8"?>
<!-- Generator: Adobe Illustrator 26.3.1, SVG Export Plug-In . SVG Version: 6.00 Build 0)  -->
<svg version="1.1" id="Layer_1" xmlns="http://www.w3.org/2000/svg" x="0px"
	 y="0px"
	 viewBox="0 0 368.33 456.1" style="enable-background:new 0 0 368.33 456.1;" xml:space="preserve">
<style type="text/css">
	.st0{fill:#001B72;}
	.st1{fill:#EDEDEB;}
	.st2{fill:#DD2638;}
</style>
    <g>
	<g>
		<g>
			<g>
				<rect x="52.18" y="14.44" class="st0" width="94.65" height="217.31"/>
                <path class="st0" d="M327.52,14.44H218.38l-54.83,102.18h0.51l-0.51,0.32h98.72c6.18,0,11.89-3.29,15-8.63l50.25-93.42
					l-0.55,0.34L327.52,14.44z"/>
                <path class="st0" d="M262.27,129.69h-16.21c-1.06-0.08-2.18-0.12-3.36-0.12h-79.15l0.07,0.12h-0.07l0.1,0.06l54.73,101.99
					h109.14l-50.25-93.42C274.17,132.98,268.45,129.69,262.27,129.69z"/>
			</g>
		</g>
	</g>
        <g>
		<path d="M90.09,355.56l3.62-3.24c17.56-15.75,23.48-21.05,39.28-21.05h6.92v-13.12H85.55v13.12h5.44c0.87,0,1.53,0.05,2.01,0.11
			c-0.96,2.13-4.58,7.72-18.26,19.45c-6.13,5.25-15.69,13.18-23.1,19.28v-31.94c0-6.13,0-6.91,10.64-6.91h5.44v-13.12h-51.9v13.12
			h5.44c10.28,0,10.81,1.78,10.81,6.91v80.69c0,5.14-0.52,6.91-10.81,6.91h-5.44v13.12h51.9v-13.12h-5.44
			c-3.95,0-7.81-0.14-9.28-1.13c-0.63-0.43-1.36-1.47-1.36-5.79v-29.83c1.94-1.69,5.03-4.22,7.87-6.54
			c1.07-0.88,2.12-1.73,3.08-2.53l49.11,58.96l28.23-0.22v-12.93h-5.44c-8.34,0-11.45-3.47-28.74-24.4
			c-1.33-1.62-2.75-3.33-4.24-5.12l-24.36-29.81c1.47-1.28,2.8-2.35,4.26-3.54C83.67,361.08,86.26,358.99,90.09,355.56z"/>
            <path d="M238.02,375.62v63.46h-14.2l-2.57-15.57c-5.82,11.29-21.9,18.47-36.95,18.13c-33.36-0.68-58.5-22.07-58.5-63.29
			c0-34.55,23.78-62.95,59.36-62.95c25.66,0,48.92,14.03,51.49,41.23h-20.53c-1.2-15.4-15.57-24.46-30.96-24.46
			c-24.8,0-38.66,23.78-38.66,46.19c0,23.26,11.12,46.36,38.66,46.36c21.9,0,33.36-12.66,34.73-33.19h-36.37v-15.91H238.02z"/>
            <path d="M354.17,375.62v63.46h-14.2l-2.57-15.57c-5.82,11.29-21.9,18.47-36.95,18.13c-33.36-0.68-58.5-22.07-58.5-63.29
			c0-34.55,23.78-62.95,59.36-62.95c25.66,0,48.92,14.03,51.49,41.23h-20.53c-1.2-15.4-15.57-24.46-30.96-24.46
			c-24.8,0-38.66,23.78-38.66,46.19c0,23.26,11.12,46.36,38.66,46.36c21.9,0,33.36-12.66,34.73-33.19h-36.92v-15.91H354.17z"/>
	</g>
</g>
</svg>
