<?xml version="1.0" encoding="utf-8"?>
<!-- Generator: Adobe Illustrator 26.3.1, SVG Export Plug-In . SVG Version: 6.00 Build 0)  -->
<svg version="1.1" id="Layer_1" xmlns="http://www.w3.org/2000/svg" xmlns:xlink="http://www.w3.org/1999/xlink" x="0px" y="0px"
	 viewBox="0 0 3455.5 360.96" style="enable-background:new 0 0 3455.5 360.96;" xml:space="preserve">
<style type="text/css">
	.st0{fill:#DD2638;}
	.st1{fill:#001B72;}
	.st2{fill:#EDEDEB;}
</style>
<g>
	<g>
		<path class="st0" d="M252.49,151.29c9.53,0,15.79-2.28,21.2-12.09l50.37-91.92H213.22l-56.91,104.01H252.49z M252.49,162.96
			h-96.18l56.91,104.01h110.84l-50.37-91.92C268.28,165.24,262.02,162.96,252.49,162.96z M45.75,47.28v219.69h95.33V47.28H45.75z"/>
	</g>
	<g>
		<path d="M2820.76,152.14v109.86h-24.58l-4.44-26.95c-10.07,19.54-37.9,31.98-63.96,31.39c-57.75-1.18-101.28-38.2-101.28-109.57
			c0-59.82,41.16-108.98,102.76-108.98c44.42,0,84.69,24.28,89.14,71.37h-35.54c-2.07-26.65-26.95-42.35-53.6-42.35
			c-42.94,0-66.93,41.16-66.93,79.96c0,40.27,19.25,80.25,66.93,80.25c37.9,0,57.75-21.91,60.11-57.45h-60.11v-27.54H2820.76z"/>
		<path d="M3405.32,155.98c-2.96-9.85-7.39-18.49-13.34-25.88c-5.91-7.43-13.38-13.23-22.36-17.47c-8.98-4.28-19.48-6.4-31.53-6.4
			c-9.85,0-19.06,1.93-27.55,5.8c-8.49,3.83-15.08,10.19-19.82,19.1h-0.61v-20.73h-31.98v209.67h33.76v-76.43h0.61
			c2.54,4.17,5.76,7.77,9.62,10.84c3.83,3.03,8.03,5.57,12.58,7.54c4.51,1.97,9.28,3.41,14.21,4.28c4.93,0.91,9.85,1.33,14.82,1.33
			c11.22,0,20.99-2.2,29.29-6.63c8.3-4.47,15.16-10.38,20.58-17.77c5.46-7.43,9.47-15.95,12.16-25.62
			c2.65-9.66,3.98-19.67,3.98-29.9C3409.75,176.44,3408.27,165.87,3405.32,155.98z M3373.79,206.8c-1.48,6.4-3.98,12.13-7.43,17.17
			c-3.45,5.04-7.84,9.13-13.15,12.28c-5.34,3.15-11.86,4.74-19.55,4.74c-6.93,0-13-1.36-18.23-4.13c-5.23-2.77-9.7-6.52-13.45-11.25
			c-3.75-4.74-6.59-10.42-8.45-17.05c-1.89-6.59-2.8-13.76-2.8-21.45c0-16.41,3.6-29.52,10.8-39.37
			c7.2-9.89,17.92-14.82,32.13-14.82c6.9,0,13.04,1.52,18.34,4.59c5.34,3.07,9.78,7.09,13.34,12.13c3.56,5.04,6.21,10.84,8,17.32
			c1.78,6.52,2.65,13.26,2.65,20.16C3375.99,193.8,3375.27,200.35,3373.79,206.8z"/>
		<path d="M3238.59,108.91h-33.76v88.84c0,5.92-0.64,11.45-1.92,16.58c-1.28,5.13-3.41,9.53-6.37,13.18
			c-2.96,3.65-6.81,6.56-11.55,8.74c-4.74,2.17-10.66,3.26-17.77,3.26c-9.28,0-16.48-2.76-21.62-8.29s-7.7-15-7.7-28.43v-93.87
			h-33.76v97.13c0,20.14,4.49,35.19,13.47,45.16s23.54,14.95,43.68,14.95c8.49,0,16.83-2.32,25.02-6.96
			c8.19-4.64,14.36-10.81,18.51-18.51h0.59v21.32h33.17V108.91z"/>
		<path d="M3084.47,153.02c-3.45-9.85-8.49-18.34-15.12-25.47c-6.59-7.09-14.7-12.69-24.29-16.71c-9.55-4.05-20.46-6.1-32.7-6.1
			c-12.24,0-23.15,2.05-32.74,6.1c-9.55,4.02-17.66,9.63-24.25,16.71c-6.63,7.12-11.67,15.61-15.12,25.47
			c-3.45,9.89-5.19,20.65-5.19,32.29c0,11.86,1.74,22.7,5.19,32.59c3.45,9.85,8.49,18.34,15.12,25.46
			c6.59,7.09,14.7,12.66,24.25,16.71c9.59,4.05,20.5,6.06,32.74,6.06c12.24,0,23.15-2.01,32.7-6.06c9.59-4.05,17.7-9.63,24.29-16.71
			c6.63-7.12,11.67-15.61,15.12-25.46c3.45-9.89,5.19-20.73,5.19-32.59C3089.66,173.68,3087.92,162.91,3084.47,153.02z
			 M3053.36,205.01c-1.67,6.4-4.28,12.16-7.84,17.32c-3.56,5.12-8.07,9.28-13.6,12.43c-5.53,3.15-12.05,4.74-19.55,4.74
			c-7.5,0-14.02-1.59-19.55-4.74c-5.53-3.15-10.08-7.31-13.6-12.43c-3.56-5.15-6.18-10.91-7.84-17.32c-1.71-6.44-2.54-13-2.54-19.71
			c0-6.52,0.83-13.04,2.54-19.55c1.67-6.52,4.28-12.28,7.84-17.32c3.52-5.04,8.07-9.13,13.6-12.28c5.53-3.18,12.05-4.74,19.55-4.74
			c7.5,0,14.02,1.55,19.55,4.74c5.53,3.15,10.04,7.24,13.6,12.28c3.56,5.04,6.18,10.8,7.84,17.32c1.71,6.52,2.54,13.04,2.54,19.55
			C3055.9,192.02,3055.06,198.57,3053.36,205.01z"/>
		<path d="M2841.48,262.01h33.76v-72.85c0-8.49,1.09-15.99,3.26-22.51c2.17-6.51,5.13-11.99,8.88-16.44
			c3.75-4.44,8.14-7.8,13.18-10.07c5.03-2.27,10.41-3.41,16.14-3.41c2.37,0,4.79,0.15,7.26,0.44c2.47,0.3,4.89,0.64,7.26,1.04
			v-32.57c-1.58-0.2-3.11-0.39-4.59-0.59s-4.2-0.3-8.14-0.3c-5.13,0-10.17,0.99-15.1,2.96c-4.94,1.97-9.43,4.59-13.47,7.85
			c-4.05,3.26-7.5,6.86-10.36,10.81c-2.86,3.95-4.79,8-5.77,12.14h-0.59v-29.61h-31.69V262.01z"/>
		<path d="M2573.35,160.87c-2.88-10.76-7.47-20.27-13.79-28.57c-6.29-8.3-14.25-14.93-23.84-19.97c-9.55-5.04-20.39-7.58-32.44-7.58
			c-11.44,0-21.71,2.2-30.77,6.52c-9.09,4.36-16.82,10.23-23.27,17.62c-6.4,7.43-11.33,15.99-14.78,25.77
			c-3.49,9.78-5.19,20.08-5.19,30.96c0,11.82,1.63,22.7,4.89,32.55c3.26,9.89,8.07,18.38,14.51,25.47
			c6.4,7.12,14.25,12.66,23.53,16.6c9.28,3.94,19.93,5.91,31.98,5.91c8.3,0,16.22-1.14,23.84-3.37c7.62-2.27,14.48-5.65,20.58-10.08
			c6.14-4.43,11.37-9.93,15.69-16.45c4.36-6.52,7.43-13.91,9.21-22.21h-31.98c-2.99,8.49-7.47,14.85-13.49,19.1
			c-6.03,4.24-13.98,6.37-23.84,6.37c-7.12,0-13.23-1.21-18.38-3.71c-5.12-2.46-9.36-5.76-12.73-9.89
			c-3.33-4.17-5.87-8.98-7.54-14.51c-1.67-5.53-2.5-11.25-2.5-17.2h112.51C2576.95,182.73,2576.19,171.63,2573.35,160.87z
			 M2463.04,171.97c0.19-5.72,1.33-11.03,3.41-15.99c2.05-4.93,4.81-9.21,8.26-12.88c3.49-3.64,7.62-6.52,12.47-8.56
			c4.81-2.08,10.19-3.11,16.1-3.11c5.76,0,10.91,1.14,15.57,3.41c4.62,2.27,8.56,5.23,11.82,8.87c3.26,3.64,5.84,7.96,7.73,12.88
			c1.86,4.93,2.99,10.08,3.37,15.39H2463.04z"/>
		<path d="M2332.44,134.08h25.47v90.32c0,6.32,0.59,11.94,1.78,16.88c1.18,4.94,3.31,9.03,6.37,12.29c3.06,3.26,7.3,5.73,12.73,7.4
			s12.59,2.52,21.47,2.52c3.75,0,7.4-0.2,10.96-0.59c3.55-0.39,7.21-0.79,10.96-1.18v-26.06c-2.37,0.59-4.74,0.94-7.11,1.04
			c-2.37,0.1-4.74,0.15-7.11,0.15c-3.75,0-6.71-0.44-8.88-1.33c-2.17-0.89-3.8-2.22-4.89-4c-1.09-1.78-1.78-3.95-2.07-6.51
			s-0.44-5.63-0.44-9.18v-81.73h30.5v-25.17h-30.5v-45.9h-33.76v45.9h-25.47V134.08z"/>
		<path d="M2330.68,239.5h-3.56c-3.18,0-5.3-0.87-6.37-2.65c-1.1-1.78-1.63-4.74-1.63-8.91V149.2c0-8.11-1.78-14.97-5.34-20.61
			c-3.56-5.61-8.22-10.19-14.06-13.76c-5.84-3.56-12.39-6.1-19.71-7.69c-7.31-1.59-14.7-2.39-22.21-2.39
			c-8.49,0-16.79,0.8-24.86,2.39c-8.11,1.59-15.35,4.36-21.79,8.3c-6.4,3.94-11.67,9.17-15.84,15.69
			c-4.13,6.52-6.52,14.7-7.09,24.59H2222c0.76-8.3,4.24-14.44,10.35-18.38c6.14-3.94,13.91-5.91,23.38-5.91
			c3.37,0,6.93,0.23,10.69,0.72c3.75,0.49,7.16,1.48,10.19,2.96c3.07,1.48,5.65,3.64,7.73,6.37c2.05,2.77,3.11,6.33,3.11,10.69
			c0,4.93-1.25,8.64-3.71,11.1c-2.46,2.46-5.84,4.28-10.08,5.46c-4.24,1.21-9.13,2.05-14.66,2.54c-5.49,0.49-11.33,1.33-17.47,2.5
			c-7.09,0.8-14.13,1.93-21.15,3.41c-7.01,1.48-13.34,3.9-18.98,7.28c-5.61,3.34-9.89,8-12.88,13.91
			c-2.96,5.91-4.43,13.6-4.43,23.08c0,7.5,1.21,14.1,3.56,19.71c2.39,5.65,5.99,10.27,10.8,13.91c4.85,3.68,10.42,6.44,16.75,8.3
			c6.33,1.89,12.92,2.8,19.82,2.8c9.09,0,18.53-1.48,28.31-4.43c9.78-2.96,18-7.69,24.71-14.21c1.4,6.9,4.36,11.75,8.91,14.51
			c4.51,2.77,10.27,4.13,17.17,4.13c1.36,0,3.07-0.08,5.04-0.27c1.97-0.23,3.94-0.49,5.91-0.91c1.97-0.38,3.9-0.83,5.76-1.33
			c1.89-0.49,3.41-0.95,4.62-1.33v-23.42C2333.63,239.31,2332.04,239.5,2330.68,239.5z M2285.36,210.47c0,5.34-1.29,9.81-3.87,13.49
			c-2.54,3.64-5.76,6.67-9.62,9.02c-3.83,2.39-7.92,4.05-12.28,5.04c-4.36,0.98-8.37,1.48-12.13,1.48c-2.99,0-6.29-0.3-9.93-0.87
			c-3.68-0.61-7.01-1.63-10.08-3.11c-3.07-1.48-5.68-3.52-7.84-6.1c-2.16-2.54-3.26-5.72-3.26-9.47c0-4.32,0.76-8.03,2.24-11.1
			c1.48-3.03,3.49-5.53,6.06-7.39c2.58-1.89,5.53-3.37,8.87-4.43c3.37-1.1,6.82-1.93,10.38-2.54c7.5-1.36,15.01-2.43,22.51-3.11
			c7.5-0.68,13.79-2.69,18.95-6.06V210.47z"/>
		<path d="M2166.6,152.14v109.86h-24.58l-4.44-26.95c-10.07,19.54-37.9,31.98-63.96,31.39c-57.75-1.18-101.28-38.2-101.28-109.57
			c0-59.82,41.16-108.98,102.76-108.98c44.42,0,84.69,24.28,89.14,71.37h-35.54c-2.07-26.65-26.95-42.35-53.6-42.35
			c-42.94,0-66.93,41.16-66.93,79.96c0,40.27,19.25,80.25,66.93,80.25c37.9,0,57.75-21.91,60.11-57.45h-60.11v-27.54H2166.6z"/>
		<g>
			<path d="M887.25,103.52c-46.65,0-83.7,37.4-83.7,88.37c0,44.2,32.42,79.43,77.53,79.43c49.74,0,85.28-37.4,85.28-88.37
				C966.36,136.3,933.9,103.52,887.25,103.52z M925.28,243.21c-9.29,9.25-20.72,16.37-35.54,16.37c-37.4,0-63.02-32.46-63.02-74.49
				c0-23.49,5.85-40.76,18.82-53.73c8.97-8.98,22.89-16.09,39.26-16.09c32.74,0,58.08,32.46,58.08,74.49
				C942.88,213.24,938.25,230.2,925.28,243.21z"/>
			<path d="M1907.2,219.72c-13.92,21.31-34.63,35.23-58.12,35.23c-16.05,0-31.51-5.26-41.99-15.46
				c-12.69-12.69-20.72-33.69-20.72-56.54v-9.61h99.48c12.38,0,19.18-9.25,19.18-23.17c0-25.3-26.57-46.65-56.86-46.65
				c-49.42,0-82.52,39.58-82.52,90.86c0,44.16,32.46,76.94,72,76.94c34.91,0,58.08-13.92,76.94-46.65L1907.2,219.72z
				 M1842.91,113.13c23.17,0,38.94,16.05,38.94,37.05c0,11.15-2.49,11.43-9.29,11.43h-83.7
				C1793.81,131.63,1815.12,113.13,1842.91,113.13z"/>
			<path d="M1201.49,117.44h2.16v-8.96h-62.1v8.96h2.16c9.27,0,15.45,0.93,17.61,4.02c2.78,4.02,2.16,12.05-1.54,24.1l-27.81,90.53
				l-39.86-102.27c-1.85-4.94-3.4-8.96-0.93-12.36s10.2-4.02,19.77-4.02h4.33v-8.96h-69.83v8.96h2.47
				c11.43,0,14.21,0.31,25.95,30.59l-32.44,88.06l-38.62-99.8c-2.47-6.18-2.78-12.67-0.31-15.14c3.4-3.4,12.67-3.71,20.08-3.71h2.16
				v-8.96h-67.67v8.96h2.47c11.43,0,16.99,4.63,23.17,21.32l46.96,127.61h11.74l39.24-104.74c4.63,11.74,32.13,81.57,42.33,104.74
				h11.43l36.77-116.17C1180.17,122.07,1184.8,117.44,1201.49,117.44z"/>
			<path d="M1678.55,241.04c-18.86,2.17-38.31,5.57-41.71-2.77c-4.35-10.83,8.66-18.86,20.36-22.89c7.12,2.17,16.41,4.35,25.98,4.35
				c37.09,0,62.39-25.34,62.39-60.26c0-20.72-7.39-37.09-22.85-46.34c3.72,0.91,11.15,1.54,13.6,1.82c7.12,0.63,12.38,0.63,17,0
				c4.63-0.59,9.25-4.94,9.25-12.02c0-4.67-1.86-6.21-3.99-6.48c-4.67-0.63-13.01,0.59-21.94,2.45
				c-13.92,2.77-35.23,4.63-53.45,4.63c-37.4,0-63.02,23.49-63.02,58.08c0,18.86,6.8,35.23,23.17,46.65
				c-13.92,7.12-28.43,16.41-27.83,30.29c0.63,13.92,11.47,18.86,25.34,21.03c-13.88,6.8-29.97,18.54-29.97,39.54
				c0,25.34,28.11,44.2,67.69,44.2c22.85,0,48.79-9.29,64.88-25.66c11.74-11.74,18.54-27.79,18.54-44.2
				c0-9.57-4.67-16.96-9.61-21.63C1736.63,237.64,1706.35,238.54,1678.55,241.04z M1643.01,161.6c0-22.85,9.88-48.47,40.17-48.47
				c27.79,0,39.54,23.17,39.54,46.34c0,30.29-16.37,48.79-39.54,48.79C1657.2,208.26,1643.01,191.89,1643.01,161.6z M1743.2,288.28
				c-1.23,21.07-25.46,42.46-62.27,42.46c-32.26,0-50.96-16.37-50.96-33.05c0-21.39,20.88-33.33,30.09-38.08
				c4.59,0,13.8-1.58,20.88-2.21c23.01-2.17,45.11-2.81,55.55,7.87C1741.06,270.02,1743.83,278.52,1743.2,288.28z"/>
			<path d="M1597.58,257.4c-22.85,0-22.85-4.94-22.85-25.94V17.65h-16.37v2.45c0,11.47-23.17,13.92-32.46,13.92h-2.13v8.98h30.25
				v74.45c-14.19-11.43-30.25-13.92-46.65-13.92c-46.02,0-79.39,39.58-79.39,83.74c0,58.4,31.83,84.06,67.65,84.06
				c23.49,0,44.2-9.61,58.4-28.11v28.11l46.06-4.94v-8.98H1597.58z M1554.01,224.67c-12.02,20.99-30.25,32.74-48.79,32.74
				c-32.78,0-55.95-28.11-55.95-70.14c0-44.16,18.86-74.13,55.95-74.13c20.68,0,36.77,11.74,48.79,34.6V224.67z"/>
			<path d="M1409.42,219.72c-13.92,21.31-34.6,35.23-58.08,35.23c-16.05,0-31.51-5.26-42.03-15.46
				c-12.65-12.69-20.68-33.69-20.68-56.54v-9.61h99.48c12.34,0,19.14-9.25,19.14-23.17c0-25.3-26.57-46.65-56.82-46.65
				c-49.46,0-82.52,39.58-82.52,90.86c0,44.16,32.46,76.94,72,76.94c34.91,0,58.08-13.92,76.94-46.65L1409.42,219.72z
				 M1345.17,113.13c23.17,0,38.9,16.05,38.9,37.05c0,11.15-2.45,11.43-9.25,11.43h-83.74
				C1296.03,131.63,1317.34,113.13,1345.17,113.13z"/>
			<path d="M1241.03,241.03V17.64h-18.23v2.47c0,11.43-21.01,13.9-30.28,13.9h-2.47v8.96h30.28v198.05
				c0,11.43-6.8,16.38-27.81,16.38h-2.47v8.96h81.26v-8.96h-2.47C1245.36,257.4,1241.03,252.46,1241.03,241.03z"/>
			<path d="M784.37,249.99c-2.47-2.16-4.94-6.8-4.94-13.9v-74.46c0-20.7-2.16-36.77-13.9-46.35c-6.8-6.8-18.54-11.74-34.61-11.74
				c-21.01,0-37.39,7.11-53.76,25.64v-20.7h-18.54v2.16c0,14.21-23.17,14.21-32.44,14.21h-2.16v11.43h32.44v99.8
				c0,13.9-6.8,21.32-23.48,21.32c-22.86,0-34.61-14.21-71.99-60.56l-46.04-62.72l34.61-32.75c35.84-33.68,47.58-44.18,80.02-44.18
				h2.16v-9.27h-84.35v9.27h2.47c4.63,0,10.2,1.54,11.43,4.63c4.63,12.36-77.55,83.11-95.47,97.64V78.2
				c0-16.38,4.33-21.01,27.81-21.01h2.16v-9.27h-80.95v9.27h2.47c22.86,0,27.81,4.63,27.81,21.01v157.89
				c0,16.38-4.94,21.32-27.81,21.32h-2.47v8.96h80.95v-8.96h-2.16c-23.48,0-27.81-4.94-27.81-21.32v-59.32l32.13-27.5l90.84,117.1
				h118.65v-8.96h-2.47c-22.86,0-27.81-4.94-27.81-21.32v-90.53c18.85-23.17,35.22-28.12,49.13-28.12c20.7,0,32.44,13.9,32.44,44.18
				v74.46c0,16.38-7.11,21.32-27.81,21.32h-2.47v8.96h81.26v-8.96h-2.16C795.8,257.4,789.01,254.93,784.37,249.99z"/>
		</g>
	</g>
</g>
</svg>
