<?xml version="1.0" encoding="utf-8"?>
<!-- Generator: Adobe Illustrator 26.3.1, SVG Export Plug-In . SVG Version: 6.00 Build 0)  -->
<svg version="1.1" id="Layer_1" xmlns="http://www.w3.org/2000/svg" x="0px"
	 y="0px"
	 viewBox="0 0 1167.8 360.96" style="enable-background:new 0 0 1167.8 360.96;" xml:space="preserve">
<style type="text/css">
	.st0{fill:#EDEDEB;}
	.st1{fill:#DD2638;}
	.st2{fill:#001B72;}
</style>
    <path d="M641.45,89.85c-21.48,0-38.56,17.22-38.56,40.69c0,20.35,14.94,36.57,35.71,36.57c22.91,0,39.27-17.22,39.27-40.69
	C677.88,104.93,662.94,89.85,641.45,89.85z M667.06,129.54c0,10.81-2.13,18.64-8.11,24.62c-4.27,4.27-9.53,7.54-16.36,7.54
	c-17.22,0-29.03-14.94-29.03-34.29c0-10.81,2.7-18.78,8.68-24.76c4.13-4.13,10.53-7.4,18.07-7.4
	C655.4,95.25,667.06,110.19,667.06,129.54z M1114.55,145.62l-3.41-2.28c-6.4,9.82-15.94,16.22-26.75,16.22
	c-7.4,0-14.51-2.42-19.35-7.11c-5.83-5.83-9.53-15.51-9.53-26.04c0-2.28,0-3.41,0-4.41h45.82c5.69,0,8.82-4.27,8.82-10.67
	c0-11.67-12.24-21.48-26.18-21.48c-22.77,0-37.99,18.21-37.99,41.83c0,20.35,14.94,35.43,33.15,35.43
	C1095.19,167.11,1105.87,160.7,1114.55,145.62z M1099.46,111.33c0,5.12-1.14,5.26-4.27,5.26h-38.56
	c2.28-13.8,12.09-22.34,24.9-22.34C1092.21,94.26,1099.46,101.66,1099.46,111.33z M826.7,229.99v52.79h-11.81l-2.13-12.95
	c-4.84,9.39-18.21,15.37-30.73,15.08c-27.75-0.57-48.66-18.35-48.66-52.64c0-28.74,19.78-52.36,49.37-52.36
	c21.34,0,40.69,11.67,42.83,34.29h-17.07c-1-12.81-12.95-20.35-25.75-20.35c-20.63,0-32.16,19.78-32.16,38.42
	c0,19.35,9.25,38.56,32.16,38.56c18.21,0,27.75-10.53,28.88-27.6h-28.88v-13.23H826.7z M786.16,96.25h1v-4.13h-28.6v4.13h1
	c4.27,0,7.11,0.43,8.11,1.85c1.28,1.85,1,5.55-0.71,11.1l-12.81,41.69l-18.35-47.1c-0.85-2.28-1.57-4.13-0.43-5.69
	c1.14-1.57,4.7-1.85,9.11-1.85h1.99v-4.13H714.3v4.13h1.14c5.26,0,6.55,0.14,11.95,14.09l-14.94,40.55l-17.79-45.96
	c-1.14-2.85-1.28-5.83-0.14-6.97c1.57-1.57,5.83-1.71,9.25-1.71h1v-4.13h-31.16v4.13h1.14c5.26,0,7.83,2.13,10.67,9.82l21.63,58.76
	h5.41l18.07-48.23c2.13,5.41,14.8,37.56,19.49,48.23h5.26l16.93-53.5C776.34,98.38,778.47,96.25,786.16,96.25z M259.99,167.11
	c9.53,0,15.79-2.28,21.2-12.09l50.37-91.92H220.72L163.8,167.11H259.99z M1093.48,246.78c0,3.23-0.36,6.38-1.07,9.46
	s-1.9,5.83-3.56,8.25c-1.66,2.42-3.77,4.39-6.33,5.9c-2.56,1.52-5.69,2.28-9.39,2.28c-3.32,0-6.24-0.66-8.75-1.99
	c-2.51-1.33-4.67-3.13-6.47-5.41c-1.8-2.28-3.15-5-4.06-8.18c-0.9-3.18-1.35-6.62-1.35-10.32c0-7.87,1.73-14.18,5.19-18.92
	c3.46-4.74,8.61-7.11,15.44-7.11c3.32,0,6.26,0.74,8.82,2.21c2.56,1.47,4.7,3.41,6.4,5.83c1.71,2.42,2.99,5.19,3.84,8.32
	C1093.06,240.24,1093.48,243.46,1093.48,246.78z M1036.85,310.67h16.22v-36.71h0.28c1.23,1.99,2.77,3.72,4.62,5.19
	c1.85,1.47,3.87,2.68,6.05,3.63c2.18,0.95,4.46,1.64,6.83,2.06s4.74,0.64,7.11,0.64c5.41,0,10.1-1.07,14.09-3.2
	c3.98-2.13,7.28-4.98,9.89-8.54c2.61-3.56,4.55-7.66,5.83-12.31c1.28-4.65,1.92-9.44,1.92-14.37c0-5.41-0.71-10.48-2.13-15.22
	c-1.42-4.74-3.56-8.89-6.4-12.45c-2.85-3.56-6.43-6.36-10.74-8.39c-4.32-2.04-9.37-3.06-15.15-3.06c-4.74,0-9.15,0.92-13.23,2.77
	s-7.26,4.91-9.53,9.18h-0.28v-9.96h-15.37V310.67z M1027.46,209.22h-16.22v42.69c0,2.85-0.31,5.5-0.92,7.97
	c-0.62,2.47-1.64,4.58-3.06,6.33c-1.42,1.75-3.27,3.15-5.55,4.2s-5.12,1.57-8.54,1.57c-4.46,0-7.92-1.33-10.39-3.98
	c-2.47-2.66-3.7-7.21-3.7-13.66v-45.1h-16.22v46.67c0,9.68,2.16,16.91,6.47,21.7c4.32,4.79,11.31,7.19,20.99,7.19
	c4.08,0,8.09-1.11,12.02-3.34c3.94-2.23,6.9-5.19,8.89-8.89h0.28v10.24h15.94V209.22z M918.76,271.97c-3.6,0-6.73-0.76-9.39-2.28
	s-4.84-3.51-6.55-5.98c-1.71-2.47-2.96-5.24-3.77-8.32c-0.81-3.08-1.21-6.24-1.21-9.46c0-3.13,0.4-6.26,1.21-9.39
	c0.81-3.13,2.06-5.9,3.77-8.32c1.71-2.42,3.89-4.39,6.55-5.9c2.66-1.52,5.79-2.28,9.39-2.28c3.6,0,6.73,0.76,9.39,2.28
	c2.66,1.52,4.84,3.49,6.55,5.9c1.71,2.42,2.96,5.19,3.77,8.32c0.81,3.13,1.21,6.26,1.21,9.39c0,3.23-0.4,6.38-1.21,9.46
	c-0.81,3.08-2.06,5.86-3.77,8.32c-1.71,2.47-3.89,4.46-6.55,5.98S922.36,271.97,918.76,271.97z M918.76,284.77
	c5.88,0,11.12-0.97,15.72-2.92s8.49-4.62,11.67-8.04s5.6-7.49,7.26-12.24c1.66-4.74,2.49-9.96,2.49-15.65
	c0-5.6-0.83-10.77-2.49-15.51c-1.66-4.74-4.08-8.82-7.26-12.24c-3.18-3.41-7.07-6.09-11.67-8.04c-4.6-1.94-9.84-2.92-15.72-2.92
	c-5.88,0-11.12,0.97-15.72,2.92c-4.6,1.94-8.49,4.62-11.67,8.04c-3.18,3.41-5.6,7.49-7.26,12.24c-1.66,4.74-2.49,9.91-2.49,15.51
	c0,5.69,0.83,10.91,2.49,15.65c1.66,4.74,4.08,8.82,7.26,12.24s7.07,6.09,11.67,8.04S912.88,284.77,918.76,284.77z M836.66,282.78
	h16.22v-35c0-4.08,0.52-7.68,1.57-10.81c1.04-3.13,2.47-5.76,4.27-7.9c1.8-2.13,3.91-3.75,6.33-4.84c2.42-1.09,5-1.64,7.75-1.64
	c1.14,0,2.3,0.07,3.49,0.21s2.35,0.31,3.49,0.5v-15.65c-0.76-0.09-1.49-0.19-2.21-0.28c-0.71-0.09-2.02-0.14-3.91-0.14
	c-2.47,0-4.89,0.47-7.26,1.42c-2.37,0.95-4.53,2.21-6.47,3.77c-1.94,1.57-3.6,3.3-4.98,5.19c-1.38,1.9-2.3,3.84-2.77,5.83h-0.28
	v-14.23h-15.22V282.78z M708.89,250.2c0.66-5.5,0.31-10.84-1.07-16.01c-1.38-5.17-3.58-9.75-6.62-13.73
	c-3.04-3.98-6.85-7.19-11.45-9.6c-4.6-2.42-9.79-3.63-15.58-3.63c-5.5,0-10.43,1.04-14.8,3.13s-8.09,4.91-11.17,8.47
	c-3.08,3.56-5.45,7.68-7.11,12.38c-1.66,4.7-2.49,9.65-2.49,14.87c0,5.69,0.78,10.91,2.35,15.65s3.89,8.82,6.97,12.24
	s6.85,6.07,11.31,7.97s9.58,2.85,15.37,2.85c3.98,0,7.8-0.55,11.45-1.64s6.95-2.7,9.89-4.84s5.45-4.77,7.54-7.9
	c2.09-3.13,3.56-6.69,4.41-10.67h-15.37c-1.42,4.08-3.58,7.14-6.47,9.18c-2.89,2.04-6.71,3.06-11.45,3.06
	c-3.41,0-6.36-0.59-8.82-1.78s-4.51-2.77-6.12-4.77c-1.61-1.99-2.82-4.32-3.63-6.97c-0.81-2.66-1.21-5.41-1.21-8.25H708.89z
	 M654.82,239.53c0.09-2.75,0.64-5.31,1.64-7.68c1-2.37,2.32-4.43,3.98-6.19c1.66-1.75,3.65-3.13,5.98-4.13s4.91-1.49,7.75-1.49
	c2.75,0,5.24,0.55,7.47,1.64c2.23,1.09,4.13,2.51,5.69,4.27s2.8,3.82,3.7,6.19c0.9,2.37,1.45,4.84,1.64,7.4H654.82z M592.08,221.32
	h12.24v43.4c0,3.04,0.28,5.74,0.85,8.11c0.57,2.37,1.59,4.34,3.06,5.9c1.47,1.57,3.51,2.75,6.12,3.56
	c2.61,0.81,6.05,1.21,10.32,1.21c1.8,0,3.56-0.09,5.26-0.28s3.46-0.38,5.26-0.57v-12.52c-1.14,0.28-2.28,0.45-3.41,0.5
	c-1.14,0.05-2.28,0.07-3.41,0.07c-1.8,0-3.23-0.21-4.27-0.64c-1.04-0.43-1.83-1.07-2.35-1.92c-0.52-0.85-0.85-1.9-1-3.13
	c-0.14-1.23-0.21-2.7-0.21-4.41v-39.27h14.66v-12.09h-14.66v-22.05h-16.22v22.05h-12.24V221.32z M569.45,258.02
	c0,2.56-0.62,4.72-1.85,6.47c-1.23,1.75-2.77,3.2-4.62,4.34s-3.82,1.94-5.9,2.42c-2.09,0.47-4.03,0.71-5.83,0.71
	c-1.42,0-3.01-0.14-4.77-0.43c-1.75-0.28-3.37-0.78-4.84-1.49s-2.73-1.68-3.77-2.92c-1.04-1.23-1.57-2.75-1.57-4.55
	c0-2.09,0.36-3.87,1.07-5.34s1.68-2.66,2.92-3.56c1.23-0.9,2.66-1.61,4.27-2.13c1.61-0.52,3.27-0.92,4.98-1.21
	c3.6-0.66,7.21-1.16,10.81-1.49c3.6-0.33,6.64-1.3,9.11-2.92V258.02z M585.67,228.57c0-3.89-0.85-7.19-2.56-9.89
	s-3.96-4.91-6.76-6.62c-2.8-1.71-5.95-2.94-9.46-3.7c-3.51-0.76-7.07-1.14-10.67-1.14c-4.08,0-8.06,0.38-11.95,1.14
	c-3.89,0.76-7.38,2.09-10.46,3.98s-5.62,4.41-7.61,7.54c-1.99,3.13-3.13,7.07-3.41,11.81h16.22c0.38-3.98,2.04-6.92,4.98-8.82
	c2.94-1.9,6.69-2.85,11.24-2.85c1.61,0,3.32,0.12,5.12,0.36c1.8,0.24,3.44,0.71,4.91,1.42c1.47,0.71,2.7,1.73,3.7,3.06
	s1.49,3.04,1.49,5.12c0,2.37-0.59,4.15-1.78,5.34c-1.19,1.19-2.8,2.06-4.84,2.63c-2.04,0.57-4.39,0.97-7.04,1.21
	c-2.66,0.24-5.45,0.64-8.39,1.21c-3.41,0.38-6.81,0.92-10.17,1.64c-3.37,0.71-6.4,1.87-9.11,3.49c-2.7,1.61-4.77,3.84-6.19,6.69
	c-1.42,2.85-2.13,6.55-2.13,11.1c0,3.6,0.57,6.76,1.71,9.46c1.14,2.7,2.87,4.93,5.19,6.69c2.32,1.75,5,3.08,8.04,3.98
	s6.21,1.35,9.53,1.35c4.36,0,8.89-0.71,13.59-2.13s8.66-3.7,11.88-6.83c0.66,3.32,2.09,5.64,4.27,6.97
	c2.18,1.33,4.93,1.99,8.25,1.99c0.66,0,1.47-0.05,2.42-0.14s1.9-0.24,2.85-0.43s1.87-0.4,2.77-0.64s1.64-0.45,2.21-0.64v-11.24
	c-0.85,0.19-1.61,0.28-2.28,0.28c-0.66,0-1.23,0-1.71,0c-1.52,0-2.54-0.43-3.06-1.28c-0.52-0.85-0.78-2.28-0.78-4.27V228.57z
	 M512.4,229.99v52.79h-11.81l-2.13-12.95c-4.84,9.39-18.21,15.37-30.73,15.08c-27.75-0.57-48.66-18.35-48.66-52.64
	c0-28.74,19.78-52.36,49.37-52.36c21.34,0,40.69,11.67,42.83,34.29h-17.07c-1-12.81-12.95-20.35-25.75-20.35
	c-20.63,0-32.16,19.78-32.16,38.42c0,19.35,9.25,38.56,32.16,38.56c18.21,0,27.75-10.53,28.88-27.6h-28.88v-13.23H512.4z
	 M259.99,178.77H163.8l56.91,104.01h110.84l-50.37-91.92C275.78,181.05,269.52,178.77,259.99,178.77z M53.25,63.1v219.69h95.33V63.1
	H53.25z M1040.27,95.11c2.13-0.28,4.27-2.28,4.27-5.55c0-2.13-0.85-2.85-1.85-2.99c-2.13-0.28-5.98,0.28-10.1,1.14
	c-6.4,1.28-16.22,2.13-24.62,2.13c-17.22,0-29.03,10.81-29.03,26.75c0,8.68,3.13,16.22,10.67,21.48
	c-6.4,3.27-13.09,7.54-12.81,13.94s5.26,8.68,11.67,9.68c-6.4,3.13-13.8,8.54-13.8,18.21c0,11.67,12.95,20.35,31.16,20.35
	c10.53,0,22.48-4.27,29.88-11.81c5.41-5.41,8.54-12.81,8.54-20.35c0-4.41-2.13-7.83-4.41-9.96c-7.26-6.55-21.2-6.12-34.01-4.98
	c-8.68,1-17.64,2.56-19.21-1.28c-1.99-4.98,3.98-8.68,9.39-10.53c3.27,1,7.54,1.99,11.95,1.99c17.07,0,28.74-11.67,28.74-27.75
	c0-9.53-3.41-17.07-10.53-21.34c1.71,0.43,5.12,0.71,6.26,0.85C1035.72,95.39,1038.14,95.39,1040.27,95.11z M983.47,179.26
	c0-9.86,9.61-15.36,13.85-17.54c2.12,0,6.36-0.72,9.61-1.01c10.6-1.01,20.78-1.3,25.58,3.62c2.12,2.17,3.39,6.09,3.11,10.58
	c-0.57,9.71-11.73,19.57-28.69,19.57C992.09,194.48,983.47,186.94,983.47,179.26z M1007.98,94.26c12.81,0,18.21,10.67,18.21,21.34
	c0,13.94-7.54,22.48-18.21,22.48c-11.95,0-18.5-7.54-18.5-21.48C989.48,106.07,994.03,94.26,1007.98,94.26z M958.03,148.75V50.29
	h-7.54v1.14c0,5.26-10.67,6.4-14.94,6.4h-1v4.13h13.94v34.29c-6.55-5.26-13.94-6.4-21.48-6.4c-21.2,0-36.57,18.21-36.57,38.56
	c0,26.89,14.66,38.7,31.16,38.7c10.81,0,20.35-4.41,26.89-12.95v12.95l21.2-2.28v-4.13h-1.14
	C958.03,160.7,958.03,158.43,958.03,148.75z M926.02,160.7c-15.08,0-25.75-12.95-25.75-32.3c0-20.35,8.68-34.15,25.75-34.15
	c9.53,0,16.93,5.41,22.48,15.94v35.43C942.95,155.3,934.56,160.7,926.02,160.7z M885.33,145.62l-3.41-2.28
	c-6.4,9.82-15.94,16.22-26.75,16.22c-7.4,0-14.51-2.42-19.35-7.11c-5.83-5.83-9.53-15.51-9.53-26.04c0-2.28,0-3.41,0-4.41h45.82
	c5.69,0,8.82-4.27,8.82-10.67c0-11.67-12.24-21.48-26.18-21.48c-22.77,0-37.99,18.21-37.99,41.83c0,20.35,14.94,35.43,33.15,35.43
	C865.98,167.11,876.65,160.7,885.33,145.62z M870.24,111.33c0,5.12-1.14,5.26-4.27,5.26h-38.56c2.28-13.8,12.09-22.34,24.9-22.34
	C862.99,94.26,870.24,101.66,870.24,111.33z M804.37,153.16V50.29h-8.39v1.14c0,5.26-9.68,6.4-13.94,6.4h-1.14v4.13h13.94v91.2
	c0,5.26-3.13,7.54-12.81,7.54h-1.14v4.13h37.42v-4.13h-1.14C806.36,160.7,804.37,158.43,804.37,153.16z M594.07,157.29
	c-1.14-1-2.28-3.13-2.28-6.4V116.6c0-9.53-1-16.93-6.4-21.34c-3.13-3.13-8.54-5.41-15.94-5.41c-9.68,0-17.22,3.27-24.76,11.81v-9.53
	h-8.54v1c0,6.55-10.67,6.55-14.94,6.55h-1v5.26h14.94v45.96c0,6.4-3.13,9.82-10.81,9.82c-10.53,0-15.94-6.55-33.15-27.89L470,103.93
	l15.94-15.08c16.5-15.51,21.91-20.35,36.85-20.35h1v-4.27h-38.84v4.27h1.14c2.13,0,4.7,0.71,5.26,2.13
	c2.13,5.69-35.71,38.27-43.97,44.96V78.18c0-7.54,1.99-9.68,12.81-9.68h1v-4.27H423.9v4.27h1.14c10.53,0,12.81,2.13,12.81,9.68
	v72.71c0,7.54-2.28,9.82-12.81,9.82h-1.14v4.13h37.28v-4.13h-1c-10.81,0-12.81-2.28-12.81-9.82v-27.32l14.8-12.66l41.83,53.93h54.64
	v-4.13h-1.14c-10.53,0-12.81-2.28-12.81-9.82V109.2c8.68-10.67,16.22-12.95,22.62-12.95c9.53,0,14.94,6.4,14.94,20.35v34.29
	c0,7.54-3.27,9.82-12.81,9.82h-1.14v4.13h37.42v-4.13h-1C599.34,160.7,596.21,159.56,594.07,157.29z"/>
</svg>
