<?xml version="1.0" encoding="utf-8"?>
<!-- Generator: Adobe Illustrator 26.3.1, SVG Export Plug-In . SVG Version: 6.00 Build 0)  -->
<svg version="1.1" id="Layer_1" xmlns="http://www.w3.org/2000/svg" xmlns:xlink="http://www.w3.org/1999/xlink" x="0px" y="0px"
	 viewBox="0 0 1167.8 360.96" style="enable-background:new 0 0 1167.8 360.96;" xml:space="preserve">
<style type="text/css">
	.st0{fill:#EDEDEB;}
	.st1{fill:#DD2638;}
	.st2{fill:#001B72;}
</style>
<g>
	<g>
		<path class="st0" d="M259.99,167.11c9.53,0,15.79-2.28,21.2-12.09l50.37-91.92H220.72L163.8,167.11H259.99z"/>
		<path class="st0" d="M259.99,178.77H163.8l56.91,104.01h110.84l-50.37-91.92C275.78,181.05,269.52,178.77,259.99,178.77z"/>
		<rect x="53.25" y="63.1" class="st0" width="95.33" height="219.69"/>
	</g>
	<g>
		<path class="st0" d="M641.45,89.85c-21.48,0-38.55,17.21-38.55,40.69c0,20.35,14.94,36.57,35.71,36.57
			c22.91,0,39.27-17.22,39.27-40.7C677.88,104.93,662.94,89.85,641.45,89.85z M658.96,154.16c-4.27,4.27-9.54,7.54-16.37,7.54
			c-17.21,0-29.02-14.94-29.02-34.29c0-10.81,2.7-18.78,8.68-24.76c4.12-4.12,10.53-7.4,18.07-7.4c15.08,0,26.75,14.94,26.75,34.29
			C667.07,140.36,664.93,148.18,658.96,154.16z"/>
		<path class="st0" d="M1111.13,143.34c-6.4,9.82-15.93,16.22-26.75,16.22c-7.4,0-14.51-2.41-19.35-7.11
			c-5.83-5.83-9.53-15.51-9.53-26.04V122h45.81c5.7,0,8.83-4.27,8.83-10.67c0-11.67-12.24-21.48-26.18-21.48
			c-22.77,0-37.99,18.21-37.99,41.83c0,20.34,14.94,35.43,33.15,35.43c16.08,0,26.75-6.41,35.43-21.49L1111.13,143.34z
			 M1081.54,94.26c10.67,0,17.93,7.4,17.93,17.07c0,5.12-1.14,5.27-4.27,5.27h-38.56C1058.91,102.79,1068.73,94.26,1081.54,94.26z"
			/>
		<path class="st0" d="M826.7,229.99v52.79h-11.81l-2.13-12.95c-4.84,9.39-18.21,15.37-30.73,15.08
			c-27.75-0.57-48.66-18.35-48.66-52.64c0-28.74,19.78-52.36,49.37-52.36c21.34,0,40.69,11.67,42.83,34.29h-17.07
			c-1-12.81-12.95-20.35-25.75-20.35c-20.63,0-32.16,19.78-32.16,38.42c0,19.35,9.25,38.56,32.16,38.56
			c18.21,0,27.75-10.53,28.88-27.6h-28.88v-13.23H826.7z"/>
		<path class="st0" d="M786.16,96.25h1v-4.13h-28.6v4.13h1c4.27,0,7.11,0.43,8.11,1.85c1.28,1.85,1,5.55-0.71,11.1l-12.81,41.69
			l-18.35-47.1c-0.85-2.28-1.57-4.13-0.43-5.69c1.14-1.57,4.7-1.85,9.11-1.85h1.99v-4.13H714.3v4.13h1.14
			c5.26,0,6.55,0.14,11.95,14.09l-14.94,40.55l-17.79-45.96c-1.14-2.85-1.28-5.83-0.14-6.97c1.57-1.57,5.83-1.71,9.25-1.71h1v-4.13
			h-31.16v4.13h1.14c5.26,0,7.83,2.13,10.67,9.82l21.63,58.76h5.41l18.07-48.23c2.13,5.41,14.8,37.56,19.49,48.23h5.26l16.93-53.5
			C776.34,98.38,778.47,96.25,786.16,96.25z"/>
		<path class="st0" d="M1107.57,231.84c-1.42-4.74-3.56-8.89-6.4-12.45c-2.85-3.55-6.43-6.35-10.74-8.39
			c-4.32-2.04-9.37-3.06-15.16-3.06c-4.74,0-9.15,0.93-13.23,2.78c-4.08,1.85-7.26,4.9-9.53,9.17h-0.29v-9.96h-15.36v100.74h16.22
			v-36.71h0.28c1.23,1.99,2.78,3.72,4.63,5.19c1.85,1.47,3.86,2.68,6.04,3.63c2.18,0.95,4.46,1.64,6.83,2.07
			c2.37,0.42,4.74,0.64,7.12,0.64c5.4,0,10.1-1.07,14.08-3.21c3.99-2.13,7.28-4.98,9.89-8.53c2.61-3.56,4.55-7.66,5.83-12.31
			c1.29-4.65,1.93-9.44,1.93-14.37C1109.71,241.66,1108.99,236.59,1107.57,231.84z M1092.42,256.25c-0.71,3.08-1.9,5.83-3.56,8.25
			c-1.66,2.42-3.77,4.39-6.33,5.9c-2.56,1.52-5.69,2.28-9.39,2.28c-3.32,0-6.24-0.66-8.75-1.99c-2.52-1.33-4.67-3.13-6.48-5.41
			c-1.8-2.28-3.15-5-4.05-8.18c-0.9-3.18-1.35-6.62-1.35-10.32c0-7.87,1.73-14.18,5.19-18.92c3.46-4.74,8.61-7.11,15.44-7.11
			c3.32,0,6.26,0.73,8.82,2.2c2.56,1.47,4.7,3.42,6.4,5.84c1.71,2.41,2.99,5.19,3.84,8.32c0.86,3.13,1.29,6.35,1.29,9.67
			C1093.49,250.01,1093.13,253.16,1092.42,256.25z"/>
		<path class="st0" d="M1027.46,209.22h-16.22v42.69c0,2.85-0.31,5.5-0.92,7.97c-0.62,2.47-1.64,4.58-3.06,6.33
			c-1.42,1.75-3.27,3.15-5.55,4.2s-5.12,1.57-8.54,1.57c-4.46,0-7.92-1.33-10.39-3.98c-2.47-2.66-3.7-7.21-3.7-13.66v-45.1h-16.22
			v46.67c0,9.68,2.16,16.91,6.47,21.7c4.32,4.79,11.31,7.19,20.99,7.19c4.08,0,8.09-1.11,12.02-3.34c3.94-2.23,6.9-5.19,8.89-8.89
			h0.28v10.24h15.94V209.22z"/>
		<path class="st0" d="M953.41,230.42c-1.66-4.74-4.08-8.82-7.26-12.23c-3.18-3.42-7.07-6.1-11.67-8.04
			c-4.6-1.95-9.84-2.92-15.72-2.92c-5.88,0-11.12,0.97-15.72,2.92c-4.6,1.94-8.49,4.62-11.67,8.04c-3.18,3.41-5.59,7.49-7.25,12.23
			c-1.66,4.74-2.49,9.91-2.49,15.51c0,5.69,0.83,10.91,2.49,15.65c1.66,4.74,4.07,8.82,7.25,12.24c3.18,3.41,7.07,6.09,11.67,8.04
			c4.6,1.94,9.84,2.91,15.72,2.91c5.88,0,11.12-0.97,15.72-2.91c4.6-1.95,8.49-4.63,11.67-8.04c3.18-3.42,5.6-7.5,7.26-12.24
			c1.66-4.74,2.49-9.96,2.49-15.65C955.9,240.33,955.07,235.16,953.41,230.42z M938.47,255.39c-0.81,3.09-2.07,5.86-3.77,8.33
			c-1.71,2.46-3.89,4.45-6.55,5.97c-2.65,1.52-5.78,2.28-9.39,2.28c-3.6,0-6.73-0.76-9.39-2.28c-2.66-1.52-4.84-3.51-6.54-5.97
			c-1.71-2.47-2.97-5.24-3.78-8.33c-0.8-3.08-1.2-6.23-1.2-9.46c0-3.13,0.4-6.26,1.2-9.39c0.81-3.13,2.07-5.9,3.78-8.32
			c1.7-2.42,3.88-4.39,6.54-5.91c2.66-1.52,5.79-2.27,9.39-2.27c3.61,0,6.74,0.75,9.39,2.27c2.66,1.52,4.84,3.49,6.55,5.91
			c1.7,2.42,2.96,5.19,3.77,8.32c0.8,3.13,1.21,6.26,1.21,9.39C939.68,249.16,939.27,252.31,938.47,255.39z"/>
		<path class="st0" d="M836.66,282.78h16.22v-35c0-4.08,0.52-7.68,1.57-10.81c1.04-3.13,2.47-5.76,4.27-7.9
			c1.8-2.13,3.91-3.75,6.33-4.84c2.42-1.09,5-1.64,7.75-1.64c1.14,0,2.3,0.07,3.49,0.21s2.35,0.31,3.49,0.5v-15.65
			c-0.76-0.09-1.49-0.19-2.21-0.28c-0.71-0.09-2.02-0.14-3.91-0.14c-2.47,0-4.89,0.47-7.26,1.42c-2.37,0.95-4.53,2.21-6.47,3.77
			c-1.94,1.57-3.6,3.3-4.98,5.19c-1.38,1.9-2.3,3.84-2.77,5.83h-0.28v-14.23h-15.22V282.78z"/>
		<path class="st0" d="M707.83,234.19c-1.38-5.17-3.58-9.74-6.62-13.73c-3.04-3.98-6.85-7.18-11.45-9.6
			c-4.6-2.42-9.8-3.63-15.58-3.63c-5.51,0-10.44,1.04-14.8,3.13c-4.36,2.09-8.09,4.91-11.17,8.47c-3.08,3.55-5.45,7.68-7.11,12.37
			c-1.66,4.7-2.49,9.66-2.49,14.87c0,5.69,0.78,10.91,2.34,15.65c1.57,4.75,3.89,8.83,6.97,12.24c3.09,3.42,6.86,6.07,11.32,7.97
			c4.45,1.9,9.58,2.84,15.36,2.84c3.99,0,7.8-0.54,11.46-1.63c3.65-1.09,6.94-2.71,9.89-4.84c2.94-2.13,5.45-4.77,7.54-7.9
			c2.08-3.13,3.55-6.68,4.41-10.67h-15.37c-1.42,4.08-3.58,7.14-6.47,9.18c-2.9,2.04-6.71,3.06-11.46,3.06
			c-3.41,0-6.35-0.59-8.82-1.78c-2.46-1.19-4.5-2.77-6.12-4.77c-1.61-1.99-2.82-4.31-3.63-6.97c-0.8-2.65-1.2-5.41-1.2-8.25h54.06
			C709.56,244.7,709.2,239.36,707.83,234.19z M654.83,239.53c0.09-2.75,0.64-5.31,1.63-7.69c1-2.37,2.33-4.43,3.99-6.18
			c1.66-1.76,3.65-3.13,5.97-4.13c2.33-1,4.91-1.49,7.76-1.49c2.75,0,5.24,0.54,7.47,1.63c2.22,1.09,4.12,2.52,5.69,4.27
			c1.56,1.75,2.8,3.82,3.7,6.19s1.44,4.84,1.63,7.4H654.83z"/>
		<path class="st0" d="M592.08,221.32h12.24v43.4c0,3.04,0.28,5.74,0.85,8.11c0.57,2.37,1.59,4.34,3.06,5.9
			c1.47,1.57,3.51,2.75,6.12,3.56c2.61,0.81,6.05,1.21,10.32,1.21c1.8,0,3.56-0.09,5.26-0.28s3.46-0.38,5.26-0.57v-12.52
			c-1.14,0.28-2.28,0.45-3.41,0.5c-1.14,0.05-2.28,0.07-3.41,0.07c-1.8,0-3.23-0.21-4.27-0.64c-1.04-0.43-1.83-1.07-2.35-1.92
			c-0.52-0.85-0.85-1.9-1-3.13c-0.14-1.23-0.21-2.7-0.21-4.41v-39.27h14.66v-12.09h-14.66v-22.05h-16.22v22.05h-12.24V221.32z"/>
		<path class="st0" d="M591.22,271.97h-1.7c-1.52,0-2.54-0.43-3.06-1.28c-0.52-0.86-0.78-2.28-0.78-4.27v-37.85
			c0-3.89-0.86-7.18-2.57-9.89c-1.7-2.7-3.96-4.91-6.75-6.61c-2.8-1.71-5.96-2.94-9.47-3.7c-3.51-0.76-7.06-1.14-10.67-1.14
			c-4.08,0-8.06,0.38-11.95,1.14c-3.89,0.76-7.37,2.08-10.46,3.98c-3.08,1.9-5.62,4.41-7.61,7.54c-1.99,3.13-3.13,7.07-3.41,11.81
			h16.22c0.38-3.98,2.04-6.92,4.98-8.82c2.94-1.9,6.68-2.84,11.24-2.84c1.61,0,3.32,0.11,5.12,0.35s3.44,0.71,4.91,1.42
			c1.47,0.72,2.7,1.73,3.7,3.06c0.99,1.33,1.49,3.04,1.49,5.12c0,2.38-0.59,4.15-1.78,5.34c-1.18,1.19-2.8,2.06-4.83,2.63
			c-2.04,0.57-4.39,0.97-7.05,1.21c-2.65,0.24-5.45,0.64-8.39,1.21c-3.42,0.38-6.81,0.93-10.18,1.64c-3.36,0.71-6.4,1.87-9.1,3.48
			c-2.71,1.62-4.77,3.85-6.19,6.69c-1.42,2.85-2.14,6.55-2.14,11.1c0,3.6,0.57,6.76,1.71,9.46c1.14,2.7,2.87,4.93,5.2,6.69
			c2.32,1.75,5,3.08,8.03,3.98c3.04,0.9,6.22,1.35,9.54,1.35c4.36,0,8.89-0.71,13.59-2.13c4.69-1.42,8.65-3.7,11.88-6.83
			c0.66,3.32,2.08,5.64,4.26,6.97c2.19,1.33,4.94,1.99,8.26,1.99c0.66,0,1.47-0.04,2.42-0.14c0.94-0.09,1.89-0.24,2.84-0.43
			c0.95-0.18,1.87-0.4,2.78-0.64c0.9-0.23,1.63-0.45,2.2-0.64v-11.24C592.65,271.87,591.89,271.97,591.22,271.97z M569.46,258.02
			c0,2.57-0.62,4.72-1.85,6.48c-1.24,1.75-2.78,3.2-4.63,4.34s-3.82,1.94-5.9,2.42c-2.09,0.47-4.03,0.71-5.84,0.71
			c-1.42,0-3.01-0.14-4.76-0.43c-1.76-0.28-3.37-0.78-4.84-1.49c-1.47-0.71-2.73-1.69-3.77-2.92c-1.04-1.23-1.57-2.75-1.57-4.55
			c0-2.09,0.36-3.87,1.07-5.34c0.71-1.47,1.68-2.65,2.92-3.55c1.23-0.91,2.65-1.62,4.27-2.14c1.61-0.52,3.27-0.92,4.98-1.21
			c3.6-0.66,7.2-1.16,10.81-1.49c3.6-0.33,6.64-1.31,9.11-2.92V258.02z"/>
		<path class="st0" d="M512.4,229.99v52.79h-11.81l-2.13-12.95c-4.84,9.39-18.21,15.37-30.73,15.08
			c-27.75-0.57-48.66-18.35-48.66-52.64c0-28.74,19.78-52.36,49.37-52.36c21.34,0,40.69,11.67,42.83,34.29h-17.07
			c-1-12.81-12.95-20.35-25.75-20.35c-20.63,0-32.16,19.78-32.16,38.42c0,19.35,9.25,38.56,32.16,38.56
			c18.21,0,27.75-10.53,28.88-27.6h-28.88v-13.23H512.4z"/>
		<path class="st0" d="M1005.84,153.16c-8.68,1-17.64,2.56-19.21-1.28c-1.99-4.98,3.99-8.68,9.4-10.53c3.27,1,7.54,1.99,11.95,1.99
			c17.07,0,28.74-11.66,28.74-27.74c0-9.53-3.42-17.07-10.53-21.34c1.71,0.42,5.12,0.71,6.26,0.85c3.27,0.28,5.69,0.28,7.83,0
			c2.13-0.28,4.26-2.28,4.26-5.55c0-2.13-0.85-2.84-1.85-2.99c-2.13-0.28-5.97,0.29-10.1,1.14c-6.4,1.28-16.22,2.14-24.61,2.14
			c-17.22,0-29.03,10.81-29.03,26.75c0,8.67,3.13,16.22,10.67,21.48c-6.4,3.27-13.09,7.54-12.8,13.94
			c0.28,6.41,5.26,8.68,11.66,9.68c-6.4,3.13-13.8,8.54-13.8,18.21c0,11.67,12.95,20.35,31.16,20.35c10.53,0,22.48-4.27,29.88-11.81
			c5.41-5.41,8.54-12.81,8.54-20.35c0-4.41-2.14-7.82-4.41-9.96C1032.59,151.6,1018.65,152.02,1005.84,153.16z M989.48,116.6
			c0-10.53,4.55-22.34,18.5-22.34c12.8,0,18.21,10.67,18.21,21.34c0,13.94-7.54,22.48-18.21,22.48
			C996.03,138.08,989.48,130.54,989.48,116.6z M1035.63,174.91c-0.57,9.71-11.74,19.57-28.7,19.57c-14.84,0-23.46-7.54-23.46-15.22
			c0-9.85,9.61-15.36,13.85-17.54c2.12,0,6.36-0.72,9.61-1.01c10.6-1.01,20.78-1.3,25.59,3.62
			C1034.64,166.51,1035.91,170.42,1035.63,174.91z"/>
		<path class="st0" d="M968.56,160.7c-10.52,0-10.52-2.27-10.52-11.95V50.29h-7.55v1.14c0,5.26-10.67,6.4-14.94,6.4h-0.99v4.13
			h13.94v34.29c-6.54-5.27-13.94-6.4-21.48-6.4c-21.2,0-36.57,18.21-36.57,38.55c0,26.9,14.66,38.71,31.16,38.71
			c10.81,0,20.35-4.42,26.89-12.95v12.95l21.2-2.28v-4.13H968.56z M948.5,145.62c-5.55,9.68-13.94,15.08-22.48,15.08
			c-15.08,0-25.75-12.94-25.75-32.3c0-20.34,8.68-34.14,25.75-34.14c9.53,0,16.93,5.4,22.48,15.93V145.62z"/>
		<path class="st0" d="M881.91,143.34c-6.4,9.82-15.93,16.22-26.75,16.22c-7.39,0-14.51-2.41-19.35-7.11
			c-5.83-5.83-9.53-15.51-9.53-26.04V122h45.82c5.69,0,8.82-4.27,8.82-10.67c0-11.67-12.24-21.48-26.18-21.48
			c-22.77,0-37.99,18.21-37.99,41.83c0,20.34,14.94,35.43,33.15,35.43c16.08,0,26.75-6.41,35.43-21.49L881.91,143.34z M852.32,94.26
			c10.67,0,17.93,7.4,17.93,17.07c0,5.12-1.14,5.27-4.27,5.27h-38.56C829.7,102.79,839.51,94.26,852.32,94.26z"/>
		<path class="st0" d="M804.37,153.16V50.29h-8.39v1.14c0,5.26-9.68,6.4-13.94,6.4h-1.14v4.13h13.94v91.2
			c0,5.26-3.13,7.54-12.81,7.54h-1.14v4.13h37.42v-4.13h-1.14C806.36,160.7,804.37,158.43,804.37,153.16z"/>
		<path class="st0" d="M594.07,157.29c-1.14-1-2.28-3.13-2.28-6.4V116.6c0-9.53-1-16.93-6.4-21.34c-3.13-3.13-8.54-5.41-15.94-5.41
			c-9.68,0-17.22,3.27-24.76,11.81v-9.53h-8.54v1c0,6.55-10.67,6.55-14.94,6.55h-1v5.26h14.94v45.96c0,6.4-3.13,9.82-10.81,9.82
			c-10.53,0-15.94-6.55-33.15-27.89L470,103.93l15.94-15.08c16.5-15.51,21.91-20.35,36.85-20.35h1v-4.27h-38.84v4.27h1.14
			c2.13,0,4.7,0.71,5.26,2.13c2.13,5.69-35.71,38.27-43.97,44.96V78.18c0-7.54,1.99-9.68,12.81-9.68h1v-4.27H423.9v4.27h1.14
			c10.53,0,12.81,2.13,12.81,9.68v72.71c0,7.54-2.28,9.82-12.81,9.82h-1.14v4.13h37.28v-4.13h-1c-10.81,0-12.81-2.28-12.81-9.82
			v-27.32l14.8-12.66l41.83,53.93h54.64v-4.13h-1.14c-10.53,0-12.81-2.28-12.81-9.82V109.2c8.68-10.67,16.22-12.95,22.62-12.95
			c9.53,0,14.94,6.4,14.94,20.35v34.29c0,7.54-3.27,9.82-12.81,9.82h-1.14v4.13h37.42v-4.13h-1
			C599.34,160.7,596.21,159.56,594.07,157.29z"/>
	</g>
</g>
</svg>
