<?xml version="1.0" encoding="utf-8"?>
<!-- Generator: Adobe Illustrator 26.3.1, SVG Export Plug-In . SVG Version: 6.00 Build 0)  -->
<svg version="1.1" id="Layer_1" xmlns="http://www.w3.org/2000/svg" x="0px"
	 y="0px"
	 viewBox="0 0 408.17 456.1" style="enable-background:new 0 0 408.17 456.1;" xml:space="preserve">
<style type="text/css">
	.st0{fill:#DD2638;}
	.st1{fill:#EDEDEB;}
	.st2{fill:#001B72;}
</style>
    <g>
	<g>
		<g>
			<g>
				<rect x="65.48" y="8.74" class="st2" width="95.07" height="218.28"/>
                <path class="st2" d="M342.05,8.74H232.43l-55.08,102.63h0.51l-0.51,0.32h99.16c6.21,0,11.95-3.3,15.06-8.67l50.48-93.84
					l-0.55,0.34L342.05,8.74z"/>
                <path class="st2" d="M276.51,124.51h-16.28c-1.07-0.08-2.19-0.12-3.37-0.12h-79.51l0.07,0.12h-0.07l0.1,0.06l54.98,102.45
					h109.63l-50.48-93.84C288.46,127.81,282.72,124.51,276.51,124.51z"/>
			</g>
		</g>
	</g>
        <path d="M132.4,321.07c-12.29,0-22.06,9.84-22.06,23.27c0,11.63,8.54,20.91,20.42,20.91c13.11,0,22.46-9.84,22.46-23.27
		C153.23,329.69,144.69,321.07,132.4,321.07z M142.41,357.85c-2.45,2.45-5.46,4.31-9.36,4.31c-9.84,0-16.6-8.54-16.6-19.61
		c0-6.19,1.54-10.75,4.97-14.16c2.35-2.35,6.02-4.23,10.33-4.23c8.63,0,15.3,8.54,15.3,19.61
		C147.04,349.95,145.82,354.43,142.41,357.85z M401.03,351.66c-3.67,5.61-9.11,9.28-15.3,9.28c-4.24,0-8.3-1.38-11.07-4.07
		c-3.33-3.33-5.46-8.86-5.46-14.89v-2.52h26.21c3.25,0,5.04-2.44,5.04-6.1c0-6.68-7-12.29-14.97-12.29
		c-13.02,0-21.72,10.41-21.72,23.92c0,11.64,8.54,20.26,18.96,20.26c9.2,0,15.3-3.66,20.25-12.29L401.03,351.66z M384.09,323.59
		c6.11,0,10.26,4.24,10.26,9.77c0,2.93-0.65,3.01-2.44,3.01h-22.06C371.16,328.47,376.77,323.59,384.09,323.59z M238.35,401.23
		v30.19h-6.75l-1.22-7.41c-2.77,5.37-10.42,8.79-17.58,8.63c-15.87-0.33-27.83-10.5-27.83-30.11c0-16.44,11.31-29.95,28.24-29.95
		c12.21,0,23.27,6.67,24.49,19.61h-9.77c-0.57-7.32-7.41-11.64-14.73-11.64c-11.8,0-18.39,11.31-18.39,21.97
		c0,11.07,5.29,22.05,18.39,22.05c10.42,0,15.87-6.02,16.52-15.79H213.2v-7.57H238.35z M215.16,324.73h0.57v-2.36h-16.36v2.36h0.57
		c2.44,0,4.07,0.24,4.64,1.06c0.73,1.06,0.57,3.17-0.41,6.35l-7.32,23.84l-10.5-26.94c-0.49-1.3-0.9-2.36-0.24-3.26
		s2.69-1.06,5.21-1.06h1.14v-2.36h-18.39v2.36h0.65c3.01,0,3.74,0.08,6.84,8.06L173,355.98l-10.17-26.29
		c-0.65-1.63-0.73-3.34-0.08-3.99c0.9-0.9,3.34-0.98,5.29-0.98h0.57v-2.36h-17.82v2.36h0.65c3.01,0,4.48,1.22,6.1,5.62l12.37,33.61
		H173l10.34-27.59c1.22,3.09,8.46,21.48,11.15,27.59h3.01l9.68-30.6C209.54,325.95,210.76,324.73,215.16,324.73z M398.99,402.28
		c-0.81-2.72-2.03-5.08-3.66-7.12c-1.64-2.03-3.68-3.63-6.14-4.8s-5.36-1.75-8.67-1.75c-2.71,0-5.23,0.53-7.56,1.58
		c-2.33,1.06-4.15,2.81-5.46,5.26h-0.17v-5.71h-8.79v57.62h9.28v-20.99h0.17c0.71,1.14,1.58,2.13,2.65,2.97
		c1.05,0.84,2.21,1.53,3.46,2.08c1.25,0.54,2.55,0.93,3.91,1.18c1.35,0.24,2.72,0.36,4.07,0.36c3.09,0,5.78-0.61,8.06-1.83
		c2.27-1.22,4.15-2.84,5.65-4.88c1.49-2.03,2.6-4.37,3.33-7.04c0.73-2.66,1.1-5.39,1.1-8.22
		C400.21,407.89,399.8,404.99,398.99,402.28z M390.32,416.24c-0.41,1.76-1.08,3.34-2.03,4.72c-0.95,1.39-2.16,2.51-3.62,3.38
		c-1.47,0.86-3.26,1.3-5.37,1.3c-1.9,0-3.56-0.39-5-1.15c-1.45-0.76-2.68-1.79-3.71-3.09c-1.03-1.3-1.8-2.85-2.32-4.68
		c-0.51-1.81-0.77-3.78-0.77-5.9c0-4.5,0.99-8.1,2.97-10.82c1.98-2.71,4.93-4.07,8.83-4.07c1.91,0,3.58,0.43,5.05,1.27
		c1.46,0.83,2.69,1.95,3.66,3.33c0.98,1.38,1.71,2.97,2.2,4.76c0.49,1.79,0.74,3.63,0.74,5.53
		C390.94,412.67,390.73,414.48,390.32,416.24z M353.17,389.35h-9.28v24.41c0,1.63-0.18,3.15-0.53,4.56
		c-0.35,1.41-0.94,2.62-1.75,3.62c-0.81,1-1.87,1.8-3.17,2.4s-2.93,0.9-4.88,0.9c-2.55,0-4.53-0.76-5.94-2.28
		c-1.41-1.52-2.12-4.12-2.12-7.81v-25.8h-9.28v26.69c0,5.53,1.23,9.67,3.7,12.41c2.47,2.74,6.47,4.11,12,4.11
		c2.33,0,4.62-0.64,6.88-1.91c2.25-1.27,3.95-2.97,5.09-5.09h0.16v5.86h9.11V389.35z M310.81,401.47c-0.95-2.72-2.33-5.05-4.14-7
		c-1.82-1.96-4.05-3.49-6.68-4.6c-2.63-1.11-5.63-1.67-9-1.67c-3.36,0-6.36,0.55-8.99,1.67c-2.63,1.11-4.86,2.64-6.68,4.6
		c-1.82,1.95-3.2,4.28-4.15,7c-0.95,2.71-1.42,5.66-1.42,8.87c0,3.25,0.47,6.24,1.42,8.95c0.96,2.72,2.33,5.05,4.15,7
		c1.81,1.96,4.04,3.49,6.68,4.6c2.62,1.11,5.62,1.67,8.99,1.67c3.36,0,6.36-0.55,9-1.67c2.62-1.11,4.85-2.65,6.68-4.6
		c1.81-1.95,3.2-4.28,4.14-7c0.95-2.71,1.43-5.7,1.43-8.95C312.24,407.13,311.76,404.18,310.81,401.47z M302.28,415.75
		c-0.47,1.77-1.19,3.35-2.17,4.76c-0.97,1.42-2.22,2.55-3.74,3.43c-1.52,0.86-3.31,1.3-5.37,1.3c-2.06,0-3.85-0.44-5.37-1.3
		c-1.51-0.87-2.76-2.01-3.74-3.43c-0.98-1.41-1.7-2.99-2.16-4.76c-0.46-1.76-0.7-3.56-0.7-5.4c0-1.79,0.24-3.58,0.7-5.37
		c0.46-1.79,1.18-3.37,2.16-4.76c0.98-1.39,2.23-2.51,3.74-3.38c1.52-0.86,3.31-1.3,5.37-1.3c2.06,0,3.85,0.44,5.37,1.3
		c1.52,0.87,2.77,2,3.74,3.38c0.98,1.38,1.7,2.97,2.17,4.76c0.46,1.79,0.69,3.58,0.69,5.37
		C302.96,412.18,302.73,413.99,302.28,415.75z M244.04,431.42h9.28V411.4c0-2.33,0.3-4.39,0.9-6.18c0.6-1.79,1.41-3.3,2.44-4.52
		s2.24-2.14,3.62-2.77c1.38-0.62,2.86-0.94,4.44-0.94c0.65,0,1.32,0.04,1.99,0.12c0.68,0.08,1.34,0.18,1.99,0.28v-8.95
		c-0.43-0.05-0.85-0.11-1.26-0.16s-1.15-0.08-2.24-0.08c-1.41,0-2.79,0.27-4.15,0.81c-1.36,0.54-2.59,1.26-3.7,2.16
		c-1.11,0.9-2.06,1.89-2.85,2.97c-0.79,1.09-1.32,2.2-1.59,3.34h-0.16v-8.14h-8.71V431.42z M170.36,403.62
		c-0.79-2.96-2.05-5.57-3.78-7.85c-1.74-2.28-3.93-4.11-6.55-5.5c-2.63-1.39-5.6-2.07-8.91-2.07c-3.14,0-5.97,0.59-8.47,1.79
		c-2.5,1.2-4.62,2.81-6.38,4.84c-1.77,2.03-3.12,4.39-4.07,7.08c-0.95,2.69-1.43,5.52-1.43,8.5c0,3.26,0.45,6.25,1.34,8.96
		c0.9,2.72,2.23,5.05,3.99,7c1.76,1.96,3.92,3.48,6.47,4.56c2.55,1.08,5.48,1.62,8.79,1.62c2.28,0,4.47-0.31,6.55-0.94
		c2.09-0.62,3.98-1.54,5.65-2.77c1.69-1.22,3.12-2.72,4.32-4.51c1.19-1.79,2.03-3.83,2.52-6.1h-8.79c-0.81,2.33-2.05,4.08-3.71,5.25
		c-1.66,1.17-3.83,1.75-6.55,1.75c-1.95,0-3.63-0.34-5.04-1.02c-1.42-0.68-2.58-1.58-3.5-2.73c-0.93-1.14-1.61-2.47-2.08-3.99
		c-0.46-1.52-0.69-3.09-0.69-4.72h30.93C171.35,409.63,171.15,406.58,170.36,403.62z M140.04,406.68c0.05-1.57,0.36-3.04,0.94-4.39
		c0.57-1.35,1.33-2.54,2.28-3.54c0.95-1,2.08-1.79,3.42-2.36c1.33-0.56,2.81-0.85,4.44-0.85c1.57,0,3,0.31,4.27,0.94
		c1.28,0.62,2.36,1.44,3.26,2.45c0.9,1,1.59,2.18,2.11,3.54c0.51,1.35,0.82,2.76,0.94,4.23H140.04z M104.15,396.26h7v24.82
		c0,1.74,0.16,3.28,0.49,4.64c0.33,1.36,0.91,2.48,1.75,3.38c0.84,0.9,2.01,1.57,3.5,2.03c1.49,0.46,3.46,0.69,5.9,0.69
		c1.03,0,2.03-0.05,3.01-0.16c0.98-0.11,1.98-0.22,3.01-0.33v-7.16c-0.65,0.16-1.3,0.26-1.95,0.28s-1.3,0.04-1.95,0.04
		c-1.03,0-1.84-0.12-2.44-0.37s-1.04-0.61-1.34-1.1s-0.49-1.09-0.57-1.79c-0.08-0.71-0.12-1.55-0.12-2.52v-22.46h8.38v-6.92h-8.38
		v-12.61h-9.28v12.61h-7V396.26z M103.67,425.23h-0.98c-0.86,0-1.45-0.25-1.75-0.74c-0.3-0.49-0.45-1.3-0.45-2.44v-21.65
		c0-2.22-0.49-4.1-1.47-5.65c-0.97-1.54-2.26-2.81-3.86-3.78c-1.59-0.98-3.41-1.69-5.4-2.11c-2.01-0.44-4.05-0.66-6.11-0.66
		c-2.33,0-4.6,0.22-6.83,0.66c-2.23,0.43-4.22,1.19-5.98,2.27c-1.77,1.09-3.22,2.53-4.35,4.32c-1.15,1.78-1.79,4.04-1.96,6.75h9.28
		c0.22-2.28,1.17-3.96,2.84-5.04c1.69-1.09,3.83-1.63,6.44-1.63c0.92,0,1.9,0.07,2.93,0.21s1.97,0.41,2.81,0.81
		c0.83,0.41,1.54,0.99,2.11,1.75c0.57,0.76,0.85,1.74,0.85,2.93c0,1.36-0.34,2.37-1.02,3.05c-0.68,0.69-1.59,1.19-2.76,1.51
		c-1.17,0.32-2.51,0.55-4.03,0.69c-1.52,0.14-3.12,0.37-4.8,0.7c-1.96,0.22-3.89,0.53-5.82,0.94c-1.93,0.41-3.67,1.07-5.21,1.99
		c-1.55,0.93-2.73,2.2-3.54,3.82c-0.81,1.64-1.22,3.75-1.22,6.35c0,2.06,0.32,3.86,0.97,5.42c0.66,1.54,1.65,2.82,2.98,3.82
		c1.32,1,2.85,1.76,4.59,2.28c1.74,0.51,3.55,0.77,5.46,0.77c2.49,0,5.08-0.41,7.77-1.22s4.95-2.11,6.8-3.91
		c0.37,1.9,1.19,3.23,2.44,3.99c1.25,0.76,2.82,1.14,4.72,1.14c0.39,0,0.84-0.03,1.38-0.08c0.54-0.05,1.08-0.14,1.62-0.24
		c0.55-0.11,1.07-0.23,1.59-0.36c0.51-0.14,0.94-0.26,1.26-0.37v-6.43C104.48,425.17,104.04,425.23,103.67,425.23z M91.21,417.26
		c0,1.47-0.35,2.7-1.05,3.7c-0.71,1.01-1.59,1.83-2.65,2.49c-1.06,0.65-2.19,1.11-3.38,1.38c-1.19,0.27-2.3,0.41-3.33,0.41
		c-0.81,0-1.72-0.08-2.73-0.25c-1-0.16-1.93-0.45-2.77-0.85c-0.83-0.41-1.55-0.96-2.16-1.67c-0.59-0.71-0.9-1.57-0.9-2.6
		c0-1.2,0.21-2.21,0.61-3.05c0.41-0.84,0.97-1.52,1.67-2.04c0.71-0.51,1.52-0.92,2.45-1.22c0.92-0.29,1.86-0.53,2.84-0.69
		c2.06-0.39,4.12-0.67,6.19-0.85s3.8-0.75,5.21-1.67V417.26z M58.58,401.23v30.19h-6.75l-1.22-7.41
		c-2.77,5.37-10.42,8.79-17.58,8.63c-15.87-0.33-27.83-10.5-27.83-30.11c0-16.44,11.31-29.95,28.24-29.95
		c12.21,0,23.27,6.67,24.49,19.61h-9.77c-0.57-7.32-7.41-11.64-14.73-11.64c-11.8,0-18.39,11.31-18.39,21.97
		c0,11.07,5.29,22.05,18.39,22.05c10.42,0,15.87-6.02,16.52-15.79H33.43v-7.57H58.58z M340.81,357.27
		c-4.97,0.57-10.09,1.47-10.99-0.73c-1.14-2.84,2.28-4.97,5.37-6.02c1.87,0.57,4.31,1.14,6.83,1.14c9.77,0,16.44-6.68,16.44-15.87
		c0-5.45-1.96-9.76-6.02-12.2c0.97,0.25,2.93,0.41,3.57,0.49c1.87,0.17,3.26,0.17,4.48,0c1.22-0.17,2.45-1.3,2.45-3.18
		c0-1.22-0.49-1.62-1.06-1.71c-1.22-0.16-3.42,0.17-5.78,0.66c-3.66,0.73-9.28,1.22-14.08,1.22c-9.84,0-16.6,6.19-16.6,15.3
		c0,4.97,1.79,9.28,6.1,12.29c-3.66,1.87-7.49,4.31-7.32,7.98c0.16,3.67,3.01,4.97,6.68,5.53c-3.67,1.79-7.89,4.88-7.89,10.42
		c0,6.66,7.4,11.63,17.82,11.63c6.02,0,12.86-2.44,17.09-6.76c3.09-3.08,4.88-7.32,4.88-11.63c0-2.52-1.22-4.48-2.52-5.7
		C356.1,356.38,348.13,356.63,340.81,357.27z M331.44,336.36c0-6.02,2.6-12.78,10.58-12.78c7.33,0,10.42,6.1,10.42,12.2
		c0,7.98-4.32,12.86-10.42,12.86C335.19,348.65,331.44,344.34,331.44,336.36z M357.84,369.72c-0.32,5.55-6.72,11.19-16.41,11.19
		c-8.49,0-13.42-4.31-13.42-8.71c0-5.63,5.5-8.79,7.92-10.03c1.21,0,3.63-0.42,5.5-0.58c6.06-0.58,11.88-0.75,14.63,2.07
		C357.28,364.91,358,367.15,357.84,369.72z M319.49,361.6c-6.03,0-6.03-1.3-6.03-6.84v-56.32h-4.31v0.66c0,3.01-6.1,3.67-8.54,3.67
		h-0.57v2.35h7.98v19.62c-3.75-3.02-7.98-3.67-12.29-3.67c-12.13,0-20.92,10.41-20.92,22.06c0,15.38,8.38,22.13,17.83,22.13
		c6.19,0,11.63-2.52,15.38-7.4v7.4l12.12-1.3v-2.35H319.49z M308.01,352.96c-3.18,5.54-7.98,8.63-12.86,8.63
		c-8.62,0-14.72-7.41-14.72-18.47c0-11.64,4.96-19.54,14.72-19.54c5.46,0,9.68,3.09,12.86,9.11V352.96z M269.92,351.66
		c-3.66,5.61-9.11,9.28-15.3,9.28c-4.23,0-8.3-1.38-11.06-4.07c-3.34-3.33-5.46-8.86-5.46-14.89v-2.52h26.2
		c3.26,0,5.05-2.44,5.05-6.1c0-6.68-7-12.29-14.97-12.29c-13.02,0-21.73,10.41-21.73,23.92c0,11.64,8.55,20.26,18.96,20.26
		c9.2,0,15.3-3.66,20.26-12.29L269.92,351.66z M253,323.59c6.1,0,10.26,4.24,10.26,9.77c0,2.93-0.66,3.01-2.45,3.01h-22.06
		C240.05,328.47,245.68,323.59,253,323.59z M225.57,357.28v-58.84h-4.8v0.65c0,3.01-5.53,3.66-7.98,3.66h-0.65v2.36h7.98v52.16
		c0,3.01-1.79,4.31-7.32,4.31h-0.65v2.36h21.4v-2.36h-0.65C226.71,361.6,225.57,360.29,225.57,357.28z M105.29,359.64
		c-0.65-0.57-1.3-1.79-1.3-3.66v-19.61c0-5.45-0.57-9.68-3.66-12.21c-1.79-1.79-4.88-3.09-9.11-3.09c-5.53,0-9.85,1.87-14.16,6.75
		v-5.45h-4.88v0.57c0,3.74-6.1,3.74-8.54,3.74h-0.57v3.01h8.54v26.29c0,3.66-1.79,5.62-6.18,5.62c-6.02,0-9.11-3.74-18.96-15.95
		l-12.13-16.52l9.11-8.63c9.44-8.87,12.53-11.64,21.08-11.64h0.57v-2.44H42.88v2.44h0.65c1.22,0,2.69,0.41,3.01,1.22
		c1.22,3.26-20.43,21.89-25.15,25.72v-21.4c0-4.31,1.14-5.53,7.32-5.53h0.57v-2.44H7.97v2.44h0.65c6.02,0,7.32,1.22,7.32,5.53v41.58
		c0,4.31-1.3,5.62-7.32,5.62H7.97v2.36h21.32v-2.36h-0.57c-6.18,0-7.32-1.3-7.32-5.62v-15.62l8.46-7.24l23.93,30.84h31.25v-2.36
		h-0.65c-6.02,0-7.32-1.3-7.32-5.62v-23.84c4.96-6.1,9.28-7.41,12.94-7.41c5.45,0,8.54,3.66,8.54,11.64v19.61
		c0,4.31-1.87,5.62-7.32,5.62h-0.65v2.36h21.4v-2.36h-0.57C108.3,361.6,106.51,360.95,105.29,359.64z"/>
</g>
</svg>
